{
	"notes": [
        {
          "duration": 0.23076900000000045,
          "durationTicks": 48,
          "midi": 53,
          "name": "F3",
          "ticks": 2760,
          "time": 13.269217499999998,
          "velocity": 0.7874015748031497
        },
        {
          "duration": 0.23076900000000045,
          "durationTicks": 48,
          "midi": 52,
          "name": "E3",
          "ticks": 2808,
          "time": 13.499986499999999,
          "velocity": 0.7874015748031497
        },
        {
          "duration": 0.23076900000000045,
          "durationTicks": 48,
          "midi": 53,
          "name": "F3",
          "ticks": 2880,
          "time": 13.846139999999998,
          "velocity": 0.7874015748031497
        },
        {
          "duration": 0.23076900000000045,
          "durationTicks": 48,
          "midi": 52,
          "name": "E3",
          "ticks": 2928,
          "time": 14.076908999999999,
          "velocity": 0.7874015748031497
        },
        {
          "duration": 0.23076900000000045,
          "durationTicks": 48,
          "midi": 53,
          "name": "F3",
          "ticks": 3024,
          "time": 14.538446999999998,
          "velocity": 0.7874015748031497
        },
        {
          "duration": 0.23076900000000045,
          "durationTicks": 48,
          "midi": 52,
          "name": "E3",
          "ticks": 3072,
          "time": 14.769215999999998,
          "velocity": 0.7874015748031497
        },
        {
          "duration": 0.23076900000000045,
          "durationTicks": 48,
          "midi": 53,
          "name": "F3",
          "ticks": 3144,
          "time": 15.115369499999998,
          "velocity": 0.7874015748031497
        },
        {
          "duration": 0.23076900000000045,
          "durationTicks": 48,
          "midi": 52,
          "name": "E3",
          "ticks": 3192,
          "time": 15.346138499999999,
          "velocity": 0.7874015748031497
        },
        {
          "duration": 0.23076900000000045,
          "durationTicks": 48,
          "midi": 52,
          "name": "E3",
          "ticks": 3264,
          "time": 15.692291999999998,
          "velocity": 0.7874015748031497
        },
        {
          "duration": 0.23076900000000045,
          "durationTicks": 48,
          "midi": 54,
          "name": "F#3",
          "ticks": 3312,
          "time": 15.923060999999999,
          "velocity": 0.7874015748031497
        },
        {
          "duration": 0.23076899999999867,
          "durationTicks": 48,
          "midi": 54,
          "name": "F#3",
          "ticks": 3360,
          "time": 16.15383,
          "velocity": 0.7874015748031497
        },
        {
          "duration": 0.3461534999999998,
          "durationTicks": 72,
          "midi": 53,
          "name": "F3",
          "ticks": 3408,
          "time": 16.384598999999998,
          "velocity": 0.7874015748031497
        },
        {
          "duration": 0.23076899999999867,
          "durationTicks": 48,
          "midi": 50,
          "name": "D3",
          "ticks": 3792,
          "time": 18.230750999999998,
          "velocity": 0.7874015748031497
        },
        {
          "duration": 0.23076900000000222,
          "durationTicks": 48,
          "midi": 50,
          "name": "D3",
          "ticks": 3840,
          "time": 18.461519999999997,
          "velocity": 0.7874015748031497
        },
        {
          "duration": 0.23076899999999867,
          "durationTicks": 48,
          "midi": 49,
          "name": "C#3",
          "ticks": 3888,
          "time": 18.692289,
          "velocity": 0.7874015748031497
        },
        {
          "duration": 0.23076899999999867,
          "durationTicks": 48,
          "midi": 49,
          "name": "C#3",
          "ticks": 3960,
          "time": 19.0384425,
          "velocity": 0.7874015748031497
        },
        {
          "duration": 0.23076899999999867,
          "durationTicks": 48,
          "midi": 49,
          "name": "C#3",
          "ticks": 4032,
          "time": 19.384596,
          "velocity": 0.7874015748031497
        },
        {
          "duration": 0.3461534999999998,
          "durationTicks": 72,
          "midi": 48,
          "name": "C3",
          "ticks": 4080,
          "time": 19.615364999999997,
          "velocity": 0.7874015748031497
        },
        {
          "duration": 0.3461534999999998,
          "durationTicks": 72,
          "midi": 49,
          "name": "C#3",
          "ticks": 4152,
          "time": 19.961518499999997,
          "velocity": 0.7874015748031497
        },
        {
          "duration": 0.3461534999999998,
          "durationTicks": 72,
          "midi": 48,
          "name": "C3",
          "ticks": 4224,
          "time": 20.307671999999997,
          "velocity": 0.7874015748031497
        },
        {
          "duration": 0.3461534999999998,
          "durationTicks": 72,
          "midi": 49,
          "name": "C#3",
          "ticks": 4296,
          "time": 20.653825499999996,
          "velocity": 0.7874015748031497
        },
        {
          "duration": 0.3461534999999998,
          "durationTicks": 72,
          "midi": 50,
          "name": "D3",
          "ticks": 4368,
          "time": 20.999978999999996,
          "velocity": 0.7874015748031497
        },
        {
          "duration": 0.34615350000000333,
          "durationTicks": 72,
          "midi": 49,
          "name": "C#3",
          "ticks": 4440,
          "time": 21.346132499999996,
          "velocity": 0.7874015748031497
        },
        {
          "duration": 0.3461534999999998,
          "durationTicks": 72,
          "midi": 52,
          "name": "E3",
          "ticks": 4728,
          "time": 22.7307465,
          "velocity": 0.7874015748031497
        },
        {
          "duration": 0.3461534999999998,
          "durationTicks": 72,
          "midi": 53,
          "name": "F3",
          "ticks": 4800,
          "time": 23.0769,
          "velocity": 0.7874015748031497
        },
        {
          "duration": 0.34615350000000333,
          "durationTicks": 72,
          "midi": 52,
          "name": "E3",
          "ticks": 4896,
          "time": 23.538437999999996,
          "velocity": 0.7874015748031497
        },
        {
          "duration": 0.3461534999999998,
          "durationTicks": 72,
          "midi": 53,
          "name": "F3",
          "ticks": 4968,
          "time": 23.8845915,
          "velocity": 0.7874015748031497
        },
        {
          "duration": 0.3461534999999998,
          "durationTicks": 72,
          "midi": 52,
          "name": "E3",
          "ticks": 5040,
          "time": 24.230745,
          "velocity": 0.7874015748031497
        },
        {
          "duration": 0.3461534999999998,
          "durationTicks": 72,
          "midi": 53,
          "name": "F3",
          "ticks": 5112,
          "time": 24.5768985,
          "velocity": 0.7874015748031497
        },
        {
          "duration": 0.23076899999999867,
          "durationTicks": 48,
          "midi": 52,
          "name": "E3",
          "ticks": 5184,
          "time": 24.923052,
          "velocity": 0.7874015748031497
        },
        {
          "duration": 0.3461534999999998,
          "durationTicks": 72,
          "midi": 53,
          "name": "F3",
          "ticks": 5232,
          "time": 25.153820999999997,
          "velocity": 0.7874015748031497
        },
        {
          "duration": 0.23076899999999867,
          "durationTicks": 48,
          "midi": 54,
          "name": "F#3",
          "ticks": 5304,
          "time": 25.499974499999997,
          "velocity": 0.7874015748031497
        },
        {
          "duration": 0.23076900000000222,
          "durationTicks": 48,
          "midi": 54,
          "name": "F#3",
          "ticks": 5352,
          "time": 25.730743499999996,
          "velocity": 0.7874015748031497
        },
        {
          "duration": 0.23076899999999867,
          "durationTicks": 48,
          "midi": 54,
          "name": "F#3",
          "ticks": 5400,
          "time": 25.961512499999998,
          "velocity": 0.7874015748031497
        },
        {
          "duration": 0.3461534999999998,
          "durationTicks": 72,
          "midi": 53,
          "name": "F3",
          "ticks": 5448,
          "time": 26.192281499999996,
          "velocity": 0.7874015748031497
        },
        {
          "duration": 0.23076900000000222,
          "durationTicks": 48,
          "midi": 50,
          "name": "D3",
          "ticks": 5808,
          "time": 27.923048999999995,
          "velocity": 0.7874015748031497
        },
        {
          "duration": 0.23076899999999867,
          "durationTicks": 48,
          "midi": 50,
          "name": "D3",
          "ticks": 5856,
          "time": 28.153817999999998,
          "velocity": 0.7874015748031497
        },
        {
          "duration": 0.4615380000000009,
          "durationTicks": 96,
          "midi": 49,
          "name": "C#3",
          "ticks": 5904,
          "time": 28.384586999999996,
          "velocity": 0.7874015748031497
        },
        {
          "duration": 0.3461534999999998,
          "durationTicks": 72,
          "midi": 49,
          "name": "C#3",
          "ticks": 6000,
          "time": 28.846124999999997,
          "velocity": 0.7874015748031497
        },
        {
          "duration": 0.23076899999999867,
          "durationTicks": 48,
          "midi": 49,
          "name": "C#3",
          "ticks": 6072,
          "time": 29.192278499999997,
          "velocity": 0.7874015748031497
        },
        {
          "duration": 0.23076900000000222,
          "durationTicks": 48,
          "midi": 48,
          "name": "C3",
          "ticks": 6120,
          "time": 29.423047499999996,
          "velocity": 0.7874015748031497
        },
        {
          "duration": 0.3461534999999998,
          "durationTicks": 72,
          "midi": 49,
          "name": "C#3",
          "ticks": 6168,
          "time": 29.653816499999998,
          "velocity": 0.7874015748031497
        },
        {
          "duration": 0.23076899999999867,
          "durationTicks": 48,
          "midi": 48,
          "name": "C3",
          "ticks": 6240,
          "time": 29.999969999999998,
          "velocity": 0.7874015748031497
        },
        {
          "duration": 0.3461534999999998,
          "durationTicks": 72,
          "midi": 49,
          "name": "C#3",
          "ticks": 6288,
          "time": 30.230738999999996,
          "velocity": 0.7874015748031497
        },
        {
          "duration": 0.3461534999999998,
          "durationTicks": 72,
          "midi": 50,
          "name": "D3",
          "ticks": 6360,
          "time": 30.576892499999996,
          "velocity": 0.7874015748031497
        },
        {
          "duration": 0.576922500000002,
          "durationTicks": 120,
          "midi": 49,
          "name": "C#3",
          "ticks": 6432,
          "time": 30.923045999999996,
          "velocity": 0.7874015748031497
        },
        {
          "duration": 0.576922500000002,
          "durationTicks": 120,
          "midi": 50,
          "name": "D3",
          "ticks": 6696,
          "time": 32.192275499999994,
          "velocity": 0.7874015748031497
        },
        {
          "duration": 0.576922500000002,
          "durationTicks": 120,
          "midi": 54,
          "name": "F#3",
          "ticks": 6696,
          "time": 32.192275499999994,
          "velocity": 0.7874015748031497
        },
        {
          "duration": 0.576922500000002,
          "durationTicks": 120,
          "midi": 49,
          "name": "C#3",
          "ticks": 6816,
          "time": 32.769197999999996,
          "velocity": 0.7874015748031497
        },
        {
          "duration": 0.576922500000002,
          "durationTicks": 120,
          "midi": 53,
          "name": "F3",
          "ticks": 6816,
          "time": 32.769197999999996,
          "velocity": 0.7874015748031497
        },
        {
          "duration": 0.3461534999999998,
          "durationTicks": 72,
          "midi": 54,
          "name": "F#3",
          "ticks": 6960,
          "time": 33.461504999999995,
          "velocity": 0.7874015748031497
        },
        {
          "duration": 0.3461534999999998,
          "durationTicks": 72,
          "midi": 53,
          "name": "F3",
          "ticks": 7032,
          "time": 33.807658499999995,
          "velocity": 0.7874015748031497
        },
        {
          "duration": 0.23076900000000222,
          "durationTicks": 48,
          "midi": 54,
          "name": "F#3",
          "ticks": 7104,
          "time": 34.153811999999995,
          "velocity": 0.7874015748031497
        },
        {
          "duration": 0.3461534999999998,
          "durationTicks": 72,
          "midi": 53,
          "name": "F3",
          "ticks": 7152,
          "time": 34.384581,
          "velocity": 0.7874015748031497
        },
        {
          "duration": 0.23076900000000222,
          "durationTicks": 48,
          "midi": 54,
          "name": "F#3",
          "ticks": 7224,
          "time": 34.7307345,
          "velocity": 0.7874015748031497
        },
        {
          "duration": 0.3461534999999998,
          "durationTicks": 72,
          "midi": 53,
          "name": "F3",
          "ticks": 7272,
          "time": 34.9615035,
          "velocity": 0.7874015748031497
        },
        {
          "duration": 0.23076899999999512,
          "durationTicks": 48,
          "midi": 52,
          "name": "E3",
          "ticks": 7344,
          "time": 35.307657,
          "velocity": 0.7874015748031497
        },
        {
          "duration": 0.23076900000000222,
          "durationTicks": 48,
          "midi": 52,
          "name": "E3",
          "ticks": 7392,
          "time": 35.538425999999994,
          "velocity": 0.7874015748031497
        },
        {
          "duration": 0.11538450000000466,
          "durationTicks": 24,
          "midi": 52,
          "name": "E3",
          "ticks": 7464,
          "time": 35.884579499999994,
          "velocity": 0.7874015748031497
        },
        {
          "duration": 0.11538449999999756,
          "durationTicks": 24,
          "midi": 52,
          "name": "E3",
          "ticks": 7488,
          "time": 35.999964,
          "velocity": 0.7874015748031497
        },
        {
          "duration": 0.11538449999999756,
          "durationTicks": 24,
          "midi": 52,
          "name": "E3",
          "ticks": 7512,
          "time": 36.115348499999996,
          "velocity": 0.7874015748031497
        },
        {
          "duration": 0.11538450000000466,
          "durationTicks": 24,
          "midi": 52,
          "name": "E3",
          "ticks": 7536,
          "time": 36.230732999999994,
          "velocity": 0.7874015748031497
        },
        {
          "duration": 0.11538449999999756,
          "durationTicks": 24,
          "midi": 52,
          "name": "E3",
          "ticks": 7560,
          "time": 36.3461175,
          "velocity": 0.7874015748031497
        },
        {
          "duration": 0.11538449999999756,
          "durationTicks": 24,
          "midi": 52,
          "name": "E3",
          "ticks": 7584,
          "time": 36.461501999999996,
          "velocity": 0.7874015748031497
        },
        {
          "duration": 0.11538450000000466,
          "durationTicks": 24,
          "midi": 52,
          "name": "E3",
          "ticks": 7608,
          "time": 36.57688649999999,
          "velocity": 0.7874015748031497
        },
        {
          "duration": 0.11538449999999756,
          "durationTicks": 24,
          "midi": 52,
          "name": "E3",
          "ticks": 7632,
          "time": 36.692271,
          "velocity": 0.7874015748031497
        },
        {
          "duration": 0.11538449999999756,
          "durationTicks": 24,
          "midi": 52,
          "name": "E3",
          "ticks": 7656,
          "time": 36.807655499999996,
          "velocity": 0.7874015748031497
        },
        {
          "duration": 0.11538450000000466,
          "durationTicks": 24,
          "midi": 52,
          "name": "E3",
          "ticks": 7680,
          "time": 36.92303999999999,
          "velocity": 0.7874015748031497
        },
        {
          "duration": 0.6923069999999996,
          "durationTicks": 144,
          "midi": 50,
          "name": "D3",
          "ticks": 7848,
          "time": 37.7307315,
          "velocity": 0.7874015748031497
        },
        {
          "duration": 0.576922500000002,
          "durationTicks": 120,
          "midi": 49,
          "name": "C#3",
          "ticks": 7992,
          "time": 38.4230385,
          "velocity": 0.7874015748031497
        },
        {
          "duration": 0.23076900000000222,
          "durationTicks": 48,
          "midi": 50,
          "name": "D3",
          "ticks": 8160,
          "time": 39.230729999999994,
          "velocity": 0.7874015748031497
        },
        {
          "duration": 0.3461534999999998,
          "durationTicks": 72,
          "midi": 49,
          "name": "C#3",
          "ticks": 8208,
          "time": 39.461498999999996,
          "velocity": 0.7874015748031497
        },
        {
          "duration": 0.3461534999999998,
          "durationTicks": 72,
          "midi": 48,
          "name": "C3",
          "ticks": 8280,
          "time": 39.807652499999996,
          "velocity": 0.7874015748031497
        },
        {
          "duration": 0.23076900000000222,
          "durationTicks": 48,
          "midi": 48,
          "name": "C3",
          "ticks": 8352,
          "time": 40.153805999999996,
          "velocity": 0.7874015748031497
        },
        {
          "duration": 0.46153799999999734,
          "durationTicks": 96,
          "midi": 48,
          "name": "C3",
          "ticks": 8400,
          "time": 40.384575,
          "velocity": 0.7874015748031497
        },
        {
          "duration": 0.46153799999999734,
          "durationTicks": 96,
          "midi": 50,
          "name": "D3",
          "ticks": 8496,
          "time": 40.846112999999995,
          "velocity": 0.7874015748031497
        },
        {
          "duration": 0.11538450000000466,
          "durationTicks": 24,
          "midi": 54,
          "name": "F#3",
          "ticks": 8736,
          "time": 41.99995799999999,
          "velocity": 0.7874015748031497
        },
        {
          "duration": 0.11538450000000466,
          "durationTicks": 24,
          "midi": 50,
          "name": "D3",
          "ticks": 8736,
          "time": 41.99995799999999,
          "velocity": 0.7874015748031497
        },
        {
          "duration": 0.11538449999999756,
          "durationTicks": 24,
          "midi": 54,
          "name": "F#3",
          "ticks": 8760,
          "time": 42.1153425,
          "velocity": 0.7874015748031497
        },
        {
          "duration": 0.11538449999999756,
          "durationTicks": 24,
          "midi": 50,
          "name": "D3",
          "ticks": 8760,
          "time": 42.1153425,
          "velocity": 0.7874015748031497
        },
        {
          "duration": 0.11538449999999756,
          "durationTicks": 24,
          "midi": 54,
          "name": "F#3",
          "ticks": 8784,
          "time": 42.230726999999995,
          "velocity": 0.7874015748031497
        },
        {
          "duration": 0.11538449999999756,
          "durationTicks": 24,
          "midi": 50,
          "name": "D3",
          "ticks": 8784,
          "time": 42.230726999999995,
          "velocity": 0.7874015748031497
        },
        {
          "duration": 0.11538450000000466,
          "durationTicks": 24,
          "midi": 54,
          "name": "F#3",
          "ticks": 8808,
          "time": 42.34611149999999,
          "velocity": 0.7874015748031497
        },
        {
          "duration": 0.11538450000000466,
          "durationTicks": 24,
          "midi": 50,
          "name": "D3",
          "ticks": 8808,
          "time": 42.34611149999999,
          "velocity": 0.7874015748031497
        },
        {
          "duration": 0.11538449999999756,
          "durationTicks": 24,
          "midi": 54,
          "name": "F#3",
          "ticks": 8832,
          "time": 42.461496,
          "velocity": 0.7874015748031497
        },
        {
          "duration": 0.11538449999999756,
          "durationTicks": 24,
          "midi": 50,
          "name": "D3",
          "ticks": 8832,
          "time": 42.461496,
          "velocity": 0.7874015748031497
        },
        {
          "duration": 0.11538449999999756,
          "durationTicks": 24,
          "midi": 50,
          "name": "D3",
          "ticks": 8856,
          "time": 42.576880499999994,
          "velocity": 0.7874015748031497
        },
        {
          "duration": 0.11538449999999756,
          "durationTicks": 24,
          "midi": 54,
          "name": "F#3",
          "ticks": 8856,
          "time": 42.576880499999994,
          "velocity": 0.7874015748031497
        },
        {
          "duration": 0.23076900000000222,
          "durationTicks": 48,
          "midi": 54,
          "name": "F#3",
          "ticks": 8976,
          "time": 43.153802999999996,
          "velocity": 0.7874015748031497
        },
        {
          "duration": 0.46153799999999734,
          "durationTicks": 96,
          "midi": 53,
          "name": "F3",
          "ticks": 9024,
          "time": 43.384572,
          "velocity": 0.7874015748031497
        },
        {
          "duration": 0.3461534999999998,
          "durationTicks": 72,
          "midi": 52,
          "name": "E3",
          "ticks": 9120,
          "time": 43.846109999999996,
          "velocity": 0.7874015748031497
        },
        {
          "duration": 0.3461534999999998,
          "durationTicks": 72,
          "midi": 53,
          "name": "F3",
          "ticks": 9192,
          "time": 44.192263499999996,
          "velocity": 0.7874015748031497
        },
        {
          "duration": 0.23076900000000222,
          "durationTicks": 48,
          "midi": 53,
          "name": "F3",
          "ticks": 9264,
          "time": 44.538416999999995,
          "velocity": 0.7874015748031497
        },
        {
          "duration": 0.5769224999999949,
          "durationTicks": 120,
          "midi": 52,
          "name": "E3",
          "ticks": 9312,
          "time": 44.769186,
          "velocity": 0.7874015748031497
        },
        {
          "duration": 0.11538450000000466,
          "durationTicks": 24,
          "midi": 52,
          "name": "E3",
          "ticks": 9432,
          "time": 45.34610849999999,
          "velocity": 0.7874015748031497
        },
        {
          "duration": 0.11538449999999756,
          "durationTicks": 24,
          "midi": 52,
          "name": "E3",
          "ticks": 9456,
          "time": 45.461493,
          "velocity": 0.7874015748031497
        },
        {
          "duration": 0.11538449999999756,
          "durationTicks": 24,
          "midi": 54,
          "name": "F#3",
          "ticks": 9480,
          "time": 45.576877499999995,
          "velocity": 0.7874015748031497
        },
        {
          "duration": 0.11538450000000466,
          "durationTicks": 24,
          "midi": 54,
          "name": "F#3",
          "ticks": 9504,
          "time": 45.69226199999999,
          "velocity": 0.7874015748031497
        },
        {
          "duration": 0.11538449999999756,
          "durationTicks": 24,
          "midi": 54,
          "name": "F#3",
          "ticks": 9528,
          "time": 45.8076465,
          "velocity": 0.7874015748031497
        },
        {
          "duration": 0.11538449999999756,
          "durationTicks": 24,
          "midi": 54,
          "name": "F#3",
          "ticks": 9552,
          "time": 45.923030999999995,
          "velocity": 0.7874015748031497
        },
        {
          "duration": 0.11538450000000466,
          "durationTicks": 24,
          "midi": 54,
          "name": "F#3",
          "ticks": 9576,
          "time": 46.03841549999999,
          "velocity": 0.7874015748031497
        },
        {
          "duration": 0.11538449999999756,
          "durationTicks": 24,
          "midi": 54,
          "name": "F#3",
          "ticks": 9600,
          "time": 46.1538,
          "velocity": 0.7874015748031497
        },
        {
          "duration": 0.11538449999999756,
          "durationTicks": 24,
          "midi": 54,
          "name": "F#3",
          "ticks": 9624,
          "time": 46.269184499999994,
          "velocity": 0.7874015748031497
        },
        {
          "duration": 0.23076900000000222,
          "durationTicks": 48,
          "midi": 50,
          "name": "D3",
          "ticks": 9888,
          "time": 47.538413999999996,
          "velocity": 0.7874015748031497
        },
        {
          "duration": 0.3461534999999998,
          "durationTicks": 72,
          "midi": 50,
          "name": "D3",
          "ticks": 9936,
          "time": 47.769183,
          "velocity": 0.7874015748031497
        },
        {
          "duration": 0.3461534999999998,
          "durationTicks": 72,
          "midi": 49,
          "name": "C#3",
          "ticks": 10008,
          "time": 48.1153365,
          "velocity": 0.7874015748031497
        },
        {
          "duration": 0.23076899999999512,
          "durationTicks": 48,
          "midi": 48,
          "name": "C3",
          "ticks": 10080,
          "time": 48.46149,
          "velocity": 0.7874015748031497
        },
        {
          "duration": 0.3461534999999998,
          "durationTicks": 72,
          "midi": 49,
          "name": "C#3",
          "ticks": 10128,
          "time": 48.69225899999999,
          "velocity": 0.7874015748031497
        },
        {
          "duration": 0.23076900000000222,
          "durationTicks": 48,
          "midi": 48,
          "name": "C3",
          "ticks": 10200,
          "time": 49.03841249999999,
          "velocity": 0.7874015748031497
        },
        {
          "duration": 0.3461534999999998,
          "durationTicks": 72,
          "midi": 49,
          "name": "C#3",
          "ticks": 10248,
          "time": 49.269181499999995,
          "velocity": 0.7874015748031497
        },
        {
          "duration": 0.23076900000000222,
          "durationTicks": 48,
          "midi": 48,
          "name": "C3",
          "ticks": 10320,
          "time": 49.615334999999995,
          "velocity": 0.7874015748031497
        },
        {
          "duration": 0.3461534999999998,
          "durationTicks": 72,
          "midi": 48,
          "name": "C3",
          "ticks": 10368,
          "time": 49.846104,
          "velocity": 0.7874015748031497
        },
        {
          "duration": 0.3461534999999998,
          "durationTicks": 72,
          "midi": 50,
          "name": "D3",
          "ticks": 10440,
          "time": 50.1922575,
          "velocity": 0.7874015748031497
        },
        {
          "duration": 0.46153799999999734,
          "durationTicks": 96,
          "midi": 49,
          "name": "C#3",
          "ticks": 10512,
          "time": 50.538410999999996,
          "velocity": 0.7874015748031497
        },
        {
          "duration": 0.46153799999999734,
          "durationTicks": 96,
          "midi": 48,
          "name": "C3",
          "ticks": 10752,
          "time": 51.69225599999999,
          "velocity": 0.7874015748031497
        },
        {
          "duration": 0.46153799999999734,
          "durationTicks": 96,
          "midi": 52,
          "name": "E3",
          "ticks": 10752,
          "time": 51.69225599999999,
          "velocity": 0.7874015748031497
        },
        {
          "duration": 0.3461534999999998,
          "durationTicks": 72,
          "midi": 48,
          "name": "C3",
          "ticks": 10896,
          "time": 52.38456299999999,
          "velocity": 0.7874015748031497
        },
        {
          "duration": 0.3461534999999998,
          "durationTicks": 72,
          "midi": 52,
          "name": "E3",
          "ticks": 10896,
          "time": 52.38456299999999,
          "velocity": 0.7874015748031497
        },
        {
          "duration": 0.23076900000000222,
          "durationTicks": 48,
          "midi": 54,
          "name": "F#3",
          "ticks": 11040,
          "time": 53.07686999999999,
          "velocity": 0.7874015748031497
        },
        {
          "duration": 0.3461534999999998,
          "durationTicks": 72,
          "midi": 54,
          "name": "F#3",
          "ticks": 11088,
          "time": 53.307638999999995,
          "velocity": 0.7874015748031497
        },
        {
          "duration": 0.23076900000000222,
          "durationTicks": 48,
          "midi": 53,
          "name": "F3",
          "ticks": 11160,
          "time": 53.653792499999994,
          "velocity": 0.7874015748031497
        },
        {
          "duration": 0.3461534999999998,
          "durationTicks": 72,
          "midi": 53,
          "name": "F3",
          "ticks": 11208,
          "time": 53.8845615,
          "velocity": 0.7874015748031497
        },
        {
          "duration": 0.3461534999999998,
          "durationTicks": 72,
          "midi": 53,
          "name": "F3",
          "ticks": 11280,
          "time": 54.230715,
          "velocity": 0.7874015748031497
        },
        {
          "duration": 0.3461534999999998,
          "durationTicks": 72,
          "midi": 52,
          "name": "E3",
          "ticks": 11352,
          "time": 54.576868499999996,
          "velocity": 0.7874015748031497
        },
        {
          "duration": 0.23076899999999512,
          "durationTicks": 48,
          "midi": 54,
          "name": "F#3",
          "ticks": 11424,
          "time": 54.923021999999996,
          "velocity": 0.7874015748031497
        },
        {
          "duration": 0.3461534999999998,
          "durationTicks": 72,
          "midi": 54,
          "name": "F#3",
          "ticks": 11472,
          "time": 55.15379099999999,
          "velocity": 0.7874015748031497
        },
        {
          "duration": 0.3461534999999998,
          "durationTicks": 72,
          "midi": 52,
          "name": "E3",
          "ticks": 11544,
          "time": 55.49994449999999,
          "velocity": 0.7874015748031497
        },
        {
          "duration": 0.23076900000000222,
          "durationTicks": 48,
          "midi": 50,
          "name": "D3",
          "ticks": 11928,
          "time": 57.346096499999994,
          "velocity": 0.7874015748031497
        },
        {
          "duration": 0.3461534999999998,
          "durationTicks": 72,
          "midi": 50,
          "name": "D3",
          "ticks": 11976,
          "time": 57.5768655,
          "velocity": 0.7874015748031497
        },
        {
          "duration": 0.23076899999999512,
          "durationTicks": 48,
          "midi": 49,
          "name": "C#3",
          "ticks": 12048,
          "time": 57.923019,
          "velocity": 0.7874015748031497
        },
        {
          "duration": 0.3461534999999998,
          "durationTicks": 72,
          "midi": 48,
          "name": "C3",
          "ticks": 12096,
          "time": 58.15378799999999,
          "velocity": 0.7874015748031497
        },
        {
          "duration": 0.3461534999999998,
          "durationTicks": 72,
          "midi": 48,
          "name": "C3",
          "ticks": 12168,
          "time": 58.49994149999999,
          "velocity": 0.7874015748031497
        },
        {
          "duration": 0.3461534999999998,
          "durationTicks": 72,
          "midi": 49,
          "name": "C#3",
          "ticks": 12240,
          "time": 58.84609499999999,
          "velocity": 0.7874015748031497
        },
        {
          "duration": 0.3461534999999998,
          "durationTicks": 72,
          "midi": 48,
          "name": "C3",
          "ticks": 12312,
          "time": 59.19224849999999,
          "velocity": 0.7874015748031497
        },
        {
          "duration": 0.23076900000000222,
          "durationTicks": 48,
          "midi": 49,
          "name": "C#3",
          "ticks": 12384,
          "time": 59.53840199999999,
          "velocity": 0.7874015748031497
        },
        {
          "duration": 0.23076900000000222,
          "durationTicks": 48,
          "midi": 48,
          "name": "C3",
          "ticks": 12432,
          "time": 59.76917099999999,
          "velocity": 0.7874015748031497
        },
        {
          "duration": 0.3461534999999998,
          "durationTicks": 72,
          "midi": 50,
          "name": "D3",
          "ticks": 12480,
          "time": 59.999939999999995,
          "velocity": 0.7874015748031497
        },
        {
          "duration": 0.3461534999999998,
          "durationTicks": 72,
          "midi": 50,
          "name": "D3",
          "ticks": 12552,
          "time": 60.346093499999995,
          "velocity": 0.7874015748031497
        },
        {
          "duration": 0.3461534999999998,
          "durationTicks": 72,
          "midi": 48,
          "name": "C3",
          "ticks": 12624,
          "time": 60.692246999999995,
          "velocity": 0.7874015748031497
        },
        {
          "duration": 0.23076899999999512,
          "durationTicks": 48,
          "midi": 50,
          "name": "D3",
          "ticks": 12696,
          "time": 61.038400499999995,
          "velocity": 0.7874015748031497
        },
        {
          "duration": 0.3461534999999998,
          "durationTicks": 72,
          "midi": 52,
          "name": "E3",
          "ticks": 12816,
          "time": 61.615323,
          "velocity": 0.7874015748031497
        },
        {
          "duration": 0.3461534999999998,
          "durationTicks": 72,
          "midi": 48,
          "name": "C3",
          "ticks": 12816,
          "time": 61.615323,
          "velocity": 0.7874015748031497
        },
        {
          "duration": 0.3461534999999998,
          "durationTicks": 72,
          "midi": 52,
          "name": "E3",
          "ticks": 12936,
          "time": 62.19224549999999,
          "velocity": 0.7874015748031497
        },
        {
          "duration": 0.3461534999999998,
          "durationTicks": 72,
          "midi": 48,
          "name": "C3",
          "ticks": 12936,
          "time": 62.19224549999999,
          "velocity": 0.7874015748031497
        },
        {
          "duration": 0.23076900000000222,
          "durationTicks": 48,
          "midi": 54,
          "name": "F#3",
          "ticks": 13080,
          "time": 62.88455249999999,
          "velocity": 0.7874015748031497
        },
        {
          "duration": 0.23076900000000222,
          "durationTicks": 48,
          "midi": 54,
          "name": "F#3",
          "ticks": 13128,
          "time": 63.11532149999999,
          "velocity": 0.7874015748031497
        },
        {
          "duration": 0.3461534999999998,
          "durationTicks": 72,
          "midi": 53,
          "name": "F3",
          "ticks": 13176,
          "time": 63.346090499999995,
          "velocity": 0.7874015748031497
        },
        {
          "duration": 0.3461534999999927,
          "durationTicks": 72,
          "midi": 53,
          "name": "F3",
          "ticks": 13248,
          "time": 63.692243999999995,
          "velocity": 0.7874015748031497
        },
        {
          "duration": 0.3461534999999998,
          "durationTicks": 72,
          "midi": 53,
          "name": "F3",
          "ticks": 13320,
          "time": 64.03839749999999,
          "velocity": 0.7874015748031497
        },
        {
          "duration": 0.3461534999999998,
          "durationTicks": 72,
          "midi": 52,
          "name": "E3",
          "ticks": 13392,
          "time": 64.38455099999999,
          "velocity": 0.7874015748031497
        },
        {
          "duration": 0.23076900000000933,
          "durationTicks": 48,
          "midi": 54,
          "name": "F#3",
          "ticks": 13464,
          "time": 64.73070449999999,
          "velocity": 0.7874015748031497
        },
        {
          "duration": 0.3461534999999998,
          "durationTicks": 72,
          "midi": 54,
          "name": "F#3",
          "ticks": 13512,
          "time": 64.9614735,
          "velocity": 0.7874015748031497
        },
        {
          "duration": 0.3461534999999998,
          "durationTicks": 72,
          "midi": 53,
          "name": "F3",
          "ticks": 13584,
          "time": 65.307627,
          "velocity": 0.7874015748031497
        },
        {
          "duration": 0.23076900000000933,
          "durationTicks": 48,
          "midi": 50,
          "name": "D3",
          "ticks": 13968,
          "time": 67.15377899999999,
          "velocity": 0.7874015748031497
        },
        {
          "duration": 0.3461534999999998,
          "durationTicks": 72,
          "midi": 50,
          "name": "D3",
          "ticks": 14016,
          "time": 67.384548,
          "velocity": 0.7874015748031497
        },
        {
          "duration": 0.23076899999999512,
          "durationTicks": 48,
          "midi": 49,
          "name": "C#3",
          "ticks": 14088,
          "time": 67.7307015,
          "velocity": 0.7874015748031497
        },
        {
          "duration": 0.3461534999999998,
          "durationTicks": 72,
          "midi": 49,
          "name": "C#3",
          "ticks": 14136,
          "time": 67.96147049999999,
          "velocity": 0.7874015748031497
        },
        {
          "duration": 0.3461534999999998,
          "durationTicks": 72,
          "midi": 48,
          "name": "C3",
          "ticks": 14208,
          "time": 68.30762399999999,
          "velocity": 0.7874015748031497
        },
        {
          "duration": 0.3461534999999998,
          "durationTicks": 72,
          "midi": 49,
          "name": "C#3",
          "ticks": 14280,
          "time": 68.65377749999999,
          "velocity": 0.7874015748031497
        },
        {
          "duration": 0.3461534999999998,
          "durationTicks": 72,
          "midi": 48,
          "name": "C3",
          "ticks": 14352,
          "time": 68.99993099999999,
          "velocity": 0.7874015748031497
        },
        {
          "duration": 0.23076900000000933,
          "durationTicks": 48,
          "midi": 48,
          "name": "C3",
          "ticks": 14424,
          "time": 69.34608449999999,
          "velocity": 0.7874015748031497
        },
        {
          "duration": 0.23076899999999512,
          "durationTicks": 48,
          "midi": 50,
          "name": "D3",
          "ticks": 14472,
          "time": 69.5768535,
          "velocity": 0.7874015748031497
        },
        {
          "duration": 0.3461534999999998,
          "durationTicks": 72,
          "midi": 50,
          "name": "D3",
          "ticks": 14520,
          "time": 69.8076225,
          "velocity": 0.7874015748031497
        },
        {
          "duration": 0.11538450000000466,
          "durationTicks": 24,
          "midi": 48,
          "name": "C3",
          "ticks": 14592,
          "time": 70.153776,
          "velocity": 0.7874015748031497
        },
        {
          "duration": 0.11538449999999045,
          "durationTicks": 24,
          "midi": 48,
          "name": "C3",
          "ticks": 14616,
          "time": 70.2691605,
          "velocity": 0.7874015748031497
        },
        {
          "duration": 0.11538450000000466,
          "durationTicks": 24,
          "midi": 48,
          "name": "C3",
          "ticks": 14640,
          "time": 70.38454499999999,
          "velocity": 0.7874015748031497
        },
        {
          "duration": 0.11538450000000466,
          "durationTicks": 24,
          "midi": 48,
          "name": "C3",
          "ticks": 14664,
          "time": 70.4999295,
          "velocity": 0.7874015748031497
        },
        {
          "duration": 0.11538449999999045,
          "durationTicks": 24,
          "midi": 48,
          "name": "C3",
          "ticks": 14688,
          "time": 70.615314,
          "velocity": 0.7874015748031497
        },
        {
          "duration": 0.11538450000000466,
          "durationTicks": 24,
          "midi": 48,
          "name": "C3",
          "ticks": 14712,
          "time": 70.73069849999999,
          "velocity": 0.7874015748031497
        },
        {
          "duration": 0.23076899999999512,
          "durationTicks": 48,
          "midi": 50,
          "name": "D3",
          "ticks": 14736,
          "time": 70.846083,
          "velocity": 0.7874015748031497
        },
        {
          "duration": 0.23076899999999512,
          "durationTicks": 48,
          "midi": 49,
          "name": "C#3",
          "ticks": 14976,
          "time": 71.999928,
          "velocity": 0.7874015748031497
        },
        {
          "duration": 0.23076899999999512,
          "durationTicks": 48,
          "midi": 48,
          "name": "C3",
          "ticks": 15024,
          "time": 72.23069699999999,
          "velocity": 0.7874015748031497
        },
        {
          "duration": 0.23076899999999512,
          "durationTicks": 48,
          "midi": 49,
          "name": "C#3",
          "ticks": 15096,
          "time": 72.57685049999999,
          "velocity": 0.7874015748031497
        },
        {
          "duration": 0.23076900000000933,
          "durationTicks": 48,
          "midi": 48,
          "name": "C3",
          "ticks": 15144,
          "time": 72.80761949999999,
          "velocity": 0.7874015748031497
        },
        {
          "duration": 0.23076899999999512,
          "durationTicks": 48,
          "midi": 49,
          "name": "C#3",
          "ticks": 15240,
          "time": 73.26915749999999,
          "velocity": 0.7874015748031497
        },
        {
          "duration": 0.23076900000000933,
          "durationTicks": 48,
          "midi": 48,
          "name": "C3",
          "ticks": 15288,
          "time": 73.49992649999999,
          "velocity": 0.7874015748031497
        },
        {
          "duration": 0.23076900000000933,
          "durationTicks": 48,
          "midi": 49,
          "name": "C#3",
          "ticks": 15360,
          "time": 73.84607999999999,
          "velocity": 0.7874015748031497
        },
        {
          "duration": 0.23076899999999512,
          "durationTicks": 48,
          "midi": 48,
          "name": "C3",
          "ticks": 15408,
          "time": 74.076849,
          "velocity": 0.7874015748031497
        },
        {
          "duration": 0.23076899999999512,
          "durationTicks": 48,
          "midi": 48,
          "name": "C3",
          "ticks": 15480,
          "time": 74.4230025,
          "velocity": 0.7874015748031497
        },
        {
          "duration": 0.23076899999999512,
          "durationTicks": 48,
          "midi": 52,
          "name": "E3",
          "ticks": 15480,
          "time": 74.4230025,
          "velocity": 0.7874015748031497
        },
        {
          "duration": 0.23076899999999512,
          "durationTicks": 48,
          "midi": 50,
          "name": "D3",
          "ticks": 15528,
          "time": 74.65377149999999,
          "velocity": 0.7874015748031497
        },
        {
          "duration": 0.23076899999999512,
          "durationTicks": 48,
          "midi": 54,
          "name": "F#3",
          "ticks": 15528,
          "time": 74.65377149999999,
          "velocity": 0.7874015748031497
        },
        {
          "duration": 0.23076900000000933,
          "durationTicks": 48,
          "midi": 49,
          "name": "C#3",
          "ticks": 15576,
          "time": 74.88454049999999,
          "velocity": 0.7874015748031497
        },
        {
          "duration": 0.23076900000000933,
          "durationTicks": 48,
          "midi": 53,
          "name": "F3",
          "ticks": 15576,
          "time": 74.88454049999999,
          "velocity": 0.7874015748031497
        },
        {
          "duration": 0.46153799999999023,
          "durationTicks": 96,
          "midi": 49,
          "name": "C#3",
          "ticks": 15624,
          "time": 75.1153095,
          "velocity": 0.7874015748031497
        },
        {
          "duration": 0.46153799999999023,
          "durationTicks": 96,
          "midi": 53,
          "name": "F3",
          "ticks": 15624,
          "time": 75.1153095,
          "velocity": 0.7874015748031497
        },
        {
          "duration": 0.23076900000000933,
          "durationTicks": 48,
          "midi": 52,
          "name": "E3",
          "ticks": 16008,
          "time": 76.96146149999998,
          "velocity": 0.7874015748031497
        },
        {
          "duration": 0.23076899999999512,
          "durationTicks": 48,
          "midi": 54,
          "name": "F#3",
          "ticks": 16056,
          "time": 77.1922305,
          "velocity": 0.7874015748031497
        },
        {
          "duration": 0.23076900000000933,
          "durationTicks": 48,
          "midi": 53,
          "name": "F3",
          "ticks": 16104,
          "time": 77.42299949999999,
          "velocity": 0.7874015748031497
        },
        {
          "duration": 0.23076900000000933,
          "durationTicks": 48,
          "midi": 53,
          "name": "F3",
          "ticks": 16176,
          "time": 77.76915299999999,
          "velocity": 0.7874015748031497
        },
        {
          "duration": 0.23076900000000933,
          "durationTicks": 48,
          "midi": 53,
          "name": "F3",
          "ticks": 16248,
          "time": 78.11530649999999,
          "velocity": 0.7874015748031497
        },
        {
          "duration": 0.3461534999999998,
          "durationTicks": 72,
          "midi": 52,
          "name": "E3",
          "ticks": 16296,
          "time": 78.3460755,
          "velocity": 0.7874015748031497
        },
        {
          "duration": 0.3461534999999998,
          "durationTicks": 72,
          "midi": 53,
          "name": "F3",
          "ticks": 16368,
          "time": 78.692229,
          "velocity": 0.7874015748031497
        },
        {
          "duration": 0.3461534999999998,
          "durationTicks": 72,
          "midi": 52,
          "name": "E3",
          "ticks": 16440,
          "time": 79.0383825,
          "velocity": 0.7874015748031497
        },
        {
          "duration": 0.3461534999999998,
          "durationTicks": 72,
          "midi": 53,
          "name": "F3",
          "ticks": 16512,
          "time": 79.384536,
          "velocity": 0.7874015748031497
        },
        {
          "duration": 0.3461534999999998,
          "durationTicks": 72,
          "midi": 49,
          "name": "C#3",
          "ticks": 16512,
          "time": 79.384536,
          "velocity": 0.7874015748031497
        },
        {
          "duration": 0.3461534999999998,
          "durationTicks": 72,
          "midi": 54,
          "name": "F#3",
          "ticks": 16584,
          "time": 79.7306895,
          "velocity": 0.7874015748031497
        },
        {
          "duration": 0.3461534999999998,
          "durationTicks": 72,
          "midi": 50,
          "name": "D3",
          "ticks": 16584,
          "time": 79.7306895,
          "velocity": 0.7874015748031497
        },
        {
          "duration": 0.3461534999999998,
          "durationTicks": 72,
          "midi": 53,
          "name": "F3",
          "ticks": 16656,
          "time": 80.076843,
          "velocity": 0.7874015748031497
        },
        {
          "duration": 0.3461534999999998,
          "durationTicks": 72,
          "midi": 49,
          "name": "C#3",
          "ticks": 16656,
          "time": 80.076843,
          "velocity": 0.7874015748031497
        },
        {
          "duration": 0.3461534999999998,
          "durationTicks": 72,
          "midi": 48,
          "name": "C3",
          "ticks": 16944,
          "time": 81.461457,
          "velocity": 0.7874015748031497
        },
        {
          "duration": 0.3461534999999998,
          "durationTicks": 72,
          "midi": 49,
          "name": "C#3",
          "ticks": 17016,
          "time": 81.8076105,
          "velocity": 0.7874015748031497
        },
        {
          "duration": 0.3461534999999998,
          "durationTicks": 72,
          "midi": 48,
          "name": "C3",
          "ticks": 17112,
          "time": 82.26914849999999,
          "velocity": 0.7874015748031497
        },
        {
          "duration": 0.3461534999999998,
          "durationTicks": 72,
          "midi": 49,
          "name": "C#3",
          "ticks": 17184,
          "time": 82.61530199999999,
          "velocity": 0.7874015748031497
        },
        {
          "duration": 0.3461534999999998,
          "durationTicks": 72,
          "midi": 48,
          "name": "C3",
          "ticks": 17256,
          "time": 82.96145549999999,
          "velocity": 0.7874015748031497
        },
        {
          "duration": 0.3461534999999998,
          "durationTicks": 72,
          "midi": 49,
          "name": "C#3",
          "ticks": 17328,
          "time": 83.30760899999999,
          "velocity": 0.7874015748031497
        },
        {
          "duration": 0.23076900000000933,
          "durationTicks": 48,
          "midi": 48,
          "name": "C3",
          "ticks": 17400,
          "time": 83.65376249999998,
          "velocity": 0.7874015748031497
        },
        {
          "duration": 0.3461534999999998,
          "durationTicks": 72,
          "midi": 49,
          "name": "C#3",
          "ticks": 17448,
          "time": 83.8845315,
          "velocity": 0.7874015748031497
        },
        {
          "duration": 0.23076899999999512,
          "durationTicks": 48,
          "midi": 48,
          "name": "C3",
          "ticks": 17520,
          "time": 84.230685,
          "velocity": 0.7874015748031497
        },
        {
          "duration": 0.23076899999999512,
          "durationTicks": 48,
          "midi": 53,
          "name": "F3",
          "ticks": 17520,
          "time": 84.230685,
          "velocity": 0.7874015748031497
        },
        {
          "duration": 0.23076899999999512,
          "durationTicks": 48,
          "midi": 54,
          "name": "F#3",
          "ticks": 17568,
          "time": 84.46145399999999,
          "velocity": 0.7874015748031497
        },
        {
          "duration": 0.23076899999999512,
          "durationTicks": 48,
          "midi": 50,
          "name": "D3",
          "ticks": 17568,
          "time": 84.46145399999999,
          "velocity": 0.7874015748031497
        },
        {
          "duration": 0.6923069999999996,
          "durationTicks": 144,
          "midi": 49,
          "name": "C#3",
          "ticks": 17616,
          "time": 84.69222299999998,
          "velocity": 0.7874015748031497
        },
        {
          "duration": 0.6923069999999996,
          "durationTicks": 144,
          "midi": 53,
          "name": "F3",
          "ticks": 17616,
          "time": 84.69222299999998,
          "velocity": 0.7874015748031497
        },
        {
          "duration": 0.23076899999999512,
          "durationTicks": 48,
          "midi": 54,
          "name": "F#3",
          "ticks": 18048,
          "time": 86.769144,
          "velocity": 0.7874015748031497
        },
        {
          "duration": 0.23076899999999512,
          "durationTicks": 48,
          "midi": 54,
          "name": "F#3",
          "ticks": 18096,
          "time": 86.99991299999999,
          "velocity": 0.7874015748031497
        },
        {
          "duration": 0.46153800000000444,
          "durationTicks": 96,
          "midi": 53,
          "name": "F3",
          "ticks": 18144,
          "time": 87.23068199999999,
          "velocity": 0.7874015748031497
        },
        {
          "duration": 0.3461534999999998,
          "durationTicks": 72,
          "midi": 53,
          "name": "F3",
          "ticks": 18240,
          "time": 87.69221999999999,
          "velocity": 0.7874015748031497
        },
        {
          "duration": 0.23076899999999512,
          "durationTicks": 48,
          "midi": 53,
          "name": "F3",
          "ticks": 18312,
          "time": 88.03837349999999,
          "velocity": 0.7874015748031497
        },
        {
          "duration": 0.23076900000000933,
          "durationTicks": 48,
          "midi": 52,
          "name": "E3",
          "ticks": 18360,
          "time": 88.26914249999999,
          "velocity": 0.7874015748031497
        },
        {
          "duration": 0.3461534999999998,
          "durationTicks": 72,
          "midi": 53,
          "name": "F3",
          "ticks": 18408,
          "time": 88.4999115,
          "velocity": 0.7874015748031497
        },
        {
          "duration": 0.23076899999999512,
          "durationTicks": 48,
          "midi": 52,
          "name": "E3",
          "ticks": 18480,
          "time": 88.846065,
          "velocity": 0.7874015748031497
        },
        {
          "duration": 0.3461534999999998,
          "durationTicks": 72,
          "midi": 53,
          "name": "F3",
          "ticks": 18528,
          "time": 89.07683399999999,
          "velocity": 0.7874015748031497
        },
        {
          "duration": 0.3461534999999998,
          "durationTicks": 72,
          "midi": 54,
          "name": "F#3",
          "ticks": 18600,
          "time": 89.42298749999999,
          "velocity": 0.7874015748031497
        },
        {
          "duration": 0.5769224999999949,
          "durationTicks": 120,
          "midi": 53,
          "name": "F3",
          "ticks": 18672,
          "time": 89.76914099999999,
          "velocity": 0.7874015748031497
        },
        {
          "duration": 0.11538449999999045,
          "durationTicks": 24,
          "midi": 54,
          "name": "F#3",
          "ticks": 18912,
          "time": 90.922986,
          "velocity": 0.7874015748031497
        },
        {
          "duration": 0.11538449999999045,
          "durationTicks": 24,
          "midi": 50,
          "name": "D3",
          "ticks": 18912,
          "time": 90.922986,
          "velocity": 0.7874015748031497
        },
        {
          "duration": 0.11538450000000466,
          "durationTicks": 24,
          "midi": 50,
          "name": "D3",
          "ticks": 18936,
          "time": 91.03837049999998,
          "velocity": 0.7874015748031497
        },
        {
          "duration": 0.11538450000000466,
          "durationTicks": 24,
          "midi": 54,
          "name": "F#3",
          "ticks": 18936,
          "time": 91.03837049999998,
          "velocity": 0.7874015748031497
        },
        {
          "duration": 0.11538450000000466,
          "durationTicks": 24,
          "midi": 50,
          "name": "D3",
          "ticks": 18960,
          "time": 91.15375499999999,
          "velocity": 0.7874015748031497
        },
        {
          "duration": 0.11538450000000466,
          "durationTicks": 24,
          "midi": 54,
          "name": "F#3",
          "ticks": 18960,
          "time": 91.15375499999999,
          "velocity": 0.7874015748031497
        },
        {
          "duration": 0.11538449999999045,
          "durationTicks": 24,
          "midi": 54,
          "name": "F#3",
          "ticks": 18984,
          "time": 91.2691395,
          "velocity": 0.7874015748031497
        },
        {
          "duration": 0.11538449999999045,
          "durationTicks": 24,
          "midi": 50,
          "name": "D3",
          "ticks": 18984,
          "time": 91.2691395,
          "velocity": 0.7874015748031497
        },
        {
          "duration": 0.11538450000000466,
          "durationTicks": 24,
          "midi": 54,
          "name": "F#3",
          "ticks": 19008,
          "time": 91.38452399999998,
          "velocity": 0.7874015748031497
        },
        {
          "duration": 0.11538450000000466,
          "durationTicks": 24,
          "midi": 50,
          "name": "D3",
          "ticks": 19008,
          "time": 91.38452399999998,
          "velocity": 0.7874015748031497
        },
        {
          "duration": 0.11538450000000466,
          "durationTicks": 24,
          "midi": 49,
          "name": "C#3",
          "ticks": 19032,
          "time": 91.49990849999999,
          "velocity": 0.7874015748031497
        },
        {
          "duration": 0.11538450000000466,
          "durationTicks": 24,
          "midi": 53,
          "name": "F3",
          "ticks": 19032,
          "time": 91.49990849999999,
          "velocity": 0.7874015748031497
        },
        {
          "duration": 0.11538449999999045,
          "durationTicks": 24,
          "midi": 49,
          "name": "C#3",
          "ticks": 19056,
          "time": 91.615293,
          "velocity": 0.7874015748031497
        },
        {
          "duration": 0.11538449999999045,
          "durationTicks": 24,
          "midi": 53,
          "name": "F3",
          "ticks": 19056,
          "time": 91.615293,
          "velocity": 0.7874015748031497
        },
        {
          "duration": 0.11538450000000466,
          "durationTicks": 24,
          "midi": 49,
          "name": "C#3",
          "ticks": 19080,
          "time": 91.73067749999998,
          "velocity": 0.7874015748031497
        },
        {
          "duration": 0.11538450000000466,
          "durationTicks": 24,
          "midi": 53,
          "name": "F3",
          "ticks": 19080,
          "time": 91.73067749999998,
          "velocity": 0.7874015748031497
        },
        {
          "duration": 0.11538450000000466,
          "durationTicks": 24,
          "midi": 49,
          "name": "C#3",
          "ticks": 19104,
          "time": 91.84606199999999,
          "velocity": 0.7874015748031497
        },
        {
          "duration": 0.11538450000000466,
          "durationTicks": 24,
          "midi": 53,
          "name": "F3",
          "ticks": 19104,
          "time": 91.84606199999999,
          "velocity": 0.7874015748031497
        },
        {
          "duration": 0.11538449999999045,
          "durationTicks": 24,
          "midi": 49,
          "name": "C#3",
          "ticks": 19128,
          "time": 91.9614465,
          "velocity": 0.7874015748031497
        },
        {
          "duration": 0.11538449999999045,
          "durationTicks": 24,
          "midi": 53,
          "name": "F3",
          "ticks": 19128,
          "time": 91.9614465,
          "velocity": 0.7874015748031497
        },
        {
          "duration": 0.3461534999999998,
          "durationTicks": 72,
          "midi": 54,
          "name": "F#3",
          "ticks": 19176,
          "time": 92.19221549999999,
          "velocity": 0.7874015748031497
        },
        {
          "duration": 0.3461534999999998,
          "durationTicks": 72,
          "midi": 50,
          "name": "D3",
          "ticks": 19176,
          "time": 92.19221549999999,
          "velocity": 0.7874015748031497
        },
        {
          "duration": 0.3461534999999998,
          "durationTicks": 72,
          "midi": 49,
          "name": "C#3",
          "ticks": 19248,
          "time": 92.53836899999999,
          "velocity": 0.7874015748031497
        },
        {
          "duration": 0.3461534999999998,
          "durationTicks": 72,
          "midi": 53,
          "name": "F3",
          "ticks": 19248,
          "time": 92.53836899999999,
          "velocity": 0.7874015748031497
        },
        {
          "duration": 0.23076899999999512,
          "durationTicks": 48,
          "midi": 50,
          "name": "D3",
          "ticks": 19320,
          "time": 92.88452249999999,
          "velocity": 0.7874015748031497
        },
        {
          "duration": 0.23076899999999512,
          "durationTicks": 48,
          "midi": 54,
          "name": "F#3",
          "ticks": 19320,
          "time": 92.88452249999999,
          "velocity": 0.7874015748031497
        },
        {
          "duration": 0.3461534999999998,
          "durationTicks": 72,
          "midi": 49,
          "name": "C#3",
          "ticks": 19368,
          "time": 93.11529149999998,
          "velocity": 0.7874015748031497
        },
        {
          "duration": 0.3461534999999998,
          "durationTicks": 72,
          "midi": 53,
          "name": "F3",
          "ticks": 19368,
          "time": 93.11529149999998,
          "velocity": 0.7874015748031497
        },
        {
          "duration": 0.23076900000000933,
          "durationTicks": 48,
          "midi": 54,
          "name": "F#3",
          "ticks": 19440,
          "time": 93.46144499999998,
          "velocity": 0.7874015748031497
        },
        {
          "duration": 0.23076900000000933,
          "durationTicks": 48,
          "midi": 50,
          "name": "D3",
          "ticks": 19440,
          "time": 93.46144499999998,
          "velocity": 0.7874015748031497
        },
        {
          "duration": 0.3461534999999998,
          "durationTicks": 72,
          "midi": 49,
          "name": "C#3",
          "ticks": 19488,
          "time": 93.69221399999999,
          "velocity": 0.7874015748031497
        },
        {
          "duration": 0.3461534999999998,
          "durationTicks": 72,
          "midi": 53,
          "name": "F3",
          "ticks": 19488,
          "time": 93.69221399999999,
          "velocity": 0.7874015748031497
        },
        {
          "duration": 0.23076899999999512,
          "durationTicks": 48,
          "midi": 52,
          "name": "E3",
          "ticks": 19560,
          "time": 94.03836749999999,
          "velocity": 0.7874015748031497
        },
        {
          "duration": 0.23076899999999512,
          "durationTicks": 48,
          "midi": 48,
          "name": "C3",
          "ticks": 19560,
          "time": 94.03836749999999,
          "velocity": 0.7874015748031497
        },
        {
          "duration": 0.23076899999999512,
          "durationTicks": 48,
          "midi": 52,
          "name": "E3",
          "ticks": 19608,
          "time": 94.26913649999999,
          "velocity": 0.7874015748031497
        },
        {
          "duration": 0.23076899999999512,
          "durationTicks": 48,
          "midi": 48,
          "name": "C3",
          "ticks": 19608,
          "time": 94.26913649999999,
          "velocity": 0.7874015748031497
        },
        {
          "duration": 0.11538450000000466,
          "durationTicks": 24,
          "midi": 48,
          "name": "C3",
          "ticks": 19680,
          "time": 94.61528999999999,
          "velocity": 0.7874015748031497
        },
        {
          "duration": 0.11538450000000466,
          "durationTicks": 24,
          "midi": 52,
          "name": "E3",
          "ticks": 19680,
          "time": 94.61528999999999,
          "velocity": 0.7874015748031497
        },
        {
          "duration": 0.11538449999999045,
          "durationTicks": 24,
          "midi": 52,
          "name": "E3",
          "ticks": 19704,
          "time": 94.73067449999999,
          "velocity": 0.7874015748031497
        },
        {
          "duration": 0.11538449999999045,
          "durationTicks": 24,
          "midi": 48,
          "name": "C3",
          "ticks": 19704,
          "time": 94.73067449999999,
          "velocity": 0.7874015748031497
        },
        {
          "duration": 0.11538450000000466,
          "durationTicks": 24,
          "midi": 48,
          "name": "C3",
          "ticks": 19728,
          "time": 94.84605899999998,
          "velocity": 0.7874015748031497
        },
        {
          "duration": 0.11538450000000466,
          "durationTicks": 24,
          "midi": 52,
          "name": "E3",
          "ticks": 19728,
          "time": 94.84605899999998,
          "velocity": 0.7874015748031497
        },
        {
          "duration": 0.11538450000000466,
          "durationTicks": 24,
          "midi": 52,
          "name": "E3",
          "ticks": 19752,
          "time": 94.96144349999999,
          "velocity": 0.7874015748031497
        },
        {
          "duration": 0.11538450000000466,
          "durationTicks": 24,
          "midi": 48,
          "name": "C3",
          "ticks": 19752,
          "time": 94.96144349999999,
          "velocity": 0.7874015748031497
        },
        {
          "duration": 0.11538449999999045,
          "durationTicks": 24,
          "midi": 48,
          "name": "C3",
          "ticks": 19776,
          "time": 95.07682799999999,
          "velocity": 0.7874015748031497
        },
        {
          "duration": 0.11538449999999045,
          "durationTicks": 24,
          "midi": 52,
          "name": "E3",
          "ticks": 19776,
          "time": 95.07682799999999,
          "velocity": 0.7874015748031497
        },
        {
          "duration": 0.11538450000000466,
          "durationTicks": 24,
          "midi": 52,
          "name": "E3",
          "ticks": 19800,
          "time": 95.19221249999998,
          "velocity": 0.7874015748031497
        },
        {
          "duration": 0.11538450000000466,
          "durationTicks": 24,
          "midi": 48,
          "name": "C3",
          "ticks": 19800,
          "time": 95.19221249999998,
          "velocity": 0.7874015748031497
        },
        {
          "duration": 0.11538450000000466,
          "durationTicks": 24,
          "midi": 48,
          "name": "C3",
          "ticks": 19824,
          "time": 95.30759699999999,
          "velocity": 0.7874015748031497
        },
        {
          "duration": 0.11538450000000466,
          "durationTicks": 24,
          "midi": 52,
          "name": "E3",
          "ticks": 19824,
          "time": 95.30759699999999,
          "velocity": 0.7874015748031497
        },
        {
          "duration": 0.11538450000000466,
          "durationTicks": 24,
          "midi": 52,
          "name": "E3",
          "ticks": 19848,
          "time": 95.42298149999999,
          "velocity": 0.7874015748031497
        },
        {
          "duration": 0.11538450000000466,
          "durationTicks": 24,
          "midi": 48,
          "name": "C3",
          "ticks": 19848,
          "time": 95.42298149999999,
          "velocity": 0.7874015748031497
        },
        {
          "duration": 0.11538449999999045,
          "durationTicks": 24,
          "midi": 48,
          "name": "C3",
          "ticks": 19872,
          "time": 95.538366,
          "velocity": 0.7874015748031497
        },
        {
          "duration": 0.11538449999999045,
          "durationTicks": 24,
          "midi": 52,
          "name": "E3",
          "ticks": 19872,
          "time": 95.538366,
          "velocity": 0.7874015748031497
        },
        {
          "duration": 0.11538450000000466,
          "durationTicks": 24,
          "midi": 52,
          "name": "E3",
          "ticks": 19896,
          "time": 95.65375049999999,
          "velocity": 0.7874015748031497
        },
        {
          "duration": 0.11538450000000466,
          "durationTicks": 24,
          "midi": 48,
          "name": "C3",
          "ticks": 19896,
          "time": 95.65375049999999,
          "velocity": 0.7874015748031497
        },
        {
          "duration": 0.11538450000000466,
          "durationTicks": 24,
          "midi": 48,
          "name": "C3",
          "ticks": 19920,
          "time": 95.76913499999999,
          "velocity": 0.7874015748031497
        },
        {
          "duration": 0.11538450000000466,
          "durationTicks": 24,
          "midi": 52,
          "name": "E3",
          "ticks": 19920,
          "time": 95.76913499999999,
          "velocity": 0.7874015748031497
        },
        {
          "duration": 0.6923069999999996,
          "durationTicks": 144,
          "midi": 50,
          "name": "D3",
          "ticks": 20064,
          "time": 96.46144199999999,
          "velocity": 0.7874015748031497
        },
        {
          "duration": 0.5769224999999949,
          "durationTicks": 120,
          "midi": 49,
          "name": "C#3",
          "ticks": 20208,
          "time": 97.15374899999999,
          "velocity": 0.7874015748031497
        },
        {
          "duration": 0.46153800000000444,
          "durationTicks": 96,
          "midi": 50,
          "name": "D3",
          "ticks": 20328,
          "time": 97.73067149999999,
          "velocity": 0.7874015748031497
        },
        {
          "duration": 0.3461534999999998,
          "durationTicks": 72,
          "midi": 49,
          "name": "C#3",
          "ticks": 20424,
          "time": 98.19220949999999,
          "velocity": 0.7874015748031497
        },
        {
          "duration": 0.3461534999999998,
          "durationTicks": 72,
          "midi": 48,
          "name": "C3",
          "ticks": 20496,
          "time": 98.53836299999999,
          "velocity": 0.7874015748031497
        },
        {
          "duration": 0.23076899999999512,
          "durationTicks": 48,
          "midi": 48,
          "name": "C3",
          "ticks": 20568,
          "time": 98.88451649999999,
          "velocity": 0.7874015748031497
        },
        {
          "duration": 0.46153800000000444,
          "durationTicks": 96,
          "midi": 48,
          "name": "C3",
          "ticks": 20616,
          "time": 99.11528549999998,
          "velocity": 0.7874015748031497
        },
        {
          "duration": 0.46153800000000444,
          "durationTicks": 96,
          "midi": 50,
          "name": "D3",
          "ticks": 20712,
          "time": 99.57682349999999,
          "velocity": 0.7874015748031497
        },
        {
          "duration": 0.11538449999999045,
          "durationTicks": 24,
          "midi": 50,
          "name": "D3",
          "ticks": 20952,
          "time": 100.7306685,
          "velocity": 0.7874015748031497
        },
        {
          "duration": 0.11538449999999045,
          "durationTicks": 24,
          "midi": 54,
          "name": "F#3",
          "ticks": 20952,
          "time": 100.7306685,
          "velocity": 0.7874015748031497
        },
        {
          "duration": 0.11538450000000466,
          "durationTicks": 24,
          "midi": 54,
          "name": "F#3",
          "ticks": 20976,
          "time": 100.84605299999998,
          "velocity": 0.7874015748031497
        },
        {
          "duration": 0.11538450000000466,
          "durationTicks": 24,
          "midi": 50,
          "name": "D3",
          "ticks": 20976,
          "time": 100.84605299999998,
          "velocity": 0.7874015748031497
        },
        {
          "duration": 0.11538450000000466,
          "durationTicks": 24,
          "midi": 50,
          "name": "D3",
          "ticks": 21000,
          "time": 100.96143749999999,
          "velocity": 0.7874015748031497
        },
        {
          "duration": 0.11538450000000466,
          "durationTicks": 24,
          "midi": 54,
          "name": "F#3",
          "ticks": 21000,
          "time": 100.96143749999999,
          "velocity": 0.7874015748031497
        },
        {
          "duration": 0.11538449999999045,
          "durationTicks": 24,
          "midi": 54,
          "name": "F#3",
          "ticks": 21024,
          "time": 101.07682199999999,
          "velocity": 0.7874015748031497
        },
        {
          "duration": 0.11538449999999045,
          "durationTicks": 24,
          "midi": 50,
          "name": "D3",
          "ticks": 21024,
          "time": 101.07682199999999,
          "velocity": 0.7874015748031497
        },
        {
          "duration": 0.11538450000000466,
          "durationTicks": 24,
          "midi": 50,
          "name": "D3",
          "ticks": 21048,
          "time": 101.19220649999998,
          "velocity": 0.7874015748031497
        },
        {
          "duration": 0.11538450000000466,
          "durationTicks": 24,
          "midi": 54,
          "name": "F#3",
          "ticks": 21048,
          "time": 101.19220649999998,
          "velocity": 0.7874015748031497
        },
        {
          "duration": 0.11538450000000466,
          "durationTicks": 24,
          "midi": 54,
          "name": "F#3",
          "ticks": 21072,
          "time": 101.30759099999999,
          "velocity": 0.7874015748031497
        },
        {
          "duration": 0.11538450000000466,
          "durationTicks": 24,
          "midi": 50,
          "name": "D3",
          "ticks": 21072,
          "time": 101.30759099999999,
          "velocity": 0.7874015748031497
        },
        {
          "duration": 0.46153800000000444,
          "durationTicks": 96,
          "midi": 54,
          "name": "F#3",
          "ticks": 21144,
          "time": 101.65374449999999,
          "velocity": 0.7874015748031497
        },
        {
          "duration": 0.46153799999999023,
          "durationTicks": 96,
          "midi": 53,
          "name": "F3",
          "ticks": 21240,
          "time": 102.11528249999999,
          "velocity": 0.7874015748031497
        },
        {
          "duration": 0.3461534999999998,
          "durationTicks": 72,
          "midi": 52,
          "name": "E3",
          "ticks": 21336,
          "time": 102.57682049999998,
          "velocity": 0.7874015748031497
        },
        {
          "duration": 0.3461534999999998,
          "durationTicks": 72,
          "midi": 53,
          "name": "F3",
          "ticks": 21408,
          "time": 102.92297399999998,
          "velocity": 0.7874015748031497
        },
        {
          "duration": 0.23076900000000933,
          "durationTicks": 48,
          "midi": 53,
          "name": "F3",
          "ticks": 21480,
          "time": 103.26912749999998,
          "velocity": 0.7874015748031497
        },
        {
          "duration": 0.5769224999999949,
          "durationTicks": 120,
          "midi": 52,
          "name": "E3",
          "ticks": 21528,
          "time": 103.49989649999999,
          "velocity": 0.7874015748031497
        },
        {
          "duration": 0.11538450000000466,
          "durationTicks": 24,
          "midi": 52,
          "name": "E3",
          "ticks": 21648,
          "time": 104.07681899999999,
          "velocity": 0.7874015748031497
        },
        {
          "duration": 0.11538449999999045,
          "durationTicks": 24,
          "midi": 52,
          "name": "E3",
          "ticks": 21672,
          "time": 104.19220349999999,
          "velocity": 0.7874015748031497
        },
        {
          "duration": 0.11538450000000466,
          "durationTicks": 24,
          "midi": 54,
          "name": "F#3",
          "ticks": 21696,
          "time": 104.30758799999998,
          "velocity": 0.7874015748031497
        },
        {
          "duration": 0.11538450000000466,
          "durationTicks": 24,
          "midi": 54,
          "name": "F#3",
          "ticks": 21720,
          "time": 104.42297249999999,
          "velocity": 0.7874015748031497
        },
        {
          "duration": 0.11538450000000466,
          "durationTicks": 24,
          "midi": 54,
          "name": "F#3",
          "ticks": 21744,
          "time": 104.53835699999999,
          "velocity": 0.7874015748031497
        },
        {
          "duration": 0.11538449999999045,
          "durationTicks": 24,
          "midi": 54,
          "name": "F#3",
          "ticks": 21768,
          "time": 104.6537415,
          "velocity": 0.7874015748031497
        },
        {
          "duration": 0.11538450000000466,
          "durationTicks": 24,
          "midi": 54,
          "name": "F#3",
          "ticks": 21792,
          "time": 104.76912599999999,
          "velocity": 0.7874015748031497
        },
        {
          "duration": 0.11538450000000466,
          "durationTicks": 24,
          "midi": 54,
          "name": "F#3",
          "ticks": 21816,
          "time": 104.88451049999999,
          "velocity": 0.7874015748031497
        },
        {
          "duration": 0.11538449999999045,
          "durationTicks": 24,
          "midi": 54,
          "name": "F#3",
          "ticks": 21840,
          "time": 104.999895,
          "velocity": 0.7874015748031497
        },
        {
          "duration": 0.23076899999999512,
          "durationTicks": 48,
          "midi": 50,
          "name": "D3",
          "ticks": 22104,
          "time": 106.26912449999999,
          "velocity": 0.7874015748031497
        },
        {
          "duration": 0.3461534999999998,
          "durationTicks": 72,
          "midi": 50,
          "name": "D3",
          "ticks": 22152,
          "time": 106.49989349999998,
          "velocity": 0.7874015748031497
        },
        {
          "duration": 0.3461534999999998,
          "durationTicks": 72,
          "midi": 49,
          "name": "C#3",
          "ticks": 22224,
          "time": 106.84604699999998,
          "velocity": 0.7874015748031497
        },
        {
          "duration": 0.23076900000000933,
          "durationTicks": 48,
          "midi": 48,
          "name": "C3",
          "ticks": 22296,
          "time": 107.19220049999998,
          "velocity": 0.7874015748031497
        },
        {
          "duration": 0.3461534999999998,
          "durationTicks": 72,
          "midi": 49,
          "name": "C#3",
          "ticks": 22344,
          "time": 107.4229695,
          "velocity": 0.7874015748031497
        },
        {
          "duration": 0.23076899999999512,
          "durationTicks": 48,
          "midi": 48,
          "name": "C3",
          "ticks": 22416,
          "time": 107.769123,
          "velocity": 0.7874015748031497
        },
        {
          "duration": 0.3461534999999998,
          "durationTicks": 72,
          "midi": 49,
          "name": "C#3",
          "ticks": 22464,
          "time": 107.99989199999999,
          "velocity": 0.7874015748031497
        },
        {
          "duration": 0.23076899999999512,
          "durationTicks": 48,
          "midi": 48,
          "name": "C3",
          "ticks": 22536,
          "time": 108.34604549999999,
          "velocity": 0.7874015748031497
        },
        {
          "duration": 0.3461534999999998,
          "durationTicks": 72,
          "midi": 48,
          "name": "C3",
          "ticks": 22584,
          "time": 108.57681449999998,
          "velocity": 0.7874015748031497
        },
        {
          "duration": 0.3461534999999998,
          "durationTicks": 72,
          "midi": 50,
          "name": "D3",
          "ticks": 22656,
          "time": 108.92296799999998,
          "velocity": 0.7874015748031497
        },
        {
          "duration": 0.46153800000000444,
          "durationTicks": 96,
          "midi": 49,
          "name": "C#3",
          "ticks": 22728,
          "time": 109.26912149999998,
          "velocity": 0.7874015748031497
        }
      ]
}