{
	"notes": [
        {
          "duration": 0.23076899999999956,
          "durationTicks": 48,
          "midi": 53,
          "name": "F3",
          "ticks": 1536,
          "time": 7.384607999999999,
          "velocity": 0.7874015748031497
        },
        {
          "duration": 0.34615350000000067,
          "durationTicks": 72,
          "midi": 54,
          "name": "F#3",
          "ticks": 1584,
          "time": 7.615376999999999,
          "velocity": 0.7874015748031497
        },
        {
          "duration": 0.3461534999999989,
          "durationTicks": 72,
          "midi": 53,
          "name": "F3",
          "ticks": 1656,
          "time": 7.961530499999999,
          "velocity": 0.7874015748031497
        },
        {
          "duration": 0.8076915000000007,
          "durationTicks": 168,
          "midi": 53,
          "name": "F3",
          "ticks": 1728,
          "time": 8.307683999999998,
          "velocity": 0.7874015748031497
        },
        {
          "duration": 0.23076900000000045,
          "durationTicks": 48,
          "midi": 52,
          "name": "E3",
          "ticks": 2016,
          "time": 9.692298,
          "velocity": 0.7874015748031497
        },
        {
          "duration": 0.23076899999999867,
          "durationTicks": 48,
          "midi": 53,
          "name": "F3",
          "ticks": 2064,
          "time": 9.923067,
          "velocity": 0.7874015748031497
        },
        {
          "duration": 0.23076900000000045,
          "durationTicks": 48,
          "midi": 53,
          "name": "F3",
          "ticks": 2112,
          "time": 10.153835999999998,
          "velocity": 0.7874015748031497
        },
        {
          "duration": 0.3461534999999998,
          "durationTicks": 72,
          "midi": 52,
          "name": "E3",
          "ticks": 2232,
          "time": 10.730758499999999,
          "velocity": 0.7874015748031497
        },
        {
          "duration": 0.4615379999999991,
          "durationTicks": 96,
          "midi": 53,
          "name": "F3",
          "ticks": 2328,
          "time": 11.1922965,
          "velocity": 0.7874015748031497
        },
        {
          "duration": 0.3461534999999998,
          "durationTicks": 72,
          "midi": 54,
          "name": "F#3",
          "ticks": 2424,
          "time": 11.653834499999999,
          "velocity": 0.7874015748031497
        },
        {
          "duration": 0.3461534999999998,
          "durationTicks": 72,
          "midi": 53,
          "name": "F3",
          "ticks": 2496,
          "time": 11.999987999999998,
          "velocity": 0.7874015748031497
        },
        {
          "duration": 0.4615380000000009,
          "durationTicks": 96,
          "midi": 53,
          "name": "F3",
          "ticks": 2640,
          "time": 12.692294999999998,
          "velocity": 0.7874015748031497
        },
        {
          "duration": 0.4615379999999991,
          "durationTicks": 96,
          "midi": 54,
          "name": "F#3",
          "ticks": 2736,
          "time": 13.153832999999999,
          "velocity": 0.7874015748031497
        },
        {
          "duration": 0.5769225000000002,
          "durationTicks": 120,
          "midi": 52,
          "name": "E3",
          "ticks": 2832,
          "time": 13.615370999999998,
          "velocity": 0.7874015748031497
        },
        {
          "duration": 0.4615379999999991,
          "durationTicks": 96,
          "midi": 53,
          "name": "F3",
          "ticks": 3072,
          "time": 14.769215999999998,
          "velocity": 0.7874015748031497
        },
        {
          "duration": 0.4615380000000009,
          "durationTicks": 96,
          "midi": 54,
          "name": "F#3",
          "ticks": 3168,
          "time": 15.230753999999997,
          "velocity": 0.7874015748031497
        },
        {
          "duration": 0.5769224999999985,
          "durationTicks": 120,
          "midi": 52,
          "name": "E3",
          "ticks": 3264,
          "time": 15.692291999999998,
          "velocity": 0.7874015748031497
        },
        {
          "duration": 0.5769224999999985,
          "durationTicks": 120,
          "midi": 54,
          "name": "F#3",
          "ticks": 3432,
          "time": 16.4999835,
          "velocity": 0.7874015748031497
        },
        {
          "duration": 0.23076900000000222,
          "durationTicks": 48,
          "midi": 53,
          "name": "F3",
          "ticks": 3552,
          "time": 17.076905999999997,
          "velocity": 0.7874015748031497
        },
        {
          "duration": 0.46153799999999734,
          "durationTicks": 96,
          "midi": 53,
          "name": "F3",
          "ticks": 3600,
          "time": 17.307675,
          "velocity": 0.7874015748031497
        },
        {
          "duration": 0.4615380000000009,
          "durationTicks": 96,
          "midi": 53,
          "name": "F3",
          "ticks": 3720,
          "time": 17.884597499999998,
          "velocity": 0.7874015748031497
        },
        {
          "duration": 0.3461534999999998,
          "durationTicks": 72,
          "midi": 53,
          "name": "F3",
          "ticks": 3816,
          "time": 18.3461355,
          "velocity": 0.7874015748031497
        },
        {
          "duration": 0.46153799999999734,
          "durationTicks": 96,
          "midi": 52,
          "name": "E3",
          "ticks": 3888,
          "time": 18.692289,
          "velocity": 0.7874015748031497
        },
        {
          "duration": 0.11538450000000111,
          "durationTicks": 24,
          "midi": 52,
          "name": "E3",
          "ticks": 3984,
          "time": 19.153826999999996,
          "velocity": 0.7874015748031497
        },
        {
          "duration": 0.11538450000000111,
          "durationTicks": 24,
          "midi": 52,
          "name": "E3",
          "ticks": 4008,
          "time": 19.269211499999997,
          "velocity": 0.7874015748031497
        },
        {
          "duration": 0.11538450000000111,
          "durationTicks": 24,
          "midi": 52,
          "name": "E3",
          "ticks": 4032,
          "time": 19.384596,
          "velocity": 0.7874015748031497
        },
        {
          "duration": 0.11538449999999756,
          "durationTicks": 24,
          "midi": 52,
          "name": "E3",
          "ticks": 4056,
          "time": 19.4999805,
          "velocity": 0.7874015748031497
        },
        {
          "duration": 0.11538450000000111,
          "durationTicks": 24,
          "midi": 52,
          "name": "E3",
          "ticks": 4080,
          "time": 19.615364999999997,
          "velocity": 0.7874015748031497
        },
        {
          "duration": 0.11538450000000111,
          "durationTicks": 24,
          "midi": 52,
          "name": "E3",
          "ticks": 4104,
          "time": 19.730749499999998,
          "velocity": 0.7874015748031497
        },
        {
          "duration": 0.11538449999999756,
          "durationTicks": 24,
          "midi": 52,
          "name": "E3",
          "ticks": 4128,
          "time": 19.846134,
          "velocity": 0.7874015748031497
        },
        {
          "duration": 0.11538450000000111,
          "durationTicks": 24,
          "midi": 52,
          "name": "E3",
          "ticks": 4152,
          "time": 19.961518499999997,
          "velocity": 0.7874015748031497
        },
        {
          "duration": 0.23076900000000222,
          "durationTicks": 48,
          "midi": 48,
          "name": "C3",
          "ticks": 4296,
          "time": 20.653825499999996,
          "velocity": 0.7874015748031497
        },
        {
          "duration": 0.5769224999999985,
          "durationTicks": 120,
          "midi": 49,
          "name": "C#3",
          "ticks": 4344,
          "time": 20.8845945,
          "velocity": 0.7874015748031497
        },
        {
          "duration": 0.23076900000000222,
          "durationTicks": 48,
          "midi": 49,
          "name": "C#3",
          "ticks": 4536,
          "time": 21.807670499999997,
          "velocity": 0.7874015748031497
        },
        {
          "duration": 0.23076899999999867,
          "durationTicks": 48,
          "midi": 50,
          "name": "D3",
          "ticks": 4584,
          "time": 22.0384395,
          "velocity": 0.7874015748031497
        },
        {
          "duration": 0.23076899999999867,
          "durationTicks": 48,
          "midi": 49,
          "name": "C#3",
          "ticks": 4632,
          "time": 22.269208499999998,
          "velocity": 0.7874015748031497
        },
        {
          "duration": 0.23076900000000222,
          "durationTicks": 48,
          "midi": 49,
          "name": "C#3",
          "ticks": 4680,
          "time": 22.499977499999996,
          "velocity": 0.7874015748031497
        },
        {
          "duration": 0.11538449999999756,
          "durationTicks": 24,
          "midi": 53,
          "name": "F3",
          "ticks": 4728,
          "time": 22.7307465,
          "velocity": 0.7874015748031497
        },
        {
          "duration": 0.11538450000000111,
          "durationTicks": 24,
          "midi": 53,
          "name": "F3",
          "ticks": 4752,
          "time": 22.846130999999996,
          "velocity": 0.7874015748031497
        },
        {
          "duration": 0.11538450000000111,
          "durationTicks": 24,
          "midi": 53,
          "name": "F3",
          "ticks": 4776,
          "time": 22.961515499999997,
          "velocity": 0.7874015748031497
        },
        {
          "duration": 0.11538449999999756,
          "durationTicks": 24,
          "midi": 53,
          "name": "F3",
          "ticks": 4800,
          "time": 23.0769,
          "velocity": 0.7874015748031497
        },
        {
          "duration": 0.11538450000000111,
          "durationTicks": 24,
          "midi": 53,
          "name": "F3",
          "ticks": 4824,
          "time": 23.192284499999996,
          "velocity": 0.7874015748031497
        },
        {
          "duration": 0.11538450000000111,
          "durationTicks": 24,
          "midi": 53,
          "name": "F3",
          "ticks": 4848,
          "time": 23.307668999999997,
          "velocity": 0.7874015748031497
        },
        {
          "duration": 0.11538449999999756,
          "durationTicks": 24,
          "midi": 53,
          "name": "F3",
          "ticks": 4872,
          "time": 23.423053499999998,
          "velocity": 0.7874015748031497
        },
        {
          "duration": 0.11538450000000111,
          "durationTicks": 24,
          "midi": 53,
          "name": "F3",
          "ticks": 4896,
          "time": 23.538437999999996,
          "velocity": 0.7874015748031497
        },
        {
          "duration": 0.3461534999999998,
          "durationTicks": 72,
          "midi": 48,
          "name": "C3",
          "ticks": 4920,
          "time": 23.653822499999997,
          "velocity": 0.7874015748031497
        },
        {
          "duration": 0.23076900000000222,
          "durationTicks": 48,
          "midi": 49,
          "name": "C#3",
          "ticks": 4992,
          "time": 23.999975999999997,
          "velocity": 0.7874015748031497
        },
        {
          "duration": 0.5769224999999985,
          "durationTicks": 120,
          "midi": 49,
          "name": "C#3",
          "ticks": 5040,
          "time": 24.230745,
          "velocity": 0.7874015748031497
        },
        {
          "duration": 0.5769224999999985,
          "durationTicks": 120,
          "midi": 48,
          "name": "C3",
          "ticks": 5160,
          "time": 24.807667499999997,
          "velocity": 0.7874015748031497
        },
        {
          "duration": 0.4615380000000009,
          "durationTicks": 96,
          "midi": 49,
          "name": "C#3",
          "ticks": 5280,
          "time": 25.384589999999996,
          "velocity": 0.7874015748031497
        },
        {
          "duration": 0.23076899999999867,
          "durationTicks": 48,
          "midi": 50,
          "name": "D3",
          "ticks": 5376,
          "time": 25.846127999999997,
          "velocity": 0.7874015748031497
        },
        {
          "duration": 0.6923070000000031,
          "durationTicks": 144,
          "midi": 49,
          "name": "C#3",
          "ticks": 5424,
          "time": 26.076896999999995,
          "velocity": 0.7874015748031497
        },
        {
          "duration": 0.46153799999999734,
          "durationTicks": 96,
          "midi": 49,
          "name": "C#3",
          "ticks": 5640,
          "time": 27.1153575,
          "velocity": 0.7874015748031497
        },
        {
          "duration": 0.576922500000002,
          "durationTicks": 120,
          "midi": 50,
          "name": "D3",
          "ticks": 5736,
          "time": 27.576895499999996,
          "velocity": 0.7874015748031497
        },
        {
          "duration": 0.4615380000000009,
          "durationTicks": 96,
          "midi": 48,
          "name": "C3",
          "ticks": 5856,
          "time": 28.153817999999998,
          "velocity": 0.7874015748031497
        },
        {
          "duration": 0.23076899999999867,
          "durationTicks": 48,
          "midi": 53,
          "name": "F3",
          "ticks": 5952,
          "time": 28.615356,
          "velocity": 0.7874015748031497
        },
        {
          "duration": 0.46153799999999734,
          "durationTicks": 96,
          "midi": 49,
          "name": "C#3",
          "ticks": 6024,
          "time": 28.9615095,
          "velocity": 0.7874015748031497
        },
        {
          "duration": 0.576922500000002,
          "durationTicks": 120,
          "midi": 50,
          "name": "D3",
          "ticks": 6120,
          "time": 29.423047499999996,
          "velocity": 0.7874015748031497
        },
        {
          "duration": 0.46153799999999734,
          "durationTicks": 96,
          "midi": 48,
          "name": "C3",
          "ticks": 6240,
          "time": 29.999969999999998,
          "velocity": 0.7874015748031497
        },
        {
          "duration": 0.23076900000000222,
          "durationTicks": 48,
          "midi": 53,
          "name": "F3",
          "ticks": 6336,
          "time": 30.461507999999995,
          "velocity": 0.7874015748031497
        },
        {
          "duration": 0.46153799999999734,
          "durationTicks": 96,
          "midi": 50,
          "name": "D3",
          "ticks": 6408,
          "time": 30.8076615,
          "velocity": 0.7874015748031497
        },
        {
          "duration": 0.4615380000000009,
          "durationTicks": 96,
          "midi": 49,
          "name": "C#3",
          "ticks": 6504,
          "time": 31.269199499999996,
          "velocity": 0.7874015748031497
        },
        {
          "duration": 0.3461534999999998,
          "durationTicks": 72,
          "midi": 49,
          "name": "C#3",
          "ticks": 6600,
          "time": 31.730737499999996,
          "velocity": 0.7874015748031497
        },
        {
          "duration": 0.46153799999999734,
          "durationTicks": 96,
          "midi": 49,
          "name": "C#3",
          "ticks": 6672,
          "time": 32.076890999999996,
          "velocity": 0.7874015748031497
        },
        {
          "duration": 0.3461534999999998,
          "durationTicks": 72,
          "midi": 49,
          "name": "C#3",
          "ticks": 6768,
          "time": 32.538428999999994,
          "velocity": 0.7874015748031497
        },
        {
          "duration": 0.23076900000000222,
          "durationTicks": 48,
          "midi": 48,
          "name": "C3",
          "ticks": 6888,
          "time": 33.115351499999996,
          "velocity": 0.7874015748031497
        },
        {
          "duration": 0.23076900000000222,
          "durationTicks": 48,
          "midi": 53,
          "name": "F3",
          "ticks": 6888,
          "time": 33.115351499999996,
          "velocity": 0.7874015748031497
        },
        {
          "duration": 0.23076900000000222,
          "durationTicks": 48,
          "midi": 48,
          "name": "C3",
          "ticks": 6984,
          "time": 33.57688949999999,
          "velocity": 0.7874015748031497
        },
        {
          "duration": 0.11538450000000466,
          "durationTicks": 24,
          "midi": 54,
          "name": "F#3",
          "ticks": 6984,
          "time": 33.57688949999999,
          "velocity": 0.7874015748031497
        },
        {
          "duration": 0.11538449999999756,
          "durationTicks": 24,
          "midi": 54,
          "name": "F#3",
          "ticks": 7008,
          "time": 33.692274,
          "velocity": 0.7874015748031497
        },
        {
          "duration": 0.11538449999999756,
          "durationTicks": 24,
          "midi": 54,
          "name": "F#3",
          "ticks": 7008,
          "time": 33.692274,
          "velocity": 0.7874015748031497
        },
        {
          "duration": 0.11538449999999756,
          "durationTicks": 24,
          "midi": 54,
          "name": "F#3",
          "ticks": 7032,
          "time": 33.807658499999995,
          "velocity": 0.7874015748031497
        },
        {
          "duration": 0.11538450000000466,
          "durationTicks": 24,
          "midi": 54,
          "name": "F#3",
          "ticks": 7056,
          "time": 33.92304299999999,
          "velocity": 0.7874015748031497
        },
        {
          "duration": 0.11538449999999756,
          "durationTicks": 24,
          "midi": 54,
          "name": "F#3",
          "ticks": 7080,
          "time": 34.0384275,
          "velocity": 0.7874015748031497
        },
        {
          "duration": 0.11538450000000466,
          "durationTicks": 24,
          "midi": 54,
          "name": "F#3",
          "ticks": 7104,
          "time": 34.153811999999995,
          "velocity": 0.7874015748031497
        },
        {
          "duration": 0.11538449999999756,
          "durationTicks": 24,
          "midi": 54,
          "name": "F#3",
          "ticks": 7128,
          "time": 34.2691965,
          "velocity": 0.7874015748031497
        },
        {
          "duration": 0.11538449999999756,
          "durationTicks": 24,
          "midi": 54,
          "name": "F#3",
          "ticks": 7152,
          "time": 34.384581,
          "velocity": 0.7874015748031497
        },
        {
          "duration": 0.46153799999999734,
          "durationTicks": 96,
          "midi": 50,
          "name": "D3",
          "ticks": 7152,
          "time": 34.384581,
          "velocity": 0.7874015748031497
        },
        {
          "duration": 0.11538450000000466,
          "durationTicks": 24,
          "midi": 54,
          "name": "F#3",
          "ticks": 7176,
          "time": 34.499965499999995,
          "velocity": 0.7874015748031497
        },
        {
          "duration": 0.11538449999999756,
          "durationTicks": 24,
          "midi": 54,
          "name": "F#3",
          "ticks": 7200,
          "time": 34.61535,
          "velocity": 0.7874015748031497
        },
        {
          "duration": 0.11538449999999756,
          "durationTicks": 24,
          "midi": 54,
          "name": "F#3",
          "ticks": 7224,
          "time": 34.7307345,
          "velocity": 0.7874015748031497
        },
        {
          "duration": 0.11538450000000466,
          "durationTicks": 24,
          "midi": 54,
          "name": "F#3",
          "ticks": 7248,
          "time": 34.846118999999995,
          "velocity": 0.7874015748031497
        },
        {
          "duration": 0.23076900000000222,
          "durationTicks": 48,
          "midi": 49,
          "name": "C#3",
          "ticks": 7248,
          "time": 34.846118999999995,
          "velocity": 0.7874015748031497
        },
        {
          "duration": 0.11538449999999756,
          "durationTicks": 24,
          "midi": 54,
          "name": "F#3",
          "ticks": 7272,
          "time": 34.9615035,
          "velocity": 0.7874015748031497
        },
        {
          "duration": 0.11538449999999756,
          "durationTicks": 24,
          "midi": 54,
          "name": "F#3",
          "ticks": 7296,
          "time": 35.076888,
          "velocity": 0.7874015748031497
        },
        {
          "duration": 0.23076900000000222,
          "durationTicks": 48,
          "midi": 49,
          "name": "C#3",
          "ticks": 7296,
          "time": 35.076888,
          "velocity": 0.7874015748031497
        },
        {
          "duration": 0.11538450000000466,
          "durationTicks": 24,
          "midi": 54,
          "name": "F#3",
          "ticks": 7320,
          "time": 35.192272499999994,
          "velocity": 0.7874015748031497
        },
        {
          "duration": 0.11538449999999756,
          "durationTicks": 24,
          "midi": 49,
          "name": "C#3",
          "ticks": 7344,
          "time": 35.307657,
          "velocity": 0.7874015748031497
        },
        {
          "duration": 0.11538449999999756,
          "durationTicks": 24,
          "midi": 54,
          "name": "F#3",
          "ticks": 7344,
          "time": 35.307657,
          "velocity": 0.7874015748031497
        },
        {
          "duration": 0.11538449999999756,
          "durationTicks": 24,
          "midi": 54,
          "name": "F#3",
          "ticks": 7368,
          "time": 35.4230415,
          "velocity": 0.7874015748031497
        },
        {
          "duration": 0.11538449999999756,
          "durationTicks": 24,
          "midi": 49,
          "name": "C#3",
          "ticks": 7368,
          "time": 35.4230415,
          "velocity": 0.7874015748031497
        },
        {
          "duration": 0.11538449999999756,
          "durationTicks": 24,
          "midi": 49,
          "name": "C#3",
          "ticks": 7368,
          "time": 35.4230415,
          "velocity": 0.7874015748031497
        },
        {
          "duration": 0.11538450000000466,
          "durationTicks": 24,
          "midi": 49,
          "name": "C#3",
          "ticks": 7392,
          "time": 35.538425999999994,
          "velocity": 0.7874015748031497
        },
        {
          "duration": 0.11538450000000466,
          "durationTicks": 24,
          "midi": 54,
          "name": "F#3",
          "ticks": 7392,
          "time": 35.538425999999994,
          "velocity": 0.7874015748031497
        },
        {
          "duration": 0.11538449999999756,
          "durationTicks": 24,
          "midi": 54,
          "name": "F#3",
          "ticks": 7416,
          "time": 35.6538105,
          "velocity": 0.7874015748031497
        },
        {
          "duration": 0.11538449999999756,
          "durationTicks": 24,
          "midi": 49,
          "name": "C#3",
          "ticks": 7416,
          "time": 35.6538105,
          "velocity": 0.7874015748031497
        },
        {
          "duration": 0.11538449999999756,
          "durationTicks": 24,
          "midi": 49,
          "name": "C#3",
          "ticks": 7440,
          "time": 35.769194999999996,
          "velocity": 0.7874015748031497
        },
        {
          "duration": 0.11538449999999756,
          "durationTicks": 24,
          "midi": 54,
          "name": "F#3",
          "ticks": 7440,
          "time": 35.769194999999996,
          "velocity": 0.7874015748031497
        },
        {
          "duration": 0.11538450000000466,
          "durationTicks": 24,
          "midi": 54,
          "name": "F#3",
          "ticks": 7464,
          "time": 35.884579499999994,
          "velocity": 0.7874015748031497
        },
        {
          "duration": 0.11538450000000466,
          "durationTicks": 24,
          "midi": 49,
          "name": "C#3",
          "ticks": 7464,
          "time": 35.884579499999994,
          "velocity": 0.7874015748031497
        },
        {
          "duration": 0.11538449999999756,
          "durationTicks": 24,
          "midi": 49,
          "name": "C#3",
          "ticks": 7488,
          "time": 35.999964,
          "velocity": 0.7874015748031497
        },
        {
          "duration": 0.11538449999999756,
          "durationTicks": 24,
          "midi": 54,
          "name": "F#3",
          "ticks": 7488,
          "time": 35.999964,
          "velocity": 0.7874015748031497
        },
        {
          "duration": 0.11538449999999756,
          "durationTicks": 24,
          "midi": 54,
          "name": "F#3",
          "ticks": 7488,
          "time": 35.999964,
          "velocity": 0.7874015748031497
        },
        {
          "duration": 0.11538449999999756,
          "durationTicks": 24,
          "midi": 54,
          "name": "F#3",
          "ticks": 7512,
          "time": 36.115348499999996,
          "velocity": 0.7874015748031497
        },
        {
          "duration": 0.11538449999999756,
          "durationTicks": 24,
          "midi": 49,
          "name": "C#3",
          "ticks": 7512,
          "time": 36.115348499999996,
          "velocity": 0.7874015748031497
        },
        {
          "duration": 0.11538450000000466,
          "durationTicks": 24,
          "midi": 49,
          "name": "C#3",
          "ticks": 7536,
          "time": 36.230732999999994,
          "velocity": 0.7874015748031497
        },
        {
          "duration": 0.11538450000000466,
          "durationTicks": 24,
          "midi": 54,
          "name": "F#3",
          "ticks": 7536,
          "time": 36.230732999999994,
          "velocity": 0.7874015748031497
        },
        {
          "duration": 0.11538449999999756,
          "durationTicks": 24,
          "midi": 54,
          "name": "F#3",
          "ticks": 7560,
          "time": 36.3461175,
          "velocity": 0.7874015748031497
        },
        {
          "duration": 0.11538449999999756,
          "durationTicks": 24,
          "midi": 49,
          "name": "C#3",
          "ticks": 7560,
          "time": 36.3461175,
          "velocity": 0.7874015748031497
        },
        {
          "duration": 0.11538449999999756,
          "durationTicks": 24,
          "midi": 49,
          "name": "C#3",
          "ticks": 7584,
          "time": 36.461501999999996,
          "velocity": 0.7874015748031497
        },
        {
          "duration": 0.11538449999999756,
          "durationTicks": 24,
          "midi": 54,
          "name": "F#3",
          "ticks": 7584,
          "time": 36.461501999999996,
          "velocity": 0.7874015748031497
        },
        {
          "duration": 0.11538450000000466,
          "durationTicks": 24,
          "midi": 49,
          "name": "C#3",
          "ticks": 7608,
          "time": 36.57688649999999,
          "velocity": 0.7874015748031497
        },
        {
          "duration": 0.11538450000000466,
          "durationTicks": 24,
          "midi": 54,
          "name": "F#3",
          "ticks": 7608,
          "time": 36.57688649999999,
          "velocity": 0.7874015748031497
        },
        {
          "duration": 0.11538449999999756,
          "durationTicks": 24,
          "midi": 49,
          "name": "C#3",
          "ticks": 7632,
          "time": 36.692271,
          "velocity": 0.7874015748031497
        },
        {
          "duration": 0.11538449999999756,
          "durationTicks": 24,
          "midi": 54,
          "name": "F#3",
          "ticks": 7632,
          "time": 36.692271,
          "velocity": 0.7874015748031497
        },
        {
          "duration": 0.11538449999999756,
          "durationTicks": 24,
          "midi": 49,
          "name": "C#3",
          "ticks": 7656,
          "time": 36.807655499999996,
          "velocity": 0.7874015748031497
        },
        {
          "duration": 0.11538449999999756,
          "durationTicks": 24,
          "midi": 54,
          "name": "F#3",
          "ticks": 7656,
          "time": 36.807655499999996,
          "velocity": 0.7874015748031497
        },
        {
          "duration": 0.11538450000000466,
          "durationTicks": 24,
          "midi": 54,
          "name": "F#3",
          "ticks": 7680,
          "time": 36.92303999999999,
          "velocity": 0.7874015748031497
        },
        {
          "duration": 0.11538450000000466,
          "durationTicks": 24,
          "midi": 54,
          "name": "F#3",
          "ticks": 7680,
          "time": 36.92303999999999,
          "velocity": 0.7874015748031497
        },
        {
          "duration": 0.11538450000000466,
          "durationTicks": 24,
          "midi": 49,
          "name": "C#3",
          "ticks": 7680,
          "time": 36.92303999999999,
          "velocity": 0.7874015748031497
        },
        {
          "duration": 0.11538449999999756,
          "durationTicks": 24,
          "midi": 49,
          "name": "C#3",
          "ticks": 7704,
          "time": 37.0384245,
          "velocity": 0.7874015748031497
        },
        {
          "duration": 0.11538449999999756,
          "durationTicks": 24,
          "midi": 54,
          "name": "F#3",
          "ticks": 7704,
          "time": 37.0384245,
          "velocity": 0.7874015748031497
        },
        {
          "duration": 0.11538449999999756,
          "durationTicks": 24,
          "midi": 54,
          "name": "F#3",
          "ticks": 7728,
          "time": 37.153808999999995,
          "velocity": 0.7874015748031497
        },
        {
          "duration": 0.11538449999999756,
          "durationTicks": 24,
          "midi": 49,
          "name": "C#3",
          "ticks": 7728,
          "time": 37.153808999999995,
          "velocity": 0.7874015748031497
        },
        {
          "duration": 0.11538450000000466,
          "durationTicks": 24,
          "midi": 49,
          "name": "C#3",
          "ticks": 7752,
          "time": 37.26919349999999,
          "velocity": 0.7874015748031497
        },
        {
          "duration": 0.11538450000000466,
          "durationTicks": 24,
          "midi": 54,
          "name": "F#3",
          "ticks": 7752,
          "time": 37.26919349999999,
          "velocity": 0.7874015748031497
        },
        {
          "duration": 0.11538449999999756,
          "durationTicks": 24,
          "midi": 54,
          "name": "F#3",
          "ticks": 7776,
          "time": 37.384578,
          "velocity": 0.7874015748031497
        },
        {
          "duration": 0.11538449999999756,
          "durationTicks": 24,
          "midi": 49,
          "name": "C#3",
          "ticks": 7776,
          "time": 37.384578,
          "velocity": 0.7874015748031497
        },
        {
          "duration": 0.576922500000002,
          "durationTicks": 120,
          "midi": 49,
          "name": "C#3",
          "ticks": 7920,
          "time": 38.076885,
          "velocity": 0.7874015748031497
        },
        {
          "duration": 0.46153799999999734,
          "durationTicks": 96,
          "midi": 48,
          "name": "C3",
          "ticks": 8040,
          "time": 38.6538075,
          "velocity": 0.7874015748031497
        },
        {
          "duration": 0.11538449999999756,
          "durationTicks": 24,
          "midi": 49,
          "name": "C#3",
          "ticks": 8136,
          "time": 39.1153455,
          "velocity": 0.7874015748031497
        },
        {
          "duration": 0.11538449999999756,
          "durationTicks": 24,
          "midi": 52,
          "name": "E3",
          "ticks": 8136,
          "time": 39.1153455,
          "velocity": 0.7874015748031497
        },
        {
          "duration": 0.11538450000000466,
          "durationTicks": 24,
          "midi": 49,
          "name": "C#3",
          "ticks": 8160,
          "time": 39.230729999999994,
          "velocity": 0.7874015748031497
        },
        {
          "duration": 0.11538450000000466,
          "durationTicks": 24,
          "midi": 49,
          "name": "C#3",
          "ticks": 8160,
          "time": 39.230729999999994,
          "velocity": 0.7874015748031497
        },
        {
          "duration": 0.11538450000000466,
          "durationTicks": 24,
          "midi": 52,
          "name": "E3",
          "ticks": 8160,
          "time": 39.230729999999994,
          "velocity": 0.7874015748031497
        },
        {
          "duration": 0.11538450000000466,
          "durationTicks": 24,
          "midi": 52,
          "name": "E3",
          "ticks": 8160,
          "time": 39.230729999999994,
          "velocity": 0.7874015748031497
        },
        {
          "duration": 0.11538449999999756,
          "durationTicks": 24,
          "midi": 49,
          "name": "C#3",
          "ticks": 8184,
          "time": 39.3461145,
          "velocity": 0.7874015748031497
        },
        {
          "duration": 0.11538449999999756,
          "durationTicks": 24,
          "midi": 52,
          "name": "E3",
          "ticks": 8184,
          "time": 39.3461145,
          "velocity": 0.7874015748031497
        },
        {
          "duration": 0.11538449999999756,
          "durationTicks": 24,
          "midi": 49,
          "name": "C#3",
          "ticks": 8208,
          "time": 39.461498999999996,
          "velocity": 0.7874015748031497
        },
        {
          "duration": 0.11538449999999756,
          "durationTicks": 24,
          "midi": 52,
          "name": "E3",
          "ticks": 8208,
          "time": 39.461498999999996,
          "velocity": 0.7874015748031497
        },
        {
          "duration": 0.11538450000000466,
          "durationTicks": 24,
          "midi": 49,
          "name": "C#3",
          "ticks": 8232,
          "time": 39.576883499999994,
          "velocity": 0.7874015748031497
        },
        {
          "duration": 0.11538450000000466,
          "durationTicks": 24,
          "midi": 52,
          "name": "E3",
          "ticks": 8232,
          "time": 39.576883499999994,
          "velocity": 0.7874015748031497
        },
        {
          "duration": 0.11538449999999756,
          "durationTicks": 24,
          "midi": 49,
          "name": "C#3",
          "ticks": 8256,
          "time": 39.692268,
          "velocity": 0.7874015748031497
        },
        {
          "duration": 0.11538449999999756,
          "durationTicks": 24,
          "midi": 52,
          "name": "E3",
          "ticks": 8256,
          "time": 39.692268,
          "velocity": 0.7874015748031497
        },
        {
          "duration": 0.11538449999999756,
          "durationTicks": 24,
          "midi": 52,
          "name": "E3",
          "ticks": 8280,
          "time": 39.807652499999996,
          "velocity": 0.7874015748031497
        },
        {
          "duration": 0.11538449999999756,
          "durationTicks": 24,
          "midi": 49,
          "name": "C#3",
          "ticks": 8280,
          "time": 39.807652499999996,
          "velocity": 0.7874015748031497
        },
        {
          "duration": 0.11538450000000466,
          "durationTicks": 24,
          "midi": 49,
          "name": "C#3",
          "ticks": 8304,
          "time": 39.923036999999994,
          "velocity": 0.7874015748031497
        },
        {
          "duration": 0.11538450000000466,
          "durationTicks": 24,
          "midi": 52,
          "name": "E3",
          "ticks": 8304,
          "time": 39.923036999999994,
          "velocity": 0.7874015748031497
        },
        {
          "duration": 0.11538449999999756,
          "durationTicks": 24,
          "midi": 52,
          "name": "E3",
          "ticks": 8328,
          "time": 40.0384215,
          "velocity": 0.7874015748031497
        },
        {
          "duration": 0.11538449999999756,
          "durationTicks": 24,
          "midi": 49,
          "name": "C#3",
          "ticks": 8328,
          "time": 40.0384215,
          "velocity": 0.7874015748031497
        },
        {
          "duration": 0.11538449999999756,
          "durationTicks": 24,
          "midi": 49,
          "name": "C#3",
          "ticks": 8352,
          "time": 40.153805999999996,
          "velocity": 0.7874015748031497
        },
        {
          "duration": 0.11538449999999756,
          "durationTicks": 24,
          "midi": 52,
          "name": "E3",
          "ticks": 8352,
          "time": 40.153805999999996,
          "velocity": 0.7874015748031497
        },
        {
          "duration": 0.11538450000000466,
          "durationTicks": 24,
          "midi": 52,
          "name": "E3",
          "ticks": 8376,
          "time": 40.26919049999999,
          "velocity": 0.7874015748031497
        },
        {
          "duration": 0.11538450000000466,
          "durationTicks": 24,
          "midi": 49,
          "name": "C#3",
          "ticks": 8376,
          "time": 40.26919049999999,
          "velocity": 0.7874015748031497
        },
        {
          "duration": 0.11538449999999756,
          "durationTicks": 24,
          "midi": 49,
          "name": "C#3",
          "ticks": 8400,
          "time": 40.384575,
          "velocity": 0.7874015748031497
        },
        {
          "duration": 0.11538449999999756,
          "durationTicks": 24,
          "midi": 52,
          "name": "E3",
          "ticks": 8400,
          "time": 40.384575,
          "velocity": 0.7874015748031497
        },
        {
          "duration": 0.11538449999999756,
          "durationTicks": 24,
          "midi": 52,
          "name": "E3",
          "ticks": 8424,
          "time": 40.499959499999996,
          "velocity": 0.7874015748031497
        },
        {
          "duration": 0.11538449999999756,
          "durationTicks": 24,
          "midi": 49,
          "name": "C#3",
          "ticks": 8424,
          "time": 40.499959499999996,
          "velocity": 0.7874015748031497
        },
        {
          "duration": 0.11538450000000466,
          "durationTicks": 24,
          "midi": 49,
          "name": "C#3",
          "ticks": 8448,
          "time": 40.61534399999999,
          "velocity": 0.7874015748031497
        },
        {
          "duration": 0.11538450000000466,
          "durationTicks": 24,
          "midi": 52,
          "name": "E3",
          "ticks": 8448,
          "time": 40.61534399999999,
          "velocity": 0.7874015748031497
        },
        {
          "duration": 0.11538449999999756,
          "durationTicks": 24,
          "midi": 52,
          "name": "E3",
          "ticks": 8472,
          "time": 40.7307285,
          "velocity": 0.7874015748031497
        },
        {
          "duration": 0.11538449999999756,
          "durationTicks": 24,
          "midi": 49,
          "name": "C#3",
          "ticks": 8472,
          "time": 40.7307285,
          "velocity": 0.7874015748031497
        },
        {
          "duration": 0.11538449999999756,
          "durationTicks": 24,
          "midi": 49,
          "name": "C#3",
          "ticks": 8496,
          "time": 40.846112999999995,
          "velocity": 0.7874015748031497
        },
        {
          "duration": 0.11538449999999756,
          "durationTicks": 24,
          "midi": 52,
          "name": "E3",
          "ticks": 8496,
          "time": 40.846112999999995,
          "velocity": 0.7874015748031497
        },
        {
          "duration": 0.11538450000000466,
          "durationTicks": 24,
          "midi": 49,
          "name": "C#3",
          "ticks": 8520,
          "time": 40.96149749999999,
          "velocity": 0.7874015748031497
        },
        {
          "duration": 0.11538450000000466,
          "durationTicks": 24,
          "midi": 52,
          "name": "E3",
          "ticks": 8520,
          "time": 40.96149749999999,
          "velocity": 0.7874015748031497
        },
        {
          "duration": 0.11538449999999756,
          "durationTicks": 24,
          "midi": 52,
          "name": "E3",
          "ticks": 8544,
          "time": 41.076882,
          "velocity": 0.7874015748031497
        },
        {
          "duration": 0.11538449999999756,
          "durationTicks": 24,
          "midi": 49,
          "name": "C#3",
          "ticks": 8544,
          "time": 41.076882,
          "velocity": 0.7874015748031497
        },
        {
          "duration": 0.11538449999999756,
          "durationTicks": 24,
          "midi": 52,
          "name": "E3",
          "ticks": 8568,
          "time": 41.192266499999995,
          "velocity": 0.7874015748031497
        },
        {
          "duration": 0.11538449999999756,
          "durationTicks": 24,
          "midi": 49,
          "name": "C#3",
          "ticks": 8568,
          "time": 41.192266499999995,
          "velocity": 0.7874015748031497
        },
        {
          "duration": 0.11538450000000466,
          "durationTicks": 24,
          "midi": 49,
          "name": "C#3",
          "ticks": 8592,
          "time": 41.30765099999999,
          "velocity": 0.7874015748031497
        },
        {
          "duration": 0.11538450000000466,
          "durationTicks": 24,
          "midi": 52,
          "name": "E3",
          "ticks": 8592,
          "time": 41.30765099999999,
          "velocity": 0.7874015748031497
        },
        {
          "duration": 0.23076900000000222,
          "durationTicks": 48,
          "midi": 52,
          "name": "E3",
          "ticks": 8640,
          "time": 41.538419999999995,
          "velocity": 0.7874015748031497
        },
        {
          "duration": 0.23076899999999512,
          "durationTicks": 48,
          "midi": 52,
          "name": "E3",
          "ticks": 8688,
          "time": 41.769189,
          "velocity": 0.7874015748031497
        },
        {
          "duration": 0.23076900000000222,
          "durationTicks": 48,
          "midi": 52,
          "name": "E3",
          "ticks": 8736,
          "time": 41.99995799999999,
          "velocity": 0.7874015748031497
        },
        {
          "duration": 0.23076899999999512,
          "durationTicks": 48,
          "midi": 54,
          "name": "F#3",
          "ticks": 8832,
          "time": 42.461496,
          "velocity": 0.7874015748031497
        },
        {
          "duration": 0.6923070000000067,
          "durationTicks": 144,
          "midi": 54,
          "name": "F#3",
          "ticks": 8880,
          "time": 42.69226499999999,
          "velocity": 0.7874015748031497
        },
        {
          "duration": 0.23076899999999512,
          "durationTicks": 48,
          "midi": 52,
          "name": "E3",
          "ticks": 9024,
          "time": 43.384572,
          "velocity": 0.7874015748031497
        },
        {
          "duration": 0.23076900000000222,
          "durationTicks": 48,
          "midi": 52,
          "name": "E3",
          "ticks": 9072,
          "time": 43.615340999999994,
          "velocity": 0.7874015748031497
        },
        {
          "duration": 0.23076900000000222,
          "durationTicks": 48,
          "midi": 52,
          "name": "E3",
          "ticks": 9120,
          "time": 43.846109999999996,
          "velocity": 0.7874015748031497
        },
        {
          "duration": 0.23076900000000222,
          "durationTicks": 48,
          "midi": 54,
          "name": "F#3",
          "ticks": 9216,
          "time": 44.30764799999999,
          "velocity": 0.7874015748031497
        },
        {
          "duration": 0.6923069999999996,
          "durationTicks": 144,
          "midi": 54,
          "name": "F#3",
          "ticks": 9264,
          "time": 44.538416999999995,
          "velocity": 0.7874015748031497
        },
        {
          "duration": 0.23076900000000222,
          "durationTicks": 48,
          "midi": 52,
          "name": "E3",
          "ticks": 9408,
          "time": 45.230723999999995,
          "velocity": 0.7874015748031497
        },
        {
          "duration": 0.23076899999999512,
          "durationTicks": 48,
          "midi": 53,
          "name": "F3",
          "ticks": 9456,
          "time": 45.461493,
          "velocity": 0.7874015748031497
        },
        {
          "duration": 0.46153800000000444,
          "durationTicks": 96,
          "midi": 53,
          "name": "F3",
          "ticks": 9504,
          "time": 45.69226199999999,
          "velocity": 0.7874015748031497
        },
        {
          "duration": 0.11538449999999756,
          "durationTicks": 24,
          "midi": 50,
          "name": "D3",
          "ticks": 9600,
          "time": 46.1538,
          "velocity": 0.7874015748031497
        },
        {
          "duration": 0.11538449999999756,
          "durationTicks": 24,
          "midi": 50,
          "name": "D3",
          "ticks": 9624,
          "time": 46.269184499999994,
          "velocity": 0.7874015748031497
        },
        {
          "duration": 0.11538449999999756,
          "durationTicks": 24,
          "midi": 50,
          "name": "D3",
          "ticks": 9624,
          "time": 46.269184499999994,
          "velocity": 0.7874015748031497
        },
        {
          "duration": 0.11538450000000466,
          "durationTicks": 24,
          "midi": 50,
          "name": "D3",
          "ticks": 9648,
          "time": 46.38456899999999,
          "velocity": 0.7874015748031497
        },
        {
          "duration": 0.11538449999999756,
          "durationTicks": 24,
          "midi": 50,
          "name": "D3",
          "ticks": 9672,
          "time": 46.4999535,
          "velocity": 0.7874015748031497
        },
        {
          "duration": 0.11538449999999756,
          "durationTicks": 24,
          "midi": 50,
          "name": "D3",
          "ticks": 9696,
          "time": 46.615337999999994,
          "velocity": 0.7874015748031497
        },
        {
          "duration": 0.8076914999999971,
          "durationTicks": 168,
          "midi": 54,
          "name": "F#3",
          "ticks": 9696,
          "time": 46.615337999999994,
          "velocity": 0.7874015748031497
        },
        {
          "duration": 0.11538450000000466,
          "durationTicks": 24,
          "midi": 50,
          "name": "D3",
          "ticks": 9720,
          "time": 46.73072249999999,
          "velocity": 0.7874015748031497
        },
        {
          "duration": 0.11538449999999756,
          "durationTicks": 24,
          "midi": 50,
          "name": "D3",
          "ticks": 9744,
          "time": 46.846106999999996,
          "velocity": 0.7874015748031497
        },
        {
          "duration": 0.11538449999999756,
          "durationTicks": 24,
          "midi": 50,
          "name": "D3",
          "ticks": 9768,
          "time": 46.961491499999994,
          "velocity": 0.7874015748031497
        },
        {
          "duration": 0.11538450000000466,
          "durationTicks": 24,
          "midi": 50,
          "name": "D3",
          "ticks": 9792,
          "time": 47.07687599999999,
          "velocity": 0.7874015748031497
        },
        {
          "duration": 0.11538449999999756,
          "durationTicks": 24,
          "midi": 50,
          "name": "D3",
          "ticks": 9816,
          "time": 47.192260499999996,
          "velocity": 0.7874015748031497
        },
        {
          "duration": 0.11538449999999756,
          "durationTicks": 24,
          "midi": 50,
          "name": "D3",
          "ticks": 9840,
          "time": 47.307644999999994,
          "velocity": 0.7874015748031497
        },
        {
          "duration": 0.11538450000000466,
          "durationTicks": 24,
          "midi": 50,
          "name": "D3",
          "ticks": 9864,
          "time": 47.42302949999999,
          "velocity": 0.7874015748031497
        },
        {
          "duration": 0.23076900000000222,
          "durationTicks": 48,
          "midi": 53,
          "name": "F3",
          "ticks": 9864,
          "time": 47.42302949999999,
          "velocity": 0.7874015748031497
        },
        {
          "duration": 0.11538449999999756,
          "durationTicks": 24,
          "midi": 50,
          "name": "D3",
          "ticks": 9888,
          "time": 47.538413999999996,
          "velocity": 0.7874015748031497
        },
        {
          "duration": 0.11538450000000466,
          "durationTicks": 24,
          "midi": 50,
          "name": "D3",
          "ticks": 9912,
          "time": 47.65379849999999,
          "velocity": 0.7874015748031497
        },
        {
          "duration": 0.6923069999999996,
          "durationTicks": 144,
          "midi": 53,
          "name": "F3",
          "ticks": 9912,
          "time": 47.65379849999999,
          "velocity": 0.7874015748031497
        },
        {
          "duration": 0.11538449999999756,
          "durationTicks": 24,
          "midi": 50,
          "name": "D3",
          "ticks": 9936,
          "time": 47.769183,
          "velocity": 0.7874015748031497
        },
        {
          "duration": 0.11538449999999756,
          "durationTicks": 24,
          "midi": 50,
          "name": "D3",
          "ticks": 9960,
          "time": 47.884567499999996,
          "velocity": 0.7874015748031497
        },
        {
          "duration": 0.11538450000000466,
          "durationTicks": 24,
          "midi": 50,
          "name": "D3",
          "ticks": 9984,
          "time": 47.99995199999999,
          "velocity": 0.7874015748031497
        },
        {
          "duration": 0.11538449999999756,
          "durationTicks": 24,
          "midi": 50,
          "name": "D3",
          "ticks": 10008,
          "time": 48.1153365,
          "velocity": 0.7874015748031497
        },
        {
          "duration": 0.11538449999999756,
          "durationTicks": 24,
          "midi": 50,
          "name": "D3",
          "ticks": 10032,
          "time": 48.230720999999996,
          "velocity": 0.7874015748031497
        },
        {
          "duration": 0.11538450000000466,
          "durationTicks": 24,
          "midi": 50,
          "name": "D3",
          "ticks": 10056,
          "time": 48.34610549999999,
          "velocity": 0.7874015748031497
        },
        {
          "duration": 0.8076915000000042,
          "durationTicks": 168,
          "midi": 54,
          "name": "F#3",
          "ticks": 10056,
          "time": 48.34610549999999,
          "velocity": 0.7874015748031497
        },
        {
          "duration": 0.11538449999999756,
          "durationTicks": 24,
          "midi": 50,
          "name": "D3",
          "ticks": 10080,
          "time": 48.46149,
          "velocity": 0.7874015748031497
        },
        {
          "duration": 0.11538449999999756,
          "durationTicks": 24,
          "midi": 50,
          "name": "D3",
          "ticks": 10104,
          "time": 48.576874499999995,
          "velocity": 0.7874015748031497
        },
        {
          "duration": 0.11538450000000466,
          "durationTicks": 24,
          "midi": 50,
          "name": "D3",
          "ticks": 10128,
          "time": 48.69225899999999,
          "velocity": 0.7874015748031497
        },
        {
          "duration": 0.11538449999999756,
          "durationTicks": 24,
          "midi": 50,
          "name": "D3",
          "ticks": 10152,
          "time": 48.8076435,
          "velocity": 0.7874015748031497
        },
        {
          "duration": 0.11538449999999756,
          "durationTicks": 24,
          "midi": 50,
          "name": "D3",
          "ticks": 10176,
          "time": 48.923027999999995,
          "velocity": 0.7874015748031497
        },
        {
          "duration": 0.11538450000000466,
          "durationTicks": 24,
          "midi": 50,
          "name": "D3",
          "ticks": 10200,
          "time": 49.03841249999999,
          "velocity": 0.7874015748031497
        },
        {
          "duration": 0.11538449999999756,
          "durationTicks": 24,
          "midi": 50,
          "name": "D3",
          "ticks": 10224,
          "time": 49.153797,
          "velocity": 0.7874015748031497
        },
        {
          "duration": 0.3461534999999998,
          "durationTicks": 72,
          "midi": 53,
          "name": "F3",
          "ticks": 10224,
          "time": 49.153797,
          "velocity": 0.7874015748031497
        },
        {
          "duration": 0.11538449999999756,
          "durationTicks": 24,
          "midi": 50,
          "name": "D3",
          "ticks": 10248,
          "time": 49.269181499999995,
          "velocity": 0.7874015748031497
        },
        {
          "duration": 0.11538450000000466,
          "durationTicks": 24,
          "midi": 50,
          "name": "D3",
          "ticks": 10272,
          "time": 49.38456599999999,
          "velocity": 0.7874015748031497
        },
        {
          "duration": 0.11538449999999756,
          "durationTicks": 24,
          "midi": 50,
          "name": "D3",
          "ticks": 10296,
          "time": 49.4999505,
          "velocity": 0.7874015748031497
        },
        {
          "duration": 0.3461534999999998,
          "durationTicks": 72,
          "midi": 52,
          "name": "E3",
          "ticks": 10296,
          "time": 49.4999505,
          "velocity": 0.7874015748031497
        },
        {
          "duration": 0.11538449999999756,
          "durationTicks": 24,
          "midi": 50,
          "name": "D3",
          "ticks": 10320,
          "time": 49.615334999999995,
          "velocity": 0.7874015748031497
        },
        {
          "duration": 0.11538450000000466,
          "durationTicks": 24,
          "midi": 50,
          "name": "D3",
          "ticks": 10344,
          "time": 49.73071949999999,
          "velocity": 0.7874015748031497
        },
        {
          "duration": 0.11538449999999756,
          "durationTicks": 24,
          "midi": 50,
          "name": "D3",
          "ticks": 10368,
          "time": 49.846104,
          "velocity": 0.7874015748031497
        },
        {
          "duration": 0.3461534999999998,
          "durationTicks": 72,
          "midi": 52,
          "name": "E3",
          "ticks": 10368,
          "time": 49.846104,
          "velocity": 0.7874015748031497
        },
        {
          "duration": 0.11538449999999756,
          "durationTicks": 24,
          "midi": 50,
          "name": "D3",
          "ticks": 10392,
          "time": 49.961488499999994,
          "velocity": 0.7874015748031497
        },
        {
          "duration": 0.11538450000000466,
          "durationTicks": 24,
          "midi": 50,
          "name": "D3",
          "ticks": 10416,
          "time": 50.07687299999999,
          "velocity": 0.7874015748031497
        },
        {
          "duration": 0.46153799999999734,
          "durationTicks": 96,
          "midi": 54,
          "name": "F#3",
          "ticks": 10536,
          "time": 50.653795499999994,
          "velocity": 0.7874015748031497
        },
        {
          "duration": 0.23076900000000222,
          "durationTicks": 48,
          "midi": 53,
          "name": "F3",
          "ticks": 10632,
          "time": 51.11533349999999,
          "velocity": 0.7874015748031497
        },
        {
          "duration": 0.576922500000002,
          "durationTicks": 120,
          "midi": 53,
          "name": "F3",
          "ticks": 10680,
          "time": 51.34610249999999,
          "velocity": 0.7874015748031497
        },
        {
          "duration": 0.23076900000000222,
          "durationTicks": 48,
          "midi": 54,
          "name": "F#3",
          "ticks": 10848,
          "time": 52.15379399999999,
          "velocity": 0.7874015748031497
        },
        {
          "duration": 0.576922500000002,
          "durationTicks": 120,
          "midi": 53,
          "name": "F3",
          "ticks": 10896,
          "time": 52.38456299999999,
          "velocity": 0.7874015748031497
        },
        {
          "duration": 0.3461534999999998,
          "durationTicks": 72,
          "midi": 53,
          "name": "F3",
          "ticks": 11016,
          "time": 52.961485499999995,
          "velocity": 0.7874015748031497
        },
        {
          "duration": 0.576922500000002,
          "durationTicks": 120,
          "midi": 53,
          "name": "F3",
          "ticks": 11088,
          "time": 53.307638999999995,
          "velocity": 0.7874015748031497
        },
        {
          "duration": 0.5769224999999949,
          "durationTicks": 120,
          "midi": 52,
          "name": "E3",
          "ticks": 11208,
          "time": 53.8845615,
          "velocity": 0.7874015748031497
        },
        {
          "duration": 0.23076900000000222,
          "durationTicks": 48,
          "midi": 53,
          "name": "F3",
          "ticks": 11328,
          "time": 54.46148399999999,
          "velocity": 0.7874015748031497
        },
        {
          "duration": 0.46153799999999734,
          "durationTicks": 96,
          "midi": 54,
          "name": "F#3",
          "ticks": 11376,
          "time": 54.692252999999994,
          "velocity": 0.7874015748031497
        },
        {
          "duration": 0.11538450000000466,
          "durationTicks": 24,
          "midi": 52,
          "name": "E3",
          "ticks": 11472,
          "time": 55.15379099999999,
          "velocity": 0.7874015748031497
        },
        {
          "duration": 0.11538449999999756,
          "durationTicks": 24,
          "midi": 52,
          "name": "E3",
          "ticks": 11496,
          "time": 55.269175499999996,
          "velocity": 0.7874015748031497
        },
        {
          "duration": 0.11538449999999756,
          "durationTicks": 24,
          "midi": 52,
          "name": "E3",
          "ticks": 11496,
          "time": 55.269175499999996,
          "velocity": 0.7874015748031497
        },
        {
          "duration": 0.11538449999999756,
          "durationTicks": 24,
          "midi": 52,
          "name": "E3",
          "ticks": 11520,
          "time": 55.38455999999999,
          "velocity": 0.7874015748031497
        },
        {
          "duration": 0.11538450000000466,
          "durationTicks": 24,
          "midi": 52,
          "name": "E3",
          "ticks": 11544,
          "time": 55.49994449999999,
          "velocity": 0.7874015748031497
        },
        {
          "duration": 0.11538449999999756,
          "durationTicks": 24,
          "midi": 52,
          "name": "E3",
          "ticks": 11568,
          "time": 55.615328999999996,
          "velocity": 0.7874015748031497
        },
        {
          "duration": 0.11538449999999756,
          "durationTicks": 24,
          "midi": 52,
          "name": "E3",
          "ticks": 11592,
          "time": 55.73071349999999,
          "velocity": 0.7874015748031497
        },
        {
          "duration": 0.11538450000000466,
          "durationTicks": 24,
          "midi": 52,
          "name": "E3",
          "ticks": 11616,
          "time": 55.84609799999999,
          "velocity": 0.7874015748031497
        },
        {
          "duration": 0.11538449999999756,
          "durationTicks": 24,
          "midi": 52,
          "name": "E3",
          "ticks": 11640,
          "time": 55.961482499999995,
          "velocity": 0.7874015748031497
        },
        {
          "duration": 0.11538449999999756,
          "durationTicks": 24,
          "midi": 52,
          "name": "E3",
          "ticks": 11664,
          "time": 56.07686699999999,
          "velocity": 0.7874015748031497
        },
        {
          "duration": 0.11538450000000466,
          "durationTicks": 24,
          "midi": 52,
          "name": "E3",
          "ticks": 11688,
          "time": 56.19225149999999,
          "velocity": 0.7874015748031497
        },
        {
          "duration": 0.11538449999999756,
          "durationTicks": 24,
          "midi": 52,
          "name": "E3",
          "ticks": 11712,
          "time": 56.307635999999995,
          "velocity": 0.7874015748031497
        },
        {
          "duration": 0.11538449999999756,
          "durationTicks": 24,
          "midi": 52,
          "name": "E3",
          "ticks": 11736,
          "time": 56.42302049999999,
          "velocity": 0.7874015748031497
        },
        {
          "duration": 0.11538450000000466,
          "durationTicks": 24,
          "midi": 52,
          "name": "E3",
          "ticks": 11760,
          "time": 56.53840499999999,
          "velocity": 0.7874015748031497
        },
        {
          "duration": 0.11538449999999756,
          "durationTicks": 24,
          "midi": 52,
          "name": "E3",
          "ticks": 11784,
          "time": 56.653789499999995,
          "velocity": 0.7874015748031497
        },
        {
          "duration": 0.11538450000000466,
          "durationTicks": 24,
          "midi": 52,
          "name": "E3",
          "ticks": 11808,
          "time": 56.76917399999999,
          "velocity": 0.7874015748031497
        },
        {
          "duration": 0.11538449999999756,
          "durationTicks": 24,
          "midi": 52,
          "name": "E3",
          "ticks": 11832,
          "time": 56.8845585,
          "velocity": 0.7874015748031497
        },
        {
          "duration": 0.11538449999999756,
          "durationTicks": 24,
          "midi": 52,
          "name": "E3",
          "ticks": 11856,
          "time": 56.999942999999995,
          "velocity": 0.7874015748031497
        },
        {
          "duration": 0.11538450000000466,
          "durationTicks": 24,
          "midi": 52,
          "name": "E3",
          "ticks": 11880,
          "time": 57.11532749999999,
          "velocity": 0.7874015748031497
        },
        {
          "duration": 0.11538449999999756,
          "durationTicks": 24,
          "midi": 52,
          "name": "E3",
          "ticks": 11904,
          "time": 57.230712,
          "velocity": 0.7874015748031497
        },
        {
          "duration": 0.11538449999999756,
          "durationTicks": 24,
          "midi": 52,
          "name": "E3",
          "ticks": 11928,
          "time": 57.346096499999994,
          "velocity": 0.7874015748031497
        },
        {
          "duration": 0.11538450000000466,
          "durationTicks": 24,
          "midi": 52,
          "name": "E3",
          "ticks": 11952,
          "time": 57.46148099999999,
          "velocity": 0.7874015748031497
        },
        {
          "duration": 0.23076900000000222,
          "durationTicks": 48,
          "midi": 48,
          "name": "C3",
          "ticks": 12000,
          "time": 57.692249999999994,
          "velocity": 0.7874015748031497
        },
        {
          "duration": 0.23076899999999512,
          "durationTicks": 48,
          "midi": 48,
          "name": "C3",
          "ticks": 12048,
          "time": 57.923019,
          "velocity": 0.7874015748031497
        },
        {
          "duration": 0.23076900000000222,
          "durationTicks": 48,
          "midi": 48,
          "name": "C3",
          "ticks": 12096,
          "time": 58.15378799999999,
          "velocity": 0.7874015748031497
        },
        {
          "duration": 0.23076899999999512,
          "durationTicks": 48,
          "midi": 50,
          "name": "D3",
          "ticks": 12192,
          "time": 58.615325999999996,
          "velocity": 0.7874015748031497
        },
        {
          "duration": 0.6923069999999996,
          "durationTicks": 144,
          "midi": 50,
          "name": "D3",
          "ticks": 12240,
          "time": 58.84609499999999,
          "velocity": 0.7874015748031497
        },
        {
          "duration": 0.23076900000000222,
          "durationTicks": 48,
          "midi": 48,
          "name": "C3",
          "ticks": 12384,
          "time": 59.53840199999999,
          "velocity": 0.7874015748031497
        },
        {
          "duration": 0.23076900000000222,
          "durationTicks": 48,
          "midi": 48,
          "name": "C3",
          "ticks": 12432,
          "time": 59.76917099999999,
          "velocity": 0.7874015748031497
        },
        {
          "duration": 0.23076899999999512,
          "durationTicks": 48,
          "midi": 48,
          "name": "C3",
          "ticks": 12480,
          "time": 59.999939999999995,
          "velocity": 0.7874015748031497
        },
        {
          "duration": 0.23076900000000222,
          "durationTicks": 48,
          "midi": 50,
          "name": "D3",
          "ticks": 12576,
          "time": 60.46147799999999,
          "velocity": 0.7874015748031497
        },
        {
          "duration": 0.6923069999999996,
          "durationTicks": 144,
          "midi": 50,
          "name": "D3",
          "ticks": 12624,
          "time": 60.692246999999995,
          "velocity": 0.7874015748031497
        },
        {
          "duration": 0.23076900000000222,
          "durationTicks": 48,
          "midi": 48,
          "name": "C3",
          "ticks": 12768,
          "time": 61.384553999999994,
          "velocity": 0.7874015748031497
        },
        {
          "duration": 0.23076899999999512,
          "durationTicks": 48,
          "midi": 48,
          "name": "C3",
          "ticks": 12816,
          "time": 61.615323,
          "velocity": 0.7874015748031497
        },
        {
          "duration": 0.46153800000000444,
          "durationTicks": 96,
          "midi": 49,
          "name": "C#3",
          "ticks": 12864,
          "time": 61.84609199999999,
          "velocity": 0.7874015748031497
        },
        {
          "duration": 0.11538449999999756,
          "durationTicks": 24,
          "midi": 54,
          "name": "F#3",
          "ticks": 12960,
          "time": 62.307629999999996,
          "velocity": 0.7874015748031497
        },
        {
          "duration": 0.11538449999999756,
          "durationTicks": 24,
          "midi": 54,
          "name": "F#3",
          "ticks": 12984,
          "time": 62.423014499999994,
          "velocity": 0.7874015748031497
        },
        {
          "duration": 0.11538449999999756,
          "durationTicks": 24,
          "midi": 54,
          "name": "F#3",
          "ticks": 12984,
          "time": 62.423014499999994,
          "velocity": 0.7874015748031497
        },
        {
          "duration": 0.11538450000000466,
          "durationTicks": 24,
          "midi": 54,
          "name": "F#3",
          "ticks": 13008,
          "time": 62.53839899999999,
          "velocity": 0.7874015748031497
        },
        {
          "duration": 0.11538449999999756,
          "durationTicks": 24,
          "midi": 54,
          "name": "F#3",
          "ticks": 13032,
          "time": 62.653783499999996,
          "velocity": 0.7874015748031497
        },
        {
          "duration": 0.11538449999999756,
          "durationTicks": 24,
          "midi": 54,
          "name": "F#3",
          "ticks": 13056,
          "time": 62.76916799999999,
          "velocity": 0.7874015748031497
        },
        {
          "duration": 0.8076914999999971,
          "durationTicks": 168,
          "midi": 50,
          "name": "D3",
          "ticks": 13056,
          "time": 62.76916799999999,
          "velocity": 0.7874015748031497
        },
        {
          "duration": 0.11538450000000466,
          "durationTicks": 24,
          "midi": 54,
          "name": "F#3",
          "ticks": 13080,
          "time": 62.88455249999999,
          "velocity": 0.7874015748031497
        },
        {
          "duration": 0.11538449999999756,
          "durationTicks": 24,
          "midi": 54,
          "name": "F#3",
          "ticks": 13104,
          "time": 62.999936999999996,
          "velocity": 0.7874015748031497
        },
        {
          "duration": 0.11538449999999756,
          "durationTicks": 24,
          "midi": 54,
          "name": "F#3",
          "ticks": 13128,
          "time": 63.11532149999999,
          "velocity": 0.7874015748031497
        },
        {
          "duration": 0.11538450000000466,
          "durationTicks": 24,
          "midi": 54,
          "name": "F#3",
          "ticks": 13152,
          "time": 63.23070599999999,
          "velocity": 0.7874015748031497
        },
        {
          "duration": 0.11538449999999756,
          "durationTicks": 24,
          "midi": 54,
          "name": "F#3",
          "ticks": 13176,
          "time": 63.346090499999995,
          "velocity": 0.7874015748031497
        },
        {
          "duration": 0.11538449999999756,
          "durationTicks": 24,
          "midi": 54,
          "name": "F#3",
          "ticks": 13200,
          "time": 63.46147499999999,
          "velocity": 0.7874015748031497
        },
        {
          "duration": 0.11538450000000466,
          "durationTicks": 24,
          "midi": 54,
          "name": "F#3",
          "ticks": 13224,
          "time": 63.57685949999999,
          "velocity": 0.7874015748031497
        },
        {
          "duration": 0.23076900000000222,
          "durationTicks": 48,
          "midi": 49,
          "name": "C#3",
          "ticks": 13224,
          "time": 63.57685949999999,
          "velocity": 0.7874015748031497
        },
        {
          "duration": 0.11538449999999756,
          "durationTicks": 24,
          "midi": 54,
          "name": "F#3",
          "ticks": 13248,
          "time": 63.692243999999995,
          "velocity": 0.7874015748031497
        },
        {
          "duration": 0.6923069999999996,
          "durationTicks": 144,
          "midi": 49,
          "name": "C#3",
          "ticks": 13272,
          "time": 63.80762849999999,
          "velocity": 0.7874015748031497
        },
        {
          "duration": 0.11538449999999756,
          "durationTicks": 24,
          "midi": 54,
          "name": "F#3",
          "ticks": 13272,
          "time": 63.80762849999999,
          "velocity": 0.7874015748031497
        },
        {
          "duration": 0.11538449999999756,
          "durationTicks": 24,
          "midi": 54,
          "name": "F#3",
          "ticks": 13296,
          "time": 63.92301299999999,
          "velocity": 0.7874015748031497
        },
        {
          "duration": 0.11538450000000466,
          "durationTicks": 24,
          "midi": 54,
          "name": "F#3",
          "ticks": 13320,
          "time": 64.03839749999999,
          "velocity": 0.7874015748031497
        },
        {
          "duration": 0.11538450000000466,
          "durationTicks": 24,
          "midi": 54,
          "name": "F#3",
          "ticks": 13344,
          "time": 64.15378199999999,
          "velocity": 0.7874015748031497
        },
        {
          "duration": 0.11538449999999045,
          "durationTicks": 24,
          "midi": 54,
          "name": "F#3",
          "ticks": 13368,
          "time": 64.2691665,
          "velocity": 0.7874015748031497
        },
        {
          "duration": 0.11538450000000466,
          "durationTicks": 24,
          "midi": 54,
          "name": "F#3",
          "ticks": 13392,
          "time": 64.38455099999999,
          "velocity": 0.7874015748031497
        },
        {
          "duration": 0.11538450000000466,
          "durationTicks": 24,
          "midi": 54,
          "name": "F#3",
          "ticks": 13416,
          "time": 64.49993549999999,
          "velocity": 0.7874015748031497
        },
        {
          "duration": 0.8076915000000042,
          "durationTicks": 168,
          "midi": 50,
          "name": "D3",
          "ticks": 13416,
          "time": 64.49993549999999,
          "velocity": 0.7874015748031497
        },
        {
          "duration": 0.11538449999999045,
          "durationTicks": 24,
          "midi": 54,
          "name": "F#3",
          "ticks": 13440,
          "time": 64.61532,
          "velocity": 0.7874015748031497
        },
        {
          "duration": 0.11538450000000466,
          "durationTicks": 24,
          "midi": 54,
          "name": "F#3",
          "ticks": 13464,
          "time": 64.73070449999999,
          "velocity": 0.7874015748031497
        },
        {
          "duration": 0.11538450000000466,
          "durationTicks": 24,
          "midi": 54,
          "name": "F#3",
          "ticks": 13464,
          "time": 64.73070449999999,
          "velocity": 0.7874015748031497
        },
        {
          "duration": 0.11538450000000466,
          "durationTicks": 24,
          "midi": 54,
          "name": "F#3",
          "ticks": 13488,
          "time": 64.84608899999999,
          "velocity": 0.7874015748031497
        },
        {
          "duration": 0.11538449999999045,
          "durationTicks": 24,
          "midi": 54,
          "name": "F#3",
          "ticks": 13512,
          "time": 64.9614735,
          "velocity": 0.7874015748031497
        },
        {
          "duration": 0.11538450000000466,
          "durationTicks": 24,
          "midi": 54,
          "name": "F#3",
          "ticks": 13536,
          "time": 65.07685799999999,
          "velocity": 0.7874015748031497
        },
        {
          "duration": 0.11538450000000466,
          "durationTicks": 24,
          "midi": 54,
          "name": "F#3",
          "ticks": 13560,
          "time": 65.19224249999999,
          "velocity": 0.7874015748031497
        },
        {
          "duration": 0.3461534999999998,
          "durationTicks": 72,
          "midi": 49,
          "name": "C#3",
          "ticks": 13584,
          "time": 65.307627,
          "velocity": 0.7874015748031497
        },
        {
          "duration": 0.11538449999999045,
          "durationTicks": 24,
          "midi": 54,
          "name": "F#3",
          "ticks": 13584,
          "time": 65.307627,
          "velocity": 0.7874015748031497
        },
        {
          "duration": 0.11538450000000466,
          "durationTicks": 24,
          "midi": 54,
          "name": "F#3",
          "ticks": 13608,
          "time": 65.42301149999999,
          "velocity": 0.7874015748031497
        },
        {
          "duration": 0.11538450000000466,
          "durationTicks": 24,
          "midi": 54,
          "name": "F#3",
          "ticks": 13632,
          "time": 65.53839599999999,
          "velocity": 0.7874015748031497
        },
        {
          "duration": 0.11538449999999045,
          "durationTicks": 24,
          "midi": 54,
          "name": "F#3",
          "ticks": 13656,
          "time": 65.6537805,
          "velocity": 0.7874015748031497
        },
        {
          "duration": 0.3461534999999998,
          "durationTicks": 72,
          "midi": 48,
          "name": "C3",
          "ticks": 13656,
          "time": 65.6537805,
          "velocity": 0.7874015748031497
        },
        {
          "duration": 0.11538450000000466,
          "durationTicks": 24,
          "midi": 54,
          "name": "F#3",
          "ticks": 13680,
          "time": 65.76916499999999,
          "velocity": 0.7874015748031497
        },
        {
          "duration": 0.11538450000000466,
          "durationTicks": 24,
          "midi": 54,
          "name": "F#3",
          "ticks": 13704,
          "time": 65.88454949999999,
          "velocity": 0.7874015748031497
        },
        {
          "duration": 0.3461534999999998,
          "durationTicks": 72,
          "midi": 48,
          "name": "C3",
          "ticks": 13728,
          "time": 65.999934,
          "velocity": 0.7874015748031497
        },
        {
          "duration": 0.11538449999999045,
          "durationTicks": 24,
          "midi": 54,
          "name": "F#3",
          "ticks": 13728,
          "time": 65.999934,
          "velocity": 0.7874015748031497
        },
        {
          "duration": 0.11538450000000466,
          "durationTicks": 24,
          "midi": 54,
          "name": "F#3",
          "ticks": 13752,
          "time": 66.11531849999999,
          "velocity": 0.7874015748031497
        },
        {
          "duration": 0.11538450000000466,
          "durationTicks": 24,
          "midi": 54,
          "name": "F#3",
          "ticks": 13776,
          "time": 66.23070299999999,
          "velocity": 0.7874015748031497
        },
        {
          "duration": 0.11538449999999045,
          "durationTicks": 24,
          "midi": 54,
          "name": "F#3",
          "ticks": 13800,
          "time": 66.3460875,
          "velocity": 0.7874015748031497
        },
        {
          "duration": 0.46153800000000444,
          "durationTicks": 96,
          "midi": 50,
          "name": "D3",
          "ticks": 13920,
          "time": 66.92300999999999,
          "velocity": 0.7874015748031497
        },
        {
          "duration": 0.23076899999999512,
          "durationTicks": 48,
          "midi": 49,
          "name": "C#3",
          "ticks": 14016,
          "time": 67.384548,
          "velocity": 0.7874015748031497
        },
        {
          "duration": 0.5769225000000091,
          "durationTicks": 120,
          "midi": 49,
          "name": "C#3",
          "ticks": 14064,
          "time": 67.61531699999999,
          "velocity": 0.7874015748031497
        },
        {
          "duration": 0.3461534999999998,
          "durationTicks": 72,
          "midi": 50,
          "name": "D3",
          "ticks": 14208,
          "time": 68.30762399999999,
          "velocity": 0.7874015748031497
        },
        {
          "duration": 0.6923069999999996,
          "durationTicks": 144,
          "midi": 49,
          "name": "C#3",
          "ticks": 14280,
          "time": 68.65377749999999,
          "velocity": 0.7874015748031497
        },
        {
          "duration": 0.6923069999999996,
          "durationTicks": 144,
          "midi": 49,
          "name": "C#3",
          "ticks": 14448,
          "time": 69.461469,
          "velocity": 0.7874015748031497
        },
        {
          "duration": 0.3461534999999998,
          "durationTicks": 72,
          "midi": 49,
          "name": "C#3",
          "ticks": 14592,
          "time": 70.153776,
          "velocity": 0.7874015748031497
        },
        {
          "duration": 0.5769224999999949,
          "durationTicks": 120,
          "midi": 49,
          "name": "C#3",
          "ticks": 14664,
          "time": 70.4999295,
          "velocity": 0.7874015748031497
        },
        {
          "duration": 0.5769225000000091,
          "durationTicks": 120,
          "midi": 50,
          "name": "D3",
          "ticks": 14784,
          "time": 71.07685199999999,
          "velocity": 0.7874015748031497
        },
        {
          "duration": 0.11538449999999045,
          "durationTicks": 24,
          "midi": 48,
          "name": "C3",
          "ticks": 14904,
          "time": 71.6537745,
          "velocity": 0.7874015748031497
        },
        {
          "duration": 0.11538450000000466,
          "durationTicks": 24,
          "midi": 48,
          "name": "C3",
          "ticks": 14928,
          "time": 71.76915899999999,
          "velocity": 0.7874015748031497
        },
        {
          "duration": 0.11538450000000466,
          "durationTicks": 24,
          "midi": 48,
          "name": "C3",
          "ticks": 14928,
          "time": 71.76915899999999,
          "velocity": 0.7874015748031497
        },
        {
          "duration": 0.11538450000000466,
          "durationTicks": 24,
          "midi": 48,
          "name": "C3",
          "ticks": 14952,
          "time": 71.88454349999999,
          "velocity": 0.7874015748031497
        },
        {
          "duration": 0.11538449999999045,
          "durationTicks": 24,
          "midi": 48,
          "name": "C3",
          "ticks": 14976,
          "time": 71.999928,
          "velocity": 0.7874015748031497
        },
        {
          "duration": 0.11538450000000466,
          "durationTicks": 24,
          "midi": 48,
          "name": "C3",
          "ticks": 15000,
          "time": 72.11531249999999,
          "velocity": 0.7874015748031497
        },
        {
          "duration": 0.11538450000000466,
          "durationTicks": 24,
          "midi": 48,
          "name": "C3",
          "ticks": 15024,
          "time": 72.23069699999999,
          "velocity": 0.7874015748031497
        },
        {
          "duration": 0.11538449999999045,
          "durationTicks": 24,
          "midi": 48,
          "name": "C3",
          "ticks": 15048,
          "time": 72.3460815,
          "velocity": 0.7874015748031497
        },
        {
          "duration": 0.11538450000000466,
          "durationTicks": 24,
          "midi": 48,
          "name": "C3",
          "ticks": 15072,
          "time": 72.46146599999999,
          "velocity": 0.7874015748031497
        },
        {
          "duration": 0.11538450000000466,
          "durationTicks": 24,
          "midi": 48,
          "name": "C3",
          "ticks": 15096,
          "time": 72.57685049999999,
          "velocity": 0.7874015748031497
        },
        {
          "duration": 0.11538449999999045,
          "durationTicks": 24,
          "midi": 48,
          "name": "C3",
          "ticks": 15120,
          "time": 72.692235,
          "velocity": 0.7874015748031497
        },
        {
          "duration": 0.11538450000000466,
          "durationTicks": 24,
          "midi": 48,
          "name": "C3",
          "ticks": 15144,
          "time": 72.80761949999999,
          "velocity": 0.7874015748031497
        },
        {
          "duration": 0.11538450000000466,
          "durationTicks": 24,
          "midi": 48,
          "name": "C3",
          "ticks": 15168,
          "time": 72.92300399999999,
          "velocity": 0.7874015748031497
        },
        {
          "duration": 0.11538449999999045,
          "durationTicks": 24,
          "midi": 48,
          "name": "C3",
          "ticks": 15192,
          "time": 73.0383885,
          "velocity": 0.7874015748031497
        },
        {
          "duration": 0.11538450000000466,
          "durationTicks": 24,
          "midi": 48,
          "name": "C3",
          "ticks": 15216,
          "time": 73.15377299999999,
          "velocity": 0.7874015748031497
        },
        {
          "duration": 0.11538450000000466,
          "durationTicks": 24,
          "midi": 48,
          "name": "C3",
          "ticks": 15240,
          "time": 73.26915749999999,
          "velocity": 0.7874015748031497
        },
        {
          "duration": 0.11538449999999045,
          "durationTicks": 24,
          "midi": 48,
          "name": "C3",
          "ticks": 15264,
          "time": 73.384542,
          "velocity": 0.7874015748031497
        },
        {
          "duration": 0.11538450000000466,
          "durationTicks": 24,
          "midi": 48,
          "name": "C3",
          "ticks": 15288,
          "time": 73.49992649999999,
          "velocity": 0.7874015748031497
        },
        {
          "duration": 0.11538450000000466,
          "durationTicks": 24,
          "midi": 48,
          "name": "C3",
          "ticks": 15312,
          "time": 73.61531099999999,
          "velocity": 0.7874015748031497
        },
        {
          "duration": 0.11538449999999045,
          "durationTicks": 24,
          "midi": 48,
          "name": "C3",
          "ticks": 15336,
          "time": 73.7306955,
          "velocity": 0.7874015748031497
        },
        {
          "duration": 0.11538450000000466,
          "durationTicks": 24,
          "midi": 53,
          "name": "F3",
          "ticks": 15576,
          "time": 74.88454049999999,
          "velocity": 0.7874015748031497
        },
        {
          "duration": 0.11538450000000466,
          "durationTicks": 24,
          "midi": 53,
          "name": "F3",
          "ticks": 15600,
          "time": 74.99992499999999,
          "velocity": 0.7874015748031497
        },
        {
          "duration": 0.11538450000000466,
          "durationTicks": 24,
          "midi": 53,
          "name": "F3",
          "ticks": 15600,
          "time": 74.99992499999999,
          "velocity": 0.7874015748031497
        },
        {
          "duration": 0.11538449999999045,
          "durationTicks": 24,
          "midi": 53,
          "name": "F3",
          "ticks": 15624,
          "time": 75.1153095,
          "velocity": 0.7874015748031497
        },
        {
          "duration": 0.11538450000000466,
          "durationTicks": 24,
          "midi": 53,
          "name": "F3",
          "ticks": 15648,
          "time": 75.23069399999999,
          "velocity": 0.7874015748031497
        },
        {
          "duration": 0.11538450000000466,
          "durationTicks": 24,
          "midi": 53,
          "name": "F3",
          "ticks": 15672,
          "time": 75.34607849999999,
          "velocity": 0.7874015748031497
        },
        {
          "duration": 0.11538449999999045,
          "durationTicks": 24,
          "midi": 53,
          "name": "F3",
          "ticks": 15696,
          "time": 75.461463,
          "velocity": 0.7874015748031497
        },
        {
          "duration": 0.11538450000000466,
          "durationTicks": 24,
          "midi": 53,
          "name": "F3",
          "ticks": 15720,
          "time": 75.57684749999999,
          "velocity": 0.7874015748031497
        },
        {
          "duration": 0.11538450000000466,
          "durationTicks": 24,
          "midi": 53,
          "name": "F3",
          "ticks": 15744,
          "time": 75.69223199999999,
          "velocity": 0.7874015748031497
        },
        {
          "duration": 0.11538449999999045,
          "durationTicks": 24,
          "midi": 53,
          "name": "F3",
          "ticks": 15768,
          "time": 75.8076165,
          "velocity": 0.7874015748031497
        },
        {
          "duration": 0.11538450000000466,
          "durationTicks": 24,
          "midi": 53,
          "name": "F3",
          "ticks": 15792,
          "time": 75.92300099999999,
          "velocity": 0.7874015748031497
        },
        {
          "duration": 0.11538450000000466,
          "durationTicks": 24,
          "midi": 53,
          "name": "F3",
          "ticks": 15816,
          "time": 76.03838549999999,
          "velocity": 0.7874015748031497
        },
        {
          "duration": 0.11538449999999045,
          "durationTicks": 24,
          "midi": 53,
          "name": "F3",
          "ticks": 15840,
          "time": 76.15377,
          "velocity": 0.7874015748031497
        },
        {
          "duration": 0.11538450000000466,
          "durationTicks": 24,
          "midi": 53,
          "name": "F3",
          "ticks": 15864,
          "time": 76.26915449999998,
          "velocity": 0.7874015748031497
        },
        {
          "duration": 0.11538450000000466,
          "durationTicks": 24,
          "midi": 53,
          "name": "F3",
          "ticks": 15888,
          "time": 76.38453899999999,
          "velocity": 0.7874015748031497
        },
        {
          "duration": 0.11538449999999045,
          "durationTicks": 24,
          "midi": 53,
          "name": "F3",
          "ticks": 15912,
          "time": 76.4999235,
          "velocity": 0.7874015748031497
        },
        {
          "duration": 0.11538450000000466,
          "durationTicks": 24,
          "midi": 53,
          "name": "F3",
          "ticks": 15936,
          "time": 76.61530799999998,
          "velocity": 0.7874015748031497
        },
        {
          "duration": 0.11538450000000466,
          "durationTicks": 24,
          "midi": 53,
          "name": "F3",
          "ticks": 15960,
          "time": 76.73069249999999,
          "velocity": 0.7874015748031497
        },
        {
          "duration": 0.11538449999999045,
          "durationTicks": 24,
          "midi": 53,
          "name": "F3",
          "ticks": 15984,
          "time": 76.846077,
          "velocity": 0.7874015748031497
        },
        {
          "duration": 0.11538450000000466,
          "durationTicks": 24,
          "midi": 53,
          "name": "F3",
          "ticks": 16008,
          "time": 76.96146149999998,
          "velocity": 0.7874015748031497
        },
        {
          "duration": 0.11538450000000466,
          "durationTicks": 24,
          "midi": 53,
          "name": "F3",
          "ticks": 16032,
          "time": 77.07684599999999,
          "velocity": 0.7874015748031497
        },
        {
          "duration": 0.11538450000000466,
          "durationTicks": 24,
          "midi": 53,
          "name": "F3",
          "ticks": 16056,
          "time": 77.1922305,
          "velocity": 0.7874015748031497
        },
        {
          "duration": 0.11538449999999045,
          "durationTicks": 24,
          "midi": 53,
          "name": "F3",
          "ticks": 16080,
          "time": 77.307615,
          "velocity": 0.7874015748031497
        },
        {
          "duration": 0.11538450000000466,
          "durationTicks": 24,
          "midi": 53,
          "name": "F3",
          "ticks": 16104,
          "time": 77.42299949999999,
          "velocity": 0.7874015748031497
        },
        {
          "duration": 0.11538450000000466,
          "durationTicks": 24,
          "midi": 53,
          "name": "F3",
          "ticks": 16128,
          "time": 77.538384,
          "velocity": 0.7874015748031497
        },
        {
          "duration": 0.11538449999999045,
          "durationTicks": 24,
          "midi": 53,
          "name": "F3",
          "ticks": 16152,
          "time": 77.6537685,
          "velocity": 0.7874015748031497
        },
        {
          "duration": 0.11538450000000466,
          "durationTicks": 24,
          "midi": 54,
          "name": "F#3",
          "ticks": 16176,
          "time": 77.76915299999999,
          "velocity": 0.7874015748031497
        },
        {
          "duration": 0.11538450000000466,
          "durationTicks": 24,
          "midi": 54,
          "name": "F#3",
          "ticks": 16200,
          "time": 77.8845375,
          "velocity": 0.7874015748031497
        },
        {
          "duration": 0.11538450000000466,
          "durationTicks": 24,
          "midi": 54,
          "name": "F#3",
          "ticks": 16200,
          "time": 77.8845375,
          "velocity": 0.7874015748031497
        },
        {
          "duration": 0.11538449999999045,
          "durationTicks": 24,
          "midi": 54,
          "name": "F#3",
          "ticks": 16224,
          "time": 77.999922,
          "velocity": 0.7874015748031497
        },
        {
          "duration": 0.11538450000000466,
          "durationTicks": 24,
          "midi": 54,
          "name": "F#3",
          "ticks": 16248,
          "time": 78.11530649999999,
          "velocity": 0.7874015748031497
        },
        {
          "duration": 0.11538450000000466,
          "durationTicks": 24,
          "midi": 54,
          "name": "F#3",
          "ticks": 16272,
          "time": 78.230691,
          "velocity": 0.7874015748031497
        },
        {
          "duration": 0.11538449999999045,
          "durationTicks": 24,
          "midi": 54,
          "name": "F#3",
          "ticks": 16296,
          "time": 78.3460755,
          "velocity": 0.7874015748031497
        },
        {
          "duration": 0.11538450000000466,
          "durationTicks": 24,
          "midi": 54,
          "name": "F#3",
          "ticks": 16320,
          "time": 78.46145999999999,
          "velocity": 0.7874015748031497
        },
        {
          "duration": 0.11538450000000466,
          "durationTicks": 24,
          "midi": 54,
          "name": "F#3",
          "ticks": 16344,
          "time": 78.57684449999999,
          "velocity": 0.7874015748031497
        },
        {
          "duration": 0.11538449999999045,
          "durationTicks": 24,
          "midi": 54,
          "name": "F#3",
          "ticks": 16368,
          "time": 78.692229,
          "velocity": 0.7874015748031497
        },
        {
          "duration": 0.11538450000000466,
          "durationTicks": 24,
          "midi": 52,
          "name": "E3",
          "ticks": 16392,
          "time": 78.80761349999999,
          "velocity": 0.7874015748031497
        },
        {
          "duration": 0.11538450000000466,
          "durationTicks": 24,
          "midi": 52,
          "name": "E3",
          "ticks": 16416,
          "time": 78.92299799999999,
          "velocity": 0.7874015748031497
        },
        {
          "duration": 0.11538450000000466,
          "durationTicks": 24,
          "midi": 52,
          "name": "E3",
          "ticks": 16416,
          "time": 78.92299799999999,
          "velocity": 0.7874015748031497
        },
        {
          "duration": 0.11538449999999045,
          "durationTicks": 24,
          "midi": 52,
          "name": "E3",
          "ticks": 16440,
          "time": 79.0383825,
          "velocity": 0.7874015748031497
        },
        {
          "duration": 0.11538450000000466,
          "durationTicks": 24,
          "midi": 52,
          "name": "E3",
          "ticks": 16464,
          "time": 79.15376699999999,
          "velocity": 0.7874015748031497
        },
        {
          "duration": 0.11538450000000466,
          "durationTicks": 24,
          "midi": 52,
          "name": "E3",
          "ticks": 16488,
          "time": 79.26915149999999,
          "velocity": 0.7874015748031497
        },
        {
          "duration": 0.11538449999999045,
          "durationTicks": 24,
          "midi": 52,
          "name": "E3",
          "ticks": 16512,
          "time": 79.384536,
          "velocity": 0.7874015748031497
        },
        {
          "duration": 0.11538450000000466,
          "durationTicks": 24,
          "midi": 52,
          "name": "E3",
          "ticks": 16536,
          "time": 79.49992049999999,
          "velocity": 0.7874015748031497
        },
        {
          "duration": 0.11538450000000466,
          "durationTicks": 24,
          "midi": 52,
          "name": "E3",
          "ticks": 16560,
          "time": 79.61530499999999,
          "velocity": 0.7874015748031497
        },
        {
          "duration": 0.11538449999999045,
          "durationTicks": 24,
          "midi": 52,
          "name": "E3",
          "ticks": 16584,
          "time": 79.7306895,
          "velocity": 0.7874015748031497
        },
        {
          "duration": 0.11538450000000466,
          "durationTicks": 24,
          "midi": 52,
          "name": "E3",
          "ticks": 16608,
          "time": 79.84607399999999,
          "velocity": 0.7874015748031497
        },
        {
          "duration": 0.11538450000000466,
          "durationTicks": 24,
          "midi": 52,
          "name": "E3",
          "ticks": 16632,
          "time": 79.96145849999999,
          "velocity": 0.7874015748031497
        },
        {
          "duration": 0.11538449999999045,
          "durationTicks": 24,
          "midi": 52,
          "name": "E3",
          "ticks": 16656,
          "time": 80.076843,
          "velocity": 0.7874015748031497
        },
        {
          "duration": 0.11538450000000466,
          "durationTicks": 24,
          "midi": 52,
          "name": "E3",
          "ticks": 16680,
          "time": 80.19222749999999,
          "velocity": 0.7874015748031497
        },
        {
          "duration": 0.11538450000000466,
          "durationTicks": 24,
          "midi": 52,
          "name": "E3",
          "ticks": 16704,
          "time": 80.30761199999999,
          "velocity": 0.7874015748031497
        },
        {
          "duration": 0.11538449999999045,
          "durationTicks": 24,
          "midi": 52,
          "name": "E3",
          "ticks": 16728,
          "time": 80.4229965,
          "velocity": 0.7874015748031497
        },
        {
          "duration": 0.11538450000000466,
          "durationTicks": 24,
          "midi": 52,
          "name": "E3",
          "ticks": 16752,
          "time": 80.53838099999999,
          "velocity": 0.7874015748031497
        },
        {
          "duration": 0.11538450000000466,
          "durationTicks": 24,
          "midi": 52,
          "name": "E3",
          "ticks": 16776,
          "time": 80.65376549999999,
          "velocity": 0.7874015748031497
        },
        {
          "duration": 0.11538449999999045,
          "durationTicks": 24,
          "midi": 52,
          "name": "E3",
          "ticks": 16800,
          "time": 80.76915,
          "velocity": 0.7874015748031497
        },
        {
          "duration": 0.11538450000000466,
          "durationTicks": 24,
          "midi": 52,
          "name": "E3",
          "ticks": 16824,
          "time": 80.88453449999999,
          "velocity": 0.7874015748031497
        },
        {
          "duration": 0.11538450000000466,
          "durationTicks": 24,
          "midi": 52,
          "name": "E3",
          "ticks": 16848,
          "time": 80.99991899999999,
          "velocity": 0.7874015748031497
        },
        {
          "duration": 0.11538449999999045,
          "durationTicks": 24,
          "midi": 52,
          "name": "E3",
          "ticks": 16872,
          "time": 81.1153035,
          "velocity": 0.7874015748031497
        },
        {
          "duration": 0.11538450000000466,
          "durationTicks": 24,
          "midi": 52,
          "name": "E3",
          "ticks": 16896,
          "time": 81.23068799999999,
          "velocity": 0.7874015748031497
        },
        {
          "duration": 0.11538450000000466,
          "durationTicks": 24,
          "midi": 52,
          "name": "E3",
          "ticks": 16896,
          "time": 81.23068799999999,
          "velocity": 0.7874015748031497
        },
        {
          "duration": 0.11538450000000466,
          "durationTicks": 24,
          "midi": 52,
          "name": "E3",
          "ticks": 16920,
          "time": 81.34607249999999,
          "velocity": 0.7874015748031497
        },
        {
          "duration": 0.11538449999999045,
          "durationTicks": 24,
          "midi": 52,
          "name": "E3",
          "ticks": 16944,
          "time": 81.461457,
          "velocity": 0.7874015748031497
        },
        {
          "duration": 0.11538450000000466,
          "durationTicks": 24,
          "midi": 52,
          "name": "E3",
          "ticks": 16968,
          "time": 81.57684149999999,
          "velocity": 0.7874015748031497
        },
        {
          "duration": 0.11538450000000466,
          "durationTicks": 24,
          "midi": 52,
          "name": "E3",
          "ticks": 16992,
          "time": 81.69222599999999,
          "velocity": 0.7874015748031497
        },
        {
          "duration": 0.11538449999999045,
          "durationTicks": 24,
          "midi": 52,
          "name": "E3",
          "ticks": 17016,
          "time": 81.8076105,
          "velocity": 0.7874015748031497
        },
        {
          "duration": 0.11538450000000466,
          "durationTicks": 24,
          "midi": 52,
          "name": "E3",
          "ticks": 17040,
          "time": 81.92299499999999,
          "velocity": 0.7874015748031497
        },
        {
          "duration": 0.11538450000000466,
          "durationTicks": 24,
          "midi": 52,
          "name": "E3",
          "ticks": 17064,
          "time": 82.03837949999999,
          "velocity": 0.7874015748031497
        },
        {
          "duration": 0.11538449999999045,
          "durationTicks": 24,
          "midi": 52,
          "name": "E3",
          "ticks": 17088,
          "time": 82.153764,
          "velocity": 0.7874015748031497
        }
      ]
}