{
	"notes": [
        {
          "duration": 0.23076900000000045,
          "durationTicks": 48,
          "midi": 48,
          "name": "C3",
          "ticks": 864,
          "time": 4.153841999999999,
          "velocity": 0.7874015748031497
        },
        {
          "duration": 0.23076900000000045,
          "durationTicks": 48,
          "midi": 52,
          "name": "E3",
          "ticks": 864,
          "time": 4.153841999999999,
          "velocity": 0.7874015748031497
        },
        {
          "duration": 0.23076899999999956,
          "durationTicks": 48,
          "midi": 50,
          "name": "D3",
          "ticks": 912,
          "time": 4.384611,
          "velocity": 0.7874015748031497
        },
        {
          "duration": 0.23076899999999956,
          "durationTicks": 48,
          "midi": 54,
          "name": "F#3",
          "ticks": 912,
          "time": 4.384611,
          "velocity": 0.7874015748031497
        },
        {
          "duration": 0.23076900000000045,
          "durationTicks": 48,
          "midi": 50,
          "name": "D3",
          "ticks": 960,
          "time": 4.615379999999999,
          "velocity": 0.7874015748031497
        },
        {
          "duration": 0.23076900000000045,
          "durationTicks": 48,
          "midi": 54,
          "name": "F#3",
          "ticks": 960,
          "time": 4.615379999999999,
          "velocity": 0.7874015748031497
        },
        {
          "duration": 0.6923069999999996,
          "durationTicks": 144,
          "midi": 49,
          "name": "C#3",
          "ticks": 1032,
          "time": 4.9615335,
          "velocity": 0.7874015748031497
        },
        {
          "duration": 0.6923069999999996,
          "durationTicks": 144,
          "midi": 53,
          "name": "F3",
          "ticks": 1032,
          "time": 4.9615335,
          "velocity": 0.7874015748031497
        },
        {
          "duration": 0.23076900000000045,
          "durationTicks": 48,
          "midi": 52,
          "name": "E3",
          "ticks": 1416,
          "time": 6.807685499999999,
          "velocity": 0.7874015748031497
        },
        {
          "duration": 0.23076899999999956,
          "durationTicks": 48,
          "midi": 53,
          "name": "F3",
          "ticks": 1464,
          "time": 7.038454499999999,
          "velocity": 0.7874015748031497
        },
        {
          "duration": 0.23076900000000045,
          "durationTicks": 48,
          "midi": 52,
          "name": "E3",
          "ticks": 1584,
          "time": 7.615376999999999,
          "velocity": 0.7874015748031497
        },
        {
          "duration": 0.23076900000000045,
          "durationTicks": 48,
          "midi": 53,
          "name": "F3",
          "ticks": 1632,
          "time": 7.846145999999999,
          "velocity": 0.7874015748031497
        },
        {
          "duration": 0.23076900000000045,
          "durationTicks": 48,
          "midi": 54,
          "name": "F#3",
          "ticks": 2016,
          "time": 9.692298,
          "velocity": 0.7874015748031497
        },
        {
          "duration": 0.23076899999999867,
          "durationTicks": 48,
          "midi": 54,
          "name": "F#3",
          "ticks": 2064,
          "time": 9.923067,
          "velocity": 0.7874015748031497
        },
        {
          "duration": 0.23076900000000045,
          "durationTicks": 48,
          "midi": 54,
          "name": "F#3",
          "ticks": 2112,
          "time": 10.153835999999998,
          "velocity": 0.7874015748031497
        },
        {
          "duration": 0.4615380000000009,
          "durationTicks": 96,
          "midi": 54,
          "name": "F#3",
          "ticks": 2160,
          "time": 10.384604999999999,
          "velocity": 0.7874015748031497
        },
        {
          "duration": 0.23076899999999867,
          "durationTicks": 48,
          "midi": 54,
          "name": "F#3",
          "ticks": 2328,
          "time": 11.1922965,
          "velocity": 0.7874015748031497
        },
        {
          "duration": 0.23076900000000045,
          "durationTicks": 48,
          "midi": 54,
          "name": "F#3",
          "ticks": 2376,
          "time": 11.423065499999998,
          "velocity": 0.7874015748031497
        },
        {
          "duration": 0.23076900000000045,
          "durationTicks": 48,
          "midi": 54,
          "name": "F#3",
          "ticks": 2424,
          "time": 11.653834499999999,
          "velocity": 0.7874015748031497
        },
        {
          "duration": 0.23076900000000045,
          "durationTicks": 48,
          "midi": 54,
          "name": "F#3",
          "ticks": 2472,
          "time": 11.884603499999999,
          "velocity": 0.7874015748031497
        },
        {
          "duration": 0.3461534999999998,
          "durationTicks": 72,
          "midi": 54,
          "name": "F#3",
          "ticks": 2520,
          "time": 12.1153725,
          "velocity": 0.7874015748031497
        },
        {
          "duration": 0.3461534999999998,
          "durationTicks": 72,
          "midi": 53,
          "name": "F3",
          "ticks": 2592,
          "time": 12.461526,
          "velocity": 0.7874015748031497
        },
        {
          "duration": 0.3461534999999998,
          "durationTicks": 72,
          "midi": 52,
          "name": "E3",
          "ticks": 2664,
          "time": 12.807679499999999,
          "velocity": 0.7874015748031497
        },
        {
          "duration": 1.4999985000000002,
          "durationTicks": 312,
          "midi": 54,
          "name": "F#3",
          "ticks": 2736,
          "time": 13.153832999999999,
          "velocity": 0.7874015748031497
        },
        {
          "duration": 0.23076900000000045,
          "durationTicks": 48,
          "midi": 52,
          "name": "E3",
          "ticks": 3168,
          "time": 15.230753999999997,
          "velocity": 0.7874015748031497
        },
        {
          "duration": 0.23076900000000045,
          "durationTicks": 48,
          "midi": 48,
          "name": "C3",
          "ticks": 3168,
          "time": 15.230753999999997,
          "velocity": 0.7874015748031497
        },
        {
          "duration": 0.23076900000000045,
          "durationTicks": 48,
          "midi": 54,
          "name": "F#3",
          "ticks": 3216,
          "time": 15.461522999999998,
          "velocity": 0.7874015748031497
        },
        {
          "duration": 0.23076900000000045,
          "durationTicks": 48,
          "midi": 50,
          "name": "D3",
          "ticks": 3216,
          "time": 15.461522999999998,
          "velocity": 0.7874015748031497
        },
        {
          "duration": 0.23076900000000045,
          "durationTicks": 48,
          "midi": 54,
          "name": "F#3",
          "ticks": 3264,
          "time": 15.692291999999998,
          "velocity": 0.7874015748031497
        },
        {
          "duration": 0.23076900000000045,
          "durationTicks": 48,
          "midi": 50,
          "name": "D3",
          "ticks": 3264,
          "time": 15.692291999999998,
          "velocity": 0.7874015748031497
        },
        {
          "duration": 0.6923069999999996,
          "durationTicks": 144,
          "midi": 49,
          "name": "C#3",
          "ticks": 3336,
          "time": 16.038445499999998,
          "velocity": 0.7874015748031497
        },
        {
          "duration": 0.6923069999999996,
          "durationTicks": 144,
          "midi": 53,
          "name": "F3",
          "ticks": 3336,
          "time": 16.038445499999998,
          "velocity": 0.7874015748031497
        },
        {
          "duration": 0.23076899999999867,
          "durationTicks": 48,
          "midi": 48,
          "name": "C3",
          "ticks": 3720,
          "time": 17.884597499999998,
          "velocity": 0.7874015748031497
        },
        {
          "duration": 0.23076900000000222,
          "durationTicks": 48,
          "midi": 49,
          "name": "C#3",
          "ticks": 3768,
          "time": 18.115366499999997,
          "velocity": 0.7874015748031497
        },
        {
          "duration": 0.46153799999999734,
          "durationTicks": 96,
          "midi": 49,
          "name": "C#3",
          "ticks": 3888,
          "time": 18.692289,
          "velocity": 0.7874015748031497
        },
        {
          "duration": 0.23076899999999867,
          "durationTicks": 48,
          "midi": 49,
          "name": "C#3",
          "ticks": 4128,
          "time": 19.846134,
          "velocity": 0.7874015748031497
        },
        {
          "duration": 0.23076899999999867,
          "durationTicks": 48,
          "midi": 50,
          "name": "D3",
          "ticks": 4344,
          "time": 20.8845945,
          "velocity": 0.7874015748031497
        },
        {
          "duration": 0.23076899999999867,
          "durationTicks": 48,
          "midi": 50,
          "name": "D3",
          "ticks": 4392,
          "time": 21.115363499999997,
          "velocity": 0.7874015748031497
        },
        {
          "duration": 0.23076900000000222,
          "durationTicks": 48,
          "midi": 50,
          "name": "D3",
          "ticks": 4440,
          "time": 21.346132499999996,
          "velocity": 0.7874015748031497
        },
        {
          "duration": 0.4615380000000009,
          "durationTicks": 96,
          "midi": 50,
          "name": "D3",
          "ticks": 4488,
          "time": 21.576901499999998,
          "velocity": 0.7874015748031497
        },
        {
          "duration": 0.23076899999999867,
          "durationTicks": 48,
          "midi": 50,
          "name": "D3",
          "ticks": 4656,
          "time": 22.384593,
          "velocity": 0.7874015748031497
        },
        {
          "duration": 0.23076899999999867,
          "durationTicks": 48,
          "midi": 50,
          "name": "D3",
          "ticks": 4704,
          "time": 22.615361999999998,
          "velocity": 0.7874015748031497
        },
        {
          "duration": 0.23076900000000222,
          "durationTicks": 48,
          "midi": 50,
          "name": "D3",
          "ticks": 4752,
          "time": 22.846130999999996,
          "velocity": 0.7874015748031497
        },
        {
          "duration": 0.23076899999999867,
          "durationTicks": 48,
          "midi": 50,
          "name": "D3",
          "ticks": 4800,
          "time": 23.0769,
          "velocity": 0.7874015748031497
        },
        {
          "duration": 0.3461534999999998,
          "durationTicks": 72,
          "midi": 50,
          "name": "D3",
          "ticks": 4848,
          "time": 23.307668999999997,
          "velocity": 0.7874015748031497
        },
        {
          "duration": 0.3461534999999998,
          "durationTicks": 72,
          "midi": 49,
          "name": "C#3",
          "ticks": 4920,
          "time": 23.653822499999997,
          "velocity": 0.7874015748031497
        },
        {
          "duration": 0.3461534999999998,
          "durationTicks": 72,
          "midi": 48,
          "name": "C3",
          "ticks": 4992,
          "time": 23.999975999999997,
          "velocity": 0.7874015748031497
        },
        {
          "duration": 1.4999985000000002,
          "durationTicks": 312,
          "midi": 50,
          "name": "D3",
          "ticks": 5064,
          "time": 24.346129499999996,
          "velocity": 0.7874015748031497
        },
        {
          "duration": 0.23076899999999867,
          "durationTicks": 48,
          "midi": 48,
          "name": "C3",
          "ticks": 5472,
          "time": 26.307665999999998,
          "velocity": 0.7874015748031497
        },
        {
          "duration": 0.23076899999999867,
          "durationTicks": 48,
          "midi": 52,
          "name": "E3",
          "ticks": 5472,
          "time": 26.307665999999998,
          "velocity": 0.7874015748031497
        },
        {
          "duration": 0.4615380000000009,
          "durationTicks": 96,
          "midi": 50,
          "name": "D3",
          "ticks": 5520,
          "time": 26.538434999999996,
          "velocity": 0.7874015748031497
        },
        {
          "duration": 0.4615380000000009,
          "durationTicks": 96,
          "midi": 54,
          "name": "F#3",
          "ticks": 5520,
          "time": 26.538434999999996,
          "velocity": 0.7874015748031497
        },
        {
          "duration": 0.3461534999999998,
          "durationTicks": 72,
          "midi": 50,
          "name": "D3",
          "ticks": 5616,
          "time": 26.999972999999997,
          "velocity": 0.7874015748031497
        },
        {
          "duration": 0.3461534999999998,
          "durationTicks": 72,
          "midi": 54,
          "name": "F#3",
          "ticks": 5616,
          "time": 26.999972999999997,
          "velocity": 0.7874015748031497
        },
        {
          "duration": 0.8076915000000007,
          "durationTicks": 168,
          "midi": 49,
          "name": "C#3",
          "ticks": 5688,
          "time": 27.346126499999997,
          "velocity": 0.7874015748031497
        },
        {
          "duration": 0.8076915000000007,
          "durationTicks": 168,
          "midi": 53,
          "name": "F3",
          "ticks": 5688,
          "time": 27.346126499999997,
          "velocity": 0.7874015748031497
        },
        {
          "duration": 0.23076899999999867,
          "durationTicks": 48,
          "midi": 52,
          "name": "E3",
          "ticks": 6096,
          "time": 29.307662999999998,
          "velocity": 0.7874015748031497
        },
        {
          "duration": 0.23076899999999867,
          "durationTicks": 48,
          "midi": 53,
          "name": "F3",
          "ticks": 6144,
          "time": 29.538431999999997,
          "velocity": 0.7874015748031497
        },
        {
          "duration": 0.23076900000000222,
          "durationTicks": 48,
          "midi": 53,
          "name": "F3",
          "ticks": 6192,
          "time": 29.769200999999995,
          "velocity": 0.7874015748031497
        },
        {
          "duration": 1.3846139999999991,
          "durationTicks": 288,
          "midi": 52,
          "name": "E3",
          "ticks": 6240,
          "time": 29.999969999999998,
          "velocity": 0.7874015748031497
        },
        {
          "duration": 0.46153799999999734,
          "durationTicks": 96,
          "midi": 53,
          "name": "F3",
          "ticks": 6600,
          "time": 31.730737499999996,
          "velocity": 0.7874015748031497
        },
        {
          "duration": 0.46153800000000444,
          "durationTicks": 96,
          "midi": 52,
          "name": "E3",
          "ticks": 6696,
          "time": 32.192275499999994,
          "velocity": 0.7874015748031497
        },
        {
          "duration": 0.46153799999999734,
          "durationTicks": 96,
          "midi": 53,
          "name": "F3",
          "ticks": 6792,
          "time": 32.6538135,
          "velocity": 0.7874015748031497
        },
        {
          "duration": 0.46153799999999734,
          "durationTicks": 96,
          "midi": 52,
          "name": "E3",
          "ticks": 6888,
          "time": 33.115351499999996,
          "velocity": 0.7874015748031497
        },
        {
          "duration": 0.23076900000000222,
          "durationTicks": 48,
          "midi": 53,
          "name": "F3",
          "ticks": 6984,
          "time": 33.57688949999999,
          "velocity": 0.7874015748031497
        },
        {
          "duration": 0.23076900000000222,
          "durationTicks": 48,
          "midi": 52,
          "name": "E3",
          "ticks": 7032,
          "time": 33.807658499999995,
          "velocity": 0.7874015748031497
        },
        {
          "duration": 0.3461534999999998,
          "durationTicks": 72,
          "midi": 54,
          "name": "F#3",
          "ticks": 7104,
          "time": 34.153811999999995,
          "velocity": 0.7874015748031497
        },
        {
          "duration": 0.3461534999999998,
          "durationTicks": 72,
          "midi": 54,
          "name": "F#3",
          "ticks": 7176,
          "time": 34.499965499999995,
          "velocity": 0.7874015748031497
        },
        {
          "duration": 0.3461534999999998,
          "durationTicks": 72,
          "midi": 53,
          "name": "F3",
          "ticks": 7248,
          "time": 34.846118999999995,
          "velocity": 0.7874015748031497
        },
        {
          "duration": 0.3461534999999998,
          "durationTicks": 72,
          "midi": 53,
          "name": "F3",
          "ticks": 7320,
          "time": 35.192272499999994,
          "velocity": 0.7874015748031497
        },
        {
          "duration": 1.2692295000000016,
          "durationTicks": 264,
          "midi": 54,
          "name": "F#3",
          "ticks": 7392,
          "time": 35.538425999999994,
          "velocity": 0.7874015748031497
        },
        {
          "duration": 0.23076900000000222,
          "durationTicks": 48,
          "midi": 52,
          "name": "E3",
          "ticks": 7752,
          "time": 37.26919349999999,
          "velocity": 0.7874015748031497
        },
        {
          "duration": 0.23076900000000222,
          "durationTicks": 48,
          "midi": 48,
          "name": "C3",
          "ticks": 7752,
          "time": 37.26919349999999,
          "velocity": 0.7874015748031497
        },
        {
          "duration": 0.6923069999999996,
          "durationTicks": 144,
          "midi": 54,
          "name": "F#3",
          "ticks": 7800,
          "time": 37.499962499999995,
          "velocity": 0.7874015748031497
        },
        {
          "duration": 0.6923069999999996,
          "durationTicks": 144,
          "midi": 50,
          "name": "D3",
          "ticks": 7800,
          "time": 37.499962499999995,
          "velocity": 0.7874015748031497
        },
        {
          "duration": 0.3461534999999998,
          "durationTicks": 72,
          "midi": 54,
          "name": "F#3",
          "ticks": 7944,
          "time": 38.192269499999995,
          "velocity": 0.7874015748031497
        },
        {
          "duration": 0.3461534999999998,
          "durationTicks": 72,
          "midi": 50,
          "name": "D3",
          "ticks": 7944,
          "time": 38.192269499999995,
          "velocity": 0.7874015748031497
        },
        {
          "duration": 1.153845000000004,
          "durationTicks": 240,
          "midi": 53,
          "name": "F3",
          "ticks": 8016,
          "time": 38.538422999999995,
          "velocity": 0.7874015748031497
        },
        {
          "duration": 1.153845000000004,
          "durationTicks": 240,
          "midi": 49,
          "name": "C#3",
          "ticks": 8016,
          "time": 38.538422999999995,
          "velocity": 0.7874015748031497
        },
        {
          "duration": 0.23076900000000222,
          "durationTicks": 48,
          "midi": 48,
          "name": "C3",
          "ticks": 8376,
          "time": 40.26919049999999,
          "velocity": 0.7874015748031497
        },
        {
          "duration": 0.23076900000000222,
          "durationTicks": 48,
          "midi": 48,
          "name": "C3",
          "ticks": 8424,
          "time": 40.499959499999996,
          "velocity": 0.7874015748031497
        },
        {
          "duration": 0.23076899999999512,
          "durationTicks": 48,
          "midi": 48,
          "name": "C3",
          "ticks": 8472,
          "time": 40.7307285,
          "velocity": 0.7874015748031497
        },
        {
          "duration": 0.23076900000000222,
          "durationTicks": 48,
          "midi": 49,
          "name": "C#3",
          "ticks": 8520,
          "time": 40.96149749999999,
          "velocity": 0.7874015748031497
        },
        {
          "duration": 0.23076900000000222,
          "durationTicks": 48,
          "midi": 49,
          "name": "C#3",
          "ticks": 8568,
          "time": 41.192266499999995,
          "velocity": 0.7874015748031497
        },
        {
          "duration": 1.0384604999999993,
          "durationTicks": 216,
          "midi": 48,
          "name": "C3",
          "ticks": 8616,
          "time": 41.4230355,
          "velocity": 0.7874015748031497
        },
        {
          "duration": 0.3461534999999998,
          "durationTicks": 72,
          "midi": 49,
          "name": "C#3",
          "ticks": 8928,
          "time": 42.923033999999994,
          "velocity": 0.7874015748031497
        },
        {
          "duration": 0.3461534999999998,
          "durationTicks": 72,
          "midi": 50,
          "name": "D3",
          "ticks": 9000,
          "time": 43.269187499999994,
          "velocity": 0.7874015748031497
        },
        {
          "duration": 0.3461534999999998,
          "durationTicks": 72,
          "midi": 49,
          "name": "C#3",
          "ticks": 9072,
          "time": 43.615340999999994,
          "velocity": 0.7874015748031497
        },
        {
          "duration": 0.3461534999999998,
          "durationTicks": 72,
          "midi": 50,
          "name": "D3",
          "ticks": 9144,
          "time": 43.96149449999999,
          "velocity": 0.7874015748031497
        },
        {
          "duration": 0.3461534999999998,
          "durationTicks": 72,
          "midi": 49,
          "name": "C#3",
          "ticks": 9216,
          "time": 44.30764799999999,
          "velocity": 0.7874015748031497
        },
        {
          "duration": 0.3461534999999998,
          "durationTicks": 72,
          "midi": 50,
          "name": "D3",
          "ticks": 9288,
          "time": 44.65380149999999,
          "velocity": 0.7874015748031497
        },
        {
          "duration": 0.3461534999999998,
          "durationTicks": 72,
          "midi": 49,
          "name": "C#3",
          "ticks": 9360,
          "time": 44.99995499999999,
          "velocity": 0.7874015748031497
        },
        {
          "duration": 0.3461534999999998,
          "durationTicks": 72,
          "midi": 50,
          "name": "D3",
          "ticks": 9432,
          "time": 45.34610849999999,
          "velocity": 0.7874015748031497
        },
        {
          "duration": 0.3461534999999998,
          "durationTicks": 72,
          "midi": 49,
          "name": "C#3",
          "ticks": 9504,
          "time": 45.69226199999999,
          "velocity": 0.7874015748031497
        },
        {
          "duration": 0.3461534999999998,
          "durationTicks": 72,
          "midi": 48,
          "name": "C3",
          "ticks": 9576,
          "time": 46.03841549999999,
          "velocity": 0.7874015748031497
        },
        {
          "duration": 0.3461534999999998,
          "durationTicks": 72,
          "midi": 49,
          "name": "C#3",
          "ticks": 9648,
          "time": 46.38456899999999,
          "velocity": 0.7874015748031497
        },
        {
          "duration": 0.3461534999999998,
          "durationTicks": 72,
          "midi": 50,
          "name": "D3",
          "ticks": 9720,
          "time": 46.73072249999999,
          "velocity": 0.7874015748031497
        },
        {
          "duration": 1.4999985000000038,
          "durationTicks": 312,
          "midi": 50,
          "name": "D3",
          "ticks": 9792,
          "time": 47.07687599999999,
          "velocity": 0.7874015748031497
        },
        {
          "duration": 0.23076900000000222,
          "durationTicks": 48,
          "midi": 48,
          "name": "C3",
          "ticks": 10752,
          "time": 51.69225599999999,
          "velocity": 0.7874015748031497
        },
        {
          "duration": 0.23076900000000222,
          "durationTicks": 48,
          "midi": 52,
          "name": "E3",
          "ticks": 10752,
          "time": 51.69225599999999,
          "velocity": 0.7874015748031497
        },
        {
          "duration": 0.23076899999999512,
          "durationTicks": 48,
          "midi": 50,
          "name": "D3",
          "ticks": 10800,
          "time": 51.923024999999996,
          "velocity": 0.7874015748031497
        },
        {
          "duration": 0.23076899999999512,
          "durationTicks": 48,
          "midi": 54,
          "name": "F#3",
          "ticks": 10800,
          "time": 51.923024999999996,
          "velocity": 0.7874015748031497
        },
        {
          "duration": 0.23076900000000222,
          "durationTicks": 48,
          "midi": 50,
          "name": "D3",
          "ticks": 10848,
          "time": 52.15379399999999,
          "velocity": 0.7874015748031497
        },
        {
          "duration": 0.23076900000000222,
          "durationTicks": 48,
          "midi": 54,
          "name": "F#3",
          "ticks": 10848,
          "time": 52.15379399999999,
          "velocity": 0.7874015748031497
        },
        {
          "duration": 0.6923069999999996,
          "durationTicks": 144,
          "midi": 49,
          "name": "C#3",
          "ticks": 10896,
          "time": 52.38456299999999,
          "velocity": 0.7874015748031497
        },
        {
          "duration": 0.6923069999999996,
          "durationTicks": 144,
          "midi": 53,
          "name": "F3",
          "ticks": 10896,
          "time": 52.38456299999999,
          "velocity": 0.7874015748031497
        },
        {
          "duration": 0.23076900000000222,
          "durationTicks": 48,
          "midi": 52,
          "name": "E3",
          "ticks": 11304,
          "time": 54.346099499999994,
          "velocity": 0.7874015748031497
        },
        {
          "duration": 0.23076899999999512,
          "durationTicks": 48,
          "midi": 53,
          "name": "F3",
          "ticks": 11352,
          "time": 54.576868499999996,
          "velocity": 0.7874015748031497
        },
        {
          "duration": 0.23076900000000222,
          "durationTicks": 48,
          "midi": 53,
          "name": "F3",
          "ticks": 11472,
          "time": 55.15379099999999,
          "velocity": 0.7874015748031497
        },
        {
          "duration": 0.23076900000000222,
          "durationTicks": 48,
          "midi": 53,
          "name": "F3",
          "ticks": 11616,
          "time": 55.84609799999999,
          "velocity": 0.7874015748031497
        },
        {
          "duration": 0.23076899999999512,
          "durationTicks": 48,
          "midi": 53,
          "name": "F3",
          "ticks": 11904,
          "time": 57.230712,
          "velocity": 0.7874015748031497
        },
        {
          "duration": 0.23076900000000222,
          "durationTicks": 48,
          "midi": 54,
          "name": "F#3",
          "ticks": 11952,
          "time": 57.46148099999999,
          "velocity": 0.7874015748031497
        },
        {
          "duration": 0.23076900000000222,
          "durationTicks": 48,
          "midi": 53,
          "name": "F3",
          "ticks": 12000,
          "time": 57.692249999999994,
          "velocity": 0.7874015748031497
        },
        {
          "duration": 0.46153799999999734,
          "durationTicks": 96,
          "midi": 54,
          "name": "F#3",
          "ticks": 12048,
          "time": 57.923019,
          "velocity": 0.7874015748031497
        },
        {
          "duration": 0.23076900000000222,
          "durationTicks": 48,
          "midi": 53,
          "name": "F3",
          "ticks": 12144,
          "time": 58.384556999999994,
          "velocity": 0.7874015748031497
        },
        {
          "duration": 0.23076899999999512,
          "durationTicks": 48,
          "midi": 54,
          "name": "F#3",
          "ticks": 12192,
          "time": 58.615325999999996,
          "velocity": 0.7874015748031497
        },
        {
          "duration": 0.23076900000000222,
          "durationTicks": 48,
          "midi": 53,
          "name": "F3",
          "ticks": 12240,
          "time": 58.84609499999999,
          "velocity": 0.7874015748031497
        },
        {
          "duration": 0.23076900000000222,
          "durationTicks": 48,
          "midi": 54,
          "name": "F#3",
          "ticks": 12288,
          "time": 59.07686399999999,
          "velocity": 0.7874015748031497
        },
        {
          "duration": 0.3461534999999998,
          "durationTicks": 72,
          "midi": 53,
          "name": "F3",
          "ticks": 12384,
          "time": 59.53840199999999,
          "velocity": 0.7874015748031497
        },
        {
          "duration": 0.3461534999999998,
          "durationTicks": 72,
          "midi": 54,
          "name": "F#3",
          "ticks": 12456,
          "time": 59.88455549999999,
          "velocity": 0.7874015748031497
        },
        {
          "duration": 0.3461534999999998,
          "durationTicks": 72,
          "midi": 54,
          "name": "F#3",
          "ticks": 12528,
          "time": 60.23070899999999,
          "velocity": 0.7874015748031497
        },
        {
          "duration": 1.4999984999999967,
          "durationTicks": 312,
          "midi": 54,
          "name": "F#3",
          "ticks": 12624,
          "time": 60.692246999999995,
          "velocity": 0.7874015748031497
        },
        {
          "duration": 0.23076900000000222,
          "durationTicks": 48,
          "midi": 52,
          "name": "E3",
          "ticks": 13056,
          "time": 62.76916799999999,
          "velocity": 0.7874015748031497
        },
        {
          "duration": 0.23076900000000222,
          "durationTicks": 48,
          "midi": 48,
          "name": "C3",
          "ticks": 13056,
          "time": 62.76916799999999,
          "velocity": 0.7874015748031497
        },
        {
          "duration": 0.23076899999999512,
          "durationTicks": 48,
          "midi": 54,
          "name": "F#3",
          "ticks": 13104,
          "time": 62.999936999999996,
          "velocity": 0.7874015748031497
        },
        {
          "duration": 0.23076899999999512,
          "durationTicks": 48,
          "midi": 50,
          "name": "D3",
          "ticks": 13104,
          "time": 62.999936999999996,
          "velocity": 0.7874015748031497
        },
        {
          "duration": 0.23076900000000222,
          "durationTicks": 48,
          "midi": 54,
          "name": "F#3",
          "ticks": 13152,
          "time": 63.23070599999999,
          "velocity": 0.7874015748031497
        },
        {
          "duration": 0.23076900000000222,
          "durationTicks": 48,
          "midi": 50,
          "name": "D3",
          "ticks": 13152,
          "time": 63.23070599999999,
          "velocity": 0.7874015748031497
        },
        {
          "duration": 0.9230759999999947,
          "durationTicks": 192,
          "midi": 53,
          "name": "F3",
          "ticks": 13200,
          "time": 63.46147499999999,
          "velocity": 0.7874015748031497
        },
        {
          "duration": 0.9230759999999947,
          "durationTicks": 192,
          "midi": 49,
          "name": "C#3",
          "ticks": 13200,
          "time": 63.46147499999999,
          "velocity": 0.7874015748031497
        },
        {
          "duration": 0.23076900000000933,
          "durationTicks": 48,
          "midi": 48,
          "name": "C3",
          "ticks": 13608,
          "time": 65.42301149999999,
          "velocity": 0.7874015748031497
        },
        {
          "duration": 0.23076899999999512,
          "durationTicks": 48,
          "midi": 49,
          "name": "C#3",
          "ticks": 13656,
          "time": 65.6537805,
          "velocity": 0.7874015748031497
        },
        {
          "duration": 0.23076899999999512,
          "durationTicks": 48,
          "midi": 50,
          "name": "D3",
          "ticks": 13776,
          "time": 66.23070299999999,
          "velocity": 0.7874015748031497
        },
        {
          "duration": 0.23076900000000933,
          "durationTicks": 48,
          "midi": 49,
          "name": "C#3",
          "ticks": 13824,
          "time": 66.46147199999999,
          "velocity": 0.7874015748031497
        },
        {
          "duration": 0.23076899999999512,
          "durationTicks": 48,
          "midi": 49,
          "name": "C#3",
          "ticks": 14232,
          "time": 68.4230085,
          "velocity": 0.7874015748031497
        },
        {
          "duration": 0.23076900000000933,
          "durationTicks": 48,
          "midi": 50,
          "name": "D3",
          "ticks": 14280,
          "time": 68.65377749999999,
          "velocity": 0.7874015748031497
        },
        {
          "duration": 0.23076899999999512,
          "durationTicks": 48,
          "midi": 49,
          "name": "C#3",
          "ticks": 14328,
          "time": 68.8845465,
          "velocity": 0.7874015748031497
        },
        {
          "duration": 0.46153800000000444,
          "durationTicks": 96,
          "midi": 50,
          "name": "D3",
          "ticks": 14376,
          "time": 69.1153155,
          "velocity": 0.7874015748031497
        },
        {
          "duration": 0.23076899999999512,
          "durationTicks": 48,
          "midi": 49,
          "name": "C#3",
          "ticks": 14472,
          "time": 69.5768535,
          "velocity": 0.7874015748031497
        },
        {
          "duration": 0.23076899999999512,
          "durationTicks": 48,
          "midi": 50,
          "name": "D3",
          "ticks": 14520,
          "time": 69.8076225,
          "velocity": 0.7874015748031497
        },
        {
          "duration": 0.23076899999999512,
          "durationTicks": 48,
          "midi": 50,
          "name": "D3",
          "ticks": 14592,
          "time": 70.153776,
          "velocity": 0.7874015748031497
        },
        {
          "duration": 0.46153800000000444,
          "durationTicks": 96,
          "midi": 49,
          "name": "C#3",
          "ticks": 14640,
          "time": 70.38454499999999,
          "velocity": 0.7874015748031497
        },
        {
          "duration": 0.6923069999999996,
          "durationTicks": 144,
          "midi": 50,
          "name": "D3",
          "ticks": 14736,
          "time": 70.846083,
          "velocity": 0.7874015748031497
        },
        {
          "duration": 0.3461534999999998,
          "durationTicks": 72,
          "midi": 48,
          "name": "C3",
          "ticks": 14880,
          "time": 71.53838999999999,
          "velocity": 0.7874015748031497
        },
        {
          "duration": 1.4999985000000038,
          "durationTicks": 312,
          "midi": 50,
          "name": "D3",
          "ticks": 14952,
          "time": 71.88454349999999,
          "velocity": 0.7874015748031497
        },
        {
          "duration": 0.23076900000000933,
          "durationTicks": 48,
          "midi": 49,
          "name": "C#3",
          "ticks": 15360,
          "time": 73.84607999999999,
          "velocity": 0.7874015748031497
        },
        {
          "duration": 0.23076900000000933,
          "durationTicks": 48,
          "midi": 53,
          "name": "F3",
          "ticks": 15360,
          "time": 73.84607999999999,
          "velocity": 0.7874015748031497
        },
        {
          "duration": 0.23076899999999512,
          "durationTicks": 48,
          "midi": 50,
          "name": "D3",
          "ticks": 15408,
          "time": 74.076849,
          "velocity": 0.7874015748031497
        },
        {
          "duration": 0.23076899999999512,
          "durationTicks": 48,
          "midi": 54,
          "name": "F#3",
          "ticks": 15408,
          "time": 74.076849,
          "velocity": 0.7874015748031497
        },
        {
          "duration": 0.23076899999999512,
          "durationTicks": 48,
          "midi": 50,
          "name": "D3",
          "ticks": 15456,
          "time": 74.30761799999999,
          "velocity": 0.7874015748031497
        },
        {
          "duration": 0.23076899999999512,
          "durationTicks": 48,
          "midi": 54,
          "name": "F#3",
          "ticks": 15456,
          "time": 74.30761799999999,
          "velocity": 0.7874015748031497
        },
        {
          "duration": 1.6153830000000085,
          "durationTicks": 336,
          "midi": 49,
          "name": "C#3",
          "ticks": 15504,
          "time": 74.53838699999999,
          "velocity": 0.7874015748031497
        },
        {
          "duration": 1.6153830000000085,
          "durationTicks": 336,
          "midi": 53,
          "name": "F3",
          "ticks": 15504,
          "time": 74.53838699999999,
          "velocity": 0.7874015748031497
        },
        {
          "duration": 0.23076899999999512,
          "durationTicks": 48,
          "midi": 52,
          "name": "E3",
          "ticks": 15912,
          "time": 76.4999235,
          "velocity": 0.7874015748031497
        },
        {
          "duration": 0.23076899999999512,
          "durationTicks": 48,
          "midi": 53,
          "name": "F3",
          "ticks": 15960,
          "time": 76.73069249999999,
          "velocity": 0.7874015748031497
        },
        {
          "duration": 0.23076899999999512,
          "durationTicks": 48,
          "midi": 53,
          "name": "F3",
          "ticks": 16080,
          "time": 77.307615,
          "velocity": 0.7874015748031497
        },
        {
          "duration": 1.2692294999999945,
          "durationTicks": 264,
          "midi": 52,
          "name": "E3",
          "ticks": 16128,
          "time": 77.538384,
          "velocity": 0.7874015748031497
        },
        {
          "duration": 0.3461534999999998,
          "durationTicks": 72,
          "midi": 54,
          "name": "F#3",
          "ticks": 16464,
          "time": 79.15376699999999,
          "velocity": 0.7874015748031497
        },
        {
          "duration": 0.3461534999999998,
          "durationTicks": 72,
          "midi": 53,
          "name": "F3",
          "ticks": 16536,
          "time": 79.49992049999999,
          "velocity": 0.7874015748031497
        },
        {
          "duration": 0.3461534999999998,
          "durationTicks": 72,
          "midi": 54,
          "name": "F#3",
          "ticks": 16608,
          "time": 79.84607399999999,
          "velocity": 0.7874015748031497
        },
        {
          "duration": 0.3461534999999998,
          "durationTicks": 72,
          "midi": 53,
          "name": "F3",
          "ticks": 16680,
          "time": 80.19222749999999,
          "velocity": 0.7874015748031497
        },
        {
          "duration": 0.3461534999999998,
          "durationTicks": 72,
          "midi": 54,
          "name": "F#3",
          "ticks": 16752,
          "time": 80.53838099999999,
          "velocity": 0.7874015748031497
        },
        {
          "duration": 0.3461534999999998,
          "durationTicks": 72,
          "midi": 53,
          "name": "F3",
          "ticks": 16824,
          "time": 80.88453449999999,
          "velocity": 0.7874015748031497
        },
        {
          "duration": 0.3461534999999998,
          "durationTicks": 72,
          "midi": 54,
          "name": "F#3",
          "ticks": 16896,
          "time": 81.23068799999999,
          "velocity": 0.7874015748031497
        },
        {
          "duration": 0.3461534999999998,
          "durationTicks": 72,
          "midi": 53,
          "name": "F3",
          "ticks": 16968,
          "time": 81.57684149999999,
          "velocity": 0.7874015748031497
        },
        {
          "duration": 0.3461534999999998,
          "durationTicks": 72,
          "midi": 54,
          "name": "F#3",
          "ticks": 17040,
          "time": 81.92299499999999,
          "velocity": 0.7874015748031497
        },
        {
          "duration": 0.3461534999999998,
          "durationTicks": 72,
          "midi": 53,
          "name": "F3",
          "ticks": 17112,
          "time": 82.26914849999999,
          "velocity": 0.7874015748031497
        },
        {
          "duration": 0.3461534999999998,
          "durationTicks": 72,
          "midi": 52,
          "name": "E3",
          "ticks": 17184,
          "time": 82.61530199999999,
          "velocity": 0.7874015748031497
        },
        {
          "duration": 0.3461534999999998,
          "durationTicks": 72,
          "midi": 53,
          "name": "F3",
          "ticks": 17256,
          "time": 82.96145549999999,
          "velocity": 0.7874015748031497
        },
        {
          "duration": 1.2692295000000087,
          "durationTicks": 264,
          "midi": 54,
          "name": "F#3",
          "ticks": 17328,
          "time": 83.30760899999999,
          "velocity": 0.7874015748031497
        },
        {
          "duration": 0.3461534999999998,
          "durationTicks": 72,
          "midi": 49,
          "name": "C#3",
          "ticks": 17640,
          "time": 84.80760749999999,
          "velocity": 0.7874015748031497
        },
        {
          "duration": 0.46153800000000444,
          "durationTicks": 96,
          "midi": 50,
          "name": "D3",
          "ticks": 17712,
          "time": 85.15376099999999,
          "velocity": 0.7874015748031497
        },
        {
          "duration": 0.46153799999999023,
          "durationTicks": 96,
          "midi": 50,
          "name": "D3",
          "ticks": 17808,
          "time": 85.615299,
          "velocity": 0.7874015748031497
        },
        {
          "duration": 1.153845000000004,
          "durationTicks": 240,
          "midi": 48,
          "name": "C3",
          "ticks": 17904,
          "time": 86.07683699999998,
          "velocity": 0.7874015748031497
        },
        {
          "duration": 0.23076899999999512,
          "durationTicks": 48,
          "midi": 48,
          "name": "C3",
          "ticks": 18240,
          "time": 87.69221999999999,
          "velocity": 0.7874015748031497
        },
        {
          "duration": 0.23076900000000933,
          "durationTicks": 48,
          "midi": 48,
          "name": "C3",
          "ticks": 18288,
          "time": 87.92298899999999,
          "velocity": 0.7874015748031497
        },
        {
          "duration": 0.23076899999999512,
          "durationTicks": 48,
          "midi": 48,
          "name": "C3",
          "ticks": 18336,
          "time": 88.153758,
          "velocity": 0.7874015748031497
        },
        {
          "duration": 0.23076899999999512,
          "durationTicks": 48,
          "midi": 49,
          "name": "C#3",
          "ticks": 18384,
          "time": 88.38452699999999,
          "velocity": 0.7874015748031497
        },
        {
          "duration": 0.23076900000000933,
          "durationTicks": 48,
          "midi": 49,
          "name": "C#3",
          "ticks": 18432,
          "time": 88.61529599999999,
          "velocity": 0.7874015748031497
        },
        {
          "duration": 1.0384604999999993,
          "durationTicks": 216,
          "midi": 48,
          "name": "C3",
          "ticks": 18480,
          "time": 88.846065,
          "velocity": 0.7874015748031497
        },
        {
          "duration": 0.3461534999999998,
          "durationTicks": 72,
          "midi": 50,
          "name": "D3",
          "ticks": 18792,
          "time": 90.34606349999999,
          "velocity": 0.7874015748031497
        },
        {
          "duration": 0.3461534999999998,
          "durationTicks": 72,
          "midi": 49,
          "name": "C#3",
          "ticks": 18864,
          "time": 90.69221699999999,
          "velocity": 0.7874015748031497
        },
        {
          "duration": 0.3461534999999998,
          "durationTicks": 72,
          "midi": 50,
          "name": "D3",
          "ticks": 18936,
          "time": 91.03837049999998,
          "velocity": 0.7874015748031497
        },
        {
          "duration": 0.3461534999999998,
          "durationTicks": 72,
          "midi": 49,
          "name": "C#3",
          "ticks": 19008,
          "time": 91.38452399999998,
          "velocity": 0.7874015748031497
        },
        {
          "duration": 0.3461534999999998,
          "durationTicks": 72,
          "midi": 50,
          "name": "D3",
          "ticks": 19080,
          "time": 91.73067749999998,
          "velocity": 0.7874015748031497
        },
        {
          "duration": 0.3461534999999998,
          "durationTicks": 72,
          "midi": 49,
          "name": "C#3",
          "ticks": 19152,
          "time": 92.07683099999998,
          "velocity": 0.7874015748031497
        },
        {
          "duration": 0.3461534999999998,
          "durationTicks": 72,
          "midi": 50,
          "name": "D3",
          "ticks": 19224,
          "time": 92.42298449999998,
          "velocity": 0.7874015748031497
        },
        {
          "duration": 0.3461534999999998,
          "durationTicks": 72,
          "midi": 49,
          "name": "C#3",
          "ticks": 19296,
          "time": 92.76913799999998,
          "velocity": 0.7874015748031497
        },
        {
          "duration": 0.3461534999999998,
          "durationTicks": 72,
          "midi": 50,
          "name": "D3",
          "ticks": 19368,
          "time": 93.11529149999998,
          "velocity": 0.7874015748031497
        },
        {
          "duration": 0.3461534999999998,
          "durationTicks": 72,
          "midi": 49,
          "name": "C#3",
          "ticks": 19440,
          "time": 93.46144499999998,
          "velocity": 0.7874015748031497
        },
        {
          "duration": 0.3461534999999998,
          "durationTicks": 72,
          "midi": 48,
          "name": "C3",
          "ticks": 19512,
          "time": 93.80759849999998,
          "velocity": 0.7874015748031497
        },
        {
          "duration": 0.3461534999999998,
          "durationTicks": 72,
          "midi": 49,
          "name": "C#3",
          "ticks": 19584,
          "time": 94.15375199999998,
          "velocity": 0.7874015748031497
        },
        {
          "duration": 1.4999985000000038,
          "durationTicks": 312,
          "midi": 50,
          "name": "D3",
          "ticks": 19656,
          "time": 94.49990549999998,
          "velocity": 0.7874015748031497
        },
        {
          "duration": 0.3461534999999998,
          "durationTicks": 72,
          "midi": 52,
          "name": "E3",
          "ticks": 20088,
          "time": 96.5768265,
          "velocity": 0.7874015748031497
        },
        {
          "duration": 0.3461534999999998,
          "durationTicks": 72,
          "midi": 54,
          "name": "F#3",
          "ticks": 20160,
          "time": 96.92298,
          "velocity": 0.7874015748031497
        },
        {
          "duration": 0.3461534999999998,
          "durationTicks": 72,
          "midi": 53,
          "name": "F3",
          "ticks": 20304,
          "time": 97.615287,
          "velocity": 0.7874015748031497
        },
        {
          "duration": 0.3461534999999998,
          "durationTicks": 72,
          "midi": 53,
          "name": "F3",
          "ticks": 20376,
          "time": 97.9614405,
          "velocity": 0.7874015748031497
        },
        {
          "duration": 0.3461534999999998,
          "durationTicks": 72,
          "midi": 53,
          "name": "F3",
          "ticks": 20448,
          "time": 98.307594,
          "velocity": 0.7874015748031497
        },
        {
          "duration": 0.3461534999999998,
          "durationTicks": 72,
          "midi": 52,
          "name": "E3",
          "ticks": 20520,
          "time": 98.6537475,
          "velocity": 0.7874015748031497
        },
        {
          "duration": 0.3461534999999998,
          "durationTicks": 72,
          "midi": 52,
          "name": "E3",
          "ticks": 20592,
          "time": 98.999901,
          "velocity": 0.7874015748031497
        },
        {
          "duration": 0.23076899999999512,
          "durationTicks": 48,
          "midi": 53,
          "name": "F3",
          "ticks": 20664,
          "time": 99.3460545,
          "velocity": 0.7874015748031497
        },
        {
          "duration": 0.23076899999999512,
          "durationTicks": 48,
          "midi": 54,
          "name": "F#3",
          "ticks": 20712,
          "time": 99.57682349999999,
          "velocity": 0.7874015748031497
        },
        {
          "duration": 0.5769225000000091,
          "durationTicks": 120,
          "midi": 53,
          "name": "F3",
          "ticks": 20760,
          "time": 99.80759249999998,
          "velocity": 0.7874015748031497
        },
        {
          "duration": 0.3461534999999998,
          "durationTicks": 72,
          "midi": 53,
          "name": "F3",
          "ticks": 20952,
          "time": 100.7306685,
          "velocity": 0.7874015748031497
        },
        {
          "duration": 0.3461534999999998,
          "durationTicks": 72,
          "midi": 50,
          "name": "D3",
          "ticks": 21312,
          "time": 102.46143599999999,
          "velocity": 0.7874015748031497
        },
        {
          "duration": 0.3461534999999998,
          "durationTicks": 72,
          "midi": 49,
          "name": "C#3",
          "ticks": 21456,
          "time": 103.15374299999999,
          "velocity": 0.7874015748031497
        },
        {
          "duration": 0.3461534999999998,
          "durationTicks": 72,
          "midi": 49,
          "name": "C#3",
          "ticks": 21528,
          "time": 103.49989649999999,
          "velocity": 0.7874015748031497
        },
        {
          "duration": 0.46153799999999023,
          "durationTicks": 96,
          "midi": 48,
          "name": "C3",
          "ticks": 21600,
          "time": 103.84604999999999,
          "velocity": 0.7874015748031497
        },
        {
          "duration": 0.23076900000000933,
          "durationTicks": 48,
          "midi": 49,
          "name": "C#3",
          "ticks": 21696,
          "time": 104.30758799999998,
          "velocity": 0.7874015748031497
        },
        {
          "duration": 0.3461534999999998,
          "durationTicks": 72,
          "midi": 48,
          "name": "C3",
          "ticks": 21744,
          "time": 104.53835699999999,
          "velocity": 0.7874015748031497
        },
        {
          "duration": 0.23076899999999512,
          "durationTicks": 48,
          "midi": 49,
          "name": "C#3",
          "ticks": 21816,
          "time": 104.88451049999999,
          "velocity": 0.7874015748031497
        },
        {
          "duration": 0.23076900000000933,
          "durationTicks": 48,
          "midi": 50,
          "name": "D3",
          "ticks": 21864,
          "time": 105.11527949999999,
          "velocity": 0.7874015748031497
        },
        {
          "duration": 0.5769224999999949,
          "durationTicks": 120,
          "midi": 49,
          "name": "C#3",
          "ticks": 21912,
          "time": 105.3460485,
          "velocity": 0.7874015748031497
        },
        {
          "duration": 0.3461534999999998,
          "durationTicks": 72,
          "midi": 48,
          "name": "C3",
          "ticks": 22104,
          "time": 106.26912449999999,
          "velocity": 0.7874015748031497
        },
        {
          "duration": 0.3461534999999998,
          "durationTicks": 72,
          "midi": 50,
          "name": "D3",
          "ticks": 22464,
          "time": 107.99989199999999,
          "velocity": 0.7874015748031497
        },
        {
          "duration": 0.3461534999999998,
          "durationTicks": 72,
          "midi": 49,
          "name": "C#3",
          "ticks": 22608,
          "time": 108.69219899999999,
          "velocity": 0.7874015748031497
        },
        {
          "duration": 0.3461534999999998,
          "durationTicks": 72,
          "midi": 49,
          "name": "C#3",
          "ticks": 22680,
          "time": 109.03835249999999,
          "velocity": 0.7874015748031497
        },
        {
          "duration": 0.46153800000000444,
          "durationTicks": 96,
          "midi": 48,
          "name": "C3",
          "ticks": 22752,
          "time": 109.38450599999999,
          "velocity": 0.7874015748031497
        },
        {
          "duration": 0.23076899999999512,
          "durationTicks": 48,
          "midi": 49,
          "name": "C#3",
          "ticks": 22848,
          "time": 109.84604399999999,
          "velocity": 0.7874015748031497
        },
        {
          "duration": 0.3461534999999998,
          "durationTicks": 72,
          "midi": 48,
          "name": "C3",
          "ticks": 22896,
          "time": 110.07681299999999,
          "velocity": 0.7874015748031497
        },
        {
          "duration": 0.23076899999999512,
          "durationTicks": 48,
          "midi": 49,
          "name": "C#3",
          "ticks": 22968,
          "time": 110.42296649999999,
          "velocity": 0.7874015748031497
        },
        {
          "duration": 0.23076900000000933,
          "durationTicks": 48,
          "midi": 50,
          "name": "D3",
          "ticks": 23016,
          "time": 110.65373549999998,
          "velocity": 0.7874015748031497
        },
        {
          "duration": 0.5769224999999949,
          "durationTicks": 120,
          "midi": 49,
          "name": "C#3",
          "ticks": 23064,
          "time": 110.88450449999999,
          "velocity": 0.7874015748031497
        },
        {
          "duration": 0.3461534999999998,
          "durationTicks": 72,
          "midi": 48,
          "name": "C3",
          "ticks": 23256,
          "time": 111.80758049999999,
          "velocity": 0.7874015748031497
        },
        {
          "duration": 0.3461534999999998,
          "durationTicks": 72,
          "midi": 52,
          "name": "E3",
          "ticks": 23400,
          "time": 112.49988749999999,
          "velocity": 0.7874015748031497
        },
        {
          "duration": 0.3461534999999998,
          "durationTicks": 72,
          "midi": 48,
          "name": "C3",
          "ticks": 23400,
          "time": 112.49988749999999,
          "velocity": 0.7874015748031497
        },
        {
          "duration": 0.3461534999999998,
          "durationTicks": 72,
          "midi": 52,
          "name": "E3",
          "ticks": 23472,
          "time": 112.84604099999999,
          "velocity": 0.7874015748031497
        },
        {
          "duration": 0.3461534999999998,
          "durationTicks": 72,
          "midi": 48,
          "name": "C3",
          "ticks": 23472,
          "time": 112.84604099999999,
          "velocity": 0.7874015748031497
        },
        {
          "duration": 0.3461534999999998,
          "durationTicks": 72,
          "midi": 54,
          "name": "F#3",
          "ticks": 23568,
          "time": 113.30757899999999,
          "velocity": 0.7874015748031497
        },
        {
          "duration": 0.3461534999999998,
          "durationTicks": 72,
          "midi": 50,
          "name": "D3",
          "ticks": 23568,
          "time": 113.30757899999999,
          "velocity": 0.7874015748031497
        },
        {
          "duration": 0.3461534999999998,
          "durationTicks": 72,
          "midi": 53,
          "name": "F3",
          "ticks": 23664,
          "time": 113.769117,
          "velocity": 0.7874015748031497
        },
        {
          "duration": 0.3461534999999998,
          "durationTicks": 72,
          "midi": 49,
          "name": "C#3",
          "ticks": 23664,
          "time": 113.769117,
          "velocity": 0.7874015748031497
        },
        {
          "duration": 0.3461534999999998,
          "durationTicks": 72,
          "midi": 52,
          "name": "E3",
          "ticks": 23784,
          "time": 114.34603949999999,
          "velocity": 0.7874015748031497
        },
        {
          "duration": 0.3461534999999998,
          "durationTicks": 72,
          "midi": 48,
          "name": "C3",
          "ticks": 23784,
          "time": 114.34603949999999,
          "velocity": 0.7874015748031497
        },
        {
          "duration": 0.3461534999999998,
          "durationTicks": 72,
          "midi": 48,
          "name": "C3",
          "ticks": 24000,
          "time": 115.38449999999999,
          "velocity": 0.7874015748031497
        },
        {
          "duration": 0.3461534999999998,
          "durationTicks": 72,
          "midi": 52,
          "name": "E3",
          "ticks": 24000,
          "time": 115.38449999999999,
          "velocity": 0.7874015748031497
        },
        {
          "duration": 0.3461534999999998,
          "durationTicks": 72,
          "midi": 52,
          "name": "E3",
          "ticks": 24072,
          "time": 115.73065349999999,
          "velocity": 0.7874015748031497
        },
        {
          "duration": 0.3461534999999998,
          "durationTicks": 72,
          "midi": 48,
          "name": "C3",
          "ticks": 24072,
          "time": 115.73065349999999,
          "velocity": 0.7874015748031497
        },
        {
          "duration": 0.3461534999999998,
          "durationTicks": 72,
          "midi": 49,
          "name": "C#3",
          "ticks": 24144,
          "time": 116.07680699999999,
          "velocity": 0.7874015748031497
        },
        {
          "duration": 0.3461534999999998,
          "durationTicks": 72,
          "midi": 53,
          "name": "F3",
          "ticks": 24144,
          "time": 116.07680699999999,
          "velocity": 0.7874015748031497
        },
        {
          "duration": 0.3461534999999998,
          "durationTicks": 72,
          "midi": 54,
          "name": "F#3",
          "ticks": 24216,
          "time": 116.42296049999999,
          "velocity": 0.7874015748031497
        },
        {
          "duration": 0.3461534999999998,
          "durationTicks": 72,
          "midi": 50,
          "name": "D3",
          "ticks": 24216,
          "time": 116.42296049999999,
          "velocity": 0.7874015748031497
        },
        {
          "duration": 0.3461534999999998,
          "durationTicks": 72,
          "midi": 53,
          "name": "F3",
          "ticks": 24288,
          "time": 116.76911399999999,
          "velocity": 0.7874015748031497
        },
        {
          "duration": 0.3461534999999998,
          "durationTicks": 72,
          "midi": 49,
          "name": "C#3",
          "ticks": 24288,
          "time": 116.76911399999999,
          "velocity": 0.7874015748031497
        },
        {
          "duration": 0.5769224999999949,
          "durationTicks": 120,
          "midi": 48,
          "name": "C3",
          "ticks": 24432,
          "time": 117.46142099999999,
          "velocity": 0.7874015748031497
        },
        {
          "duration": 0.5769224999999949,
          "durationTicks": 120,
          "midi": 52,
          "name": "E3",
          "ticks": 24432,
          "time": 117.46142099999999,
          "velocity": 0.7874015748031497
        },
        {
          "duration": 0.3461534999999998,
          "durationTicks": 72,
          "midi": 48,
          "name": "C3",
          "ticks": 25128,
          "time": 120.80757149999998,
          "velocity": 0.7874015748031497
        },
        {
          "duration": 0.3461534999999998,
          "durationTicks": 72,
          "midi": 52,
          "name": "E3",
          "ticks": 25128,
          "time": 120.80757149999998,
          "velocity": 0.7874015748031497
        },
        {
          "duration": 0.3461534999999998,
          "durationTicks": 72,
          "midi": 48,
          "name": "C3",
          "ticks": 25200,
          "time": 121.15372499999998,
          "velocity": 0.7874015748031497
        },
        {
          "duration": 0.3461534999999998,
          "durationTicks": 72,
          "midi": 52,
          "name": "E3",
          "ticks": 25200,
          "time": 121.15372499999998,
          "velocity": 0.7874015748031497
        },
        {
          "duration": 0.3461534999999998,
          "durationTicks": 72,
          "midi": 49,
          "name": "C#3",
          "ticks": 25272,
          "time": 121.49987849999998,
          "velocity": 0.7874015748031497
        },
        {
          "duration": 0.3461534999999998,
          "durationTicks": 72,
          "midi": 53,
          "name": "F3",
          "ticks": 25272,
          "time": 121.49987849999998,
          "velocity": 0.7874015748031497
        },
        {
          "duration": 0.3461534999999998,
          "durationTicks": 72,
          "midi": 50,
          "name": "D3",
          "ticks": 25344,
          "time": 121.84603199999998,
          "velocity": 0.7874015748031497
        },
        {
          "duration": 0.3461534999999998,
          "durationTicks": 72,
          "midi": 54,
          "name": "F#3",
          "ticks": 25344,
          "time": 121.84603199999998,
          "velocity": 0.7874015748031497
        },
        {
          "duration": 0.5769225000000091,
          "durationTicks": 120,
          "midi": 49,
          "name": "C#3",
          "ticks": 25416,
          "time": 122.19218549999998,
          "velocity": 0.7874015748031497
        },
        {
          "duration": 0.5769225000000091,
          "durationTicks": 120,
          "midi": 53,
          "name": "F3",
          "ticks": 25416,
          "time": 122.19218549999998,
          "velocity": 0.7874015748031497
        },
        {
          "duration": 1.2692294999999945,
          "durationTicks": 264,
          "midi": 48,
          "name": "C3",
          "ticks": 25560,
          "time": 122.8844925,
          "velocity": 0.7874015748031497
        },
        {
          "duration": 1.2692294999999945,
          "durationTicks": 264,
          "midi": 52,
          "name": "E3",
          "ticks": 25560,
          "time": 122.8844925,
          "velocity": 0.7874015748031497
        }
      ]
}